<?xml version="1.0" encoding="utf-8"?>
<!-- Generator: Adobe Illustrator 19.2.1, SVG Export Plug-In . SVG Version: 6.00 Build 0)  -->
<svg version="1.1" id="Layer_1" xmlns="http://www.w3.org/2000/svg" xmlns:xlink="http://www.w3.org/1999/xlink" x="0px" y="0px"
	 viewBox="0 0 260 350" style="enable-background:new 0 0 260 350;" xml:space="preserve">
<style type="text/css">
	.st0{fill:#002E5A;}
	.st1{fill:url(#SVGID_1_);}
	.st2{fill:url(#SVGID_2_);}
	.st3{opacity:0.5;fill:url(#SVGID_3_);}
	.st4{opacity:0.5;fill:url(#SVGID_4_);}
	.st5{opacity:0.5;fill:url(#SVGID_5_);}
	.st6{opacity:0.5;fill:url(#SVGID_6_);}
	.st7{opacity:0.5;fill:url(#SVGID_7_);}
	.st8{opacity:0.5;fill:url(#SVGID_8_);}
	.st9{fill:url(#SVGID_9_);}
	.st10{fill:url(#SVGID_10_);}
	.st11{clip-path:url(#SVGID_12_);}
	.st12{fill:url(#SVGID_13_);}
	.st13{fill:url(#SVGID_14_);}
	.st14{fill:url(#SVGID_15_);}
	.st15{fill:url(#SVGID_16_);}
	.st16{fill:url(#SVGID_17_);}
	.st17{fill:url(#SVGID_18_);}
	.st18{fill:url(#SVGID_19_);}
	.st19{fill:url(#SVGID_20_);}
	.st20{fill:url(#SVGID_21_);}
	.st21{fill:url(#SVGID_22_);}
	.st22{fill:url(#SVGID_23_);}
	.st23{fill:url(#SVGID_24_);}
	.st24{fill:url(#SVGID_25_);}
	.st25{fill:url(#SVGID_26_);}
	.st26{fill:url(#SVGID_27_);}
	.st27{fill:url(#SVGID_28_);}
	.st28{fill:url(#SVGID_29_);}
	.st29{fill:url(#SVGID_30_);}
	.st30{fill:url(#SVGID_31_);}
	.st31{fill:url(#SVGID_32_);}
	.st32{fill:url(#SVGID_33_);}
	.st33{fill:url(#SVGID_34_);}
	.st34{fill:url(#SVGID_35_);}
	.st35{fill:url(#SVGID_36_);}
	.st36{fill:url(#SVGID_37_);}
	.st37{fill:url(#SVGID_38_);}
	.st38{fill:url(#SVGID_39_);}
	.st39{fill:url(#SVGID_40_);}
	.st40{fill:url(#SVGID_41_);}
	.st41{fill:url(#SVGID_42_);}
	.st42{fill:url(#SVGID_43_);}
	.st43{fill:url(#SVGID_44_);}
	.st44{fill:url(#SVGID_45_);}
	.st45{fill:url(#SVGID_46_);}
	.st46{fill:url(#SVGID_47_);}
	.st47{fill:url(#SVGID_48_);}
	.st48{fill:url(#SVGID_49_);}
	.st49{fill:url(#SVGID_50_);}
	.st50{fill:url(#SVGID_51_);}
	.st51{fill:url(#SVGID_52_);}
	.st52{opacity:0.5;fill:url(#SVGID_53_);}
	.st53{opacity:0.5;fill:url(#SVGID_54_);}
	.st54{opacity:0.5;fill:url(#SVGID_55_);}
	.st55{opacity:0.5;fill:url(#SVGID_56_);}
	.st56{opacity:0.5;fill:url(#SVGID_57_);}
	.st57{opacity:0.5;fill:url(#SVGID_58_);}
</style>
<g>
	<g>
		<linearGradient id="SVGID_1_" gradientUnits="userSpaceOnUse" x1="39.1524" y1="63.567" x2="220.8279" y2="188.4689">
			<stop  offset="0" style="stop-color:#008FD5"/>
			<stop  offset="0.95" style="stop-color:#002E5A"/>
			<stop  offset="1" style="stop-color:#002E5A"/>
		</linearGradient>
		<circle class="st1" cx="130" cy="126" r="111.3"/>
		<g>
			<path class="st0" d="M94,189.6c0,3.1-0.1,4.6-0.1,7.7c0,1.6,0.5,1.4,0.9,1.2c2-1,3-1.4,5-2.4c0.2-0.1,0.6-0.1,0.8,0
				c1.2,0.5,2,0.8,3.3,1.3c0.4,0.1,1.2,0.4,1.2-1.1c0-2.6,0-7.4,0-7.4"/>
			<path class="st0" d="M128.8,111h8.6c-0.2-3-2-3.4-4.4-3.4C130.9,107.6,128.9,108,128.8,111z"/>
			<g>
				<path class="st0" d="M164.1,69H84v118h80.1c6.1,0,10.9-3.6,10.9-9.8V79.4C175,73.3,170.2,69,164.1,69z"/>
			</g>
		</g>
		<g>
			<linearGradient id="SVGID_2_" gradientUnits="userSpaceOnUse" x1="16.5962" y1="111.3717" x2="140.7075" y2="235.483">
				<stop  offset="0" style="stop-color:#80FFFF"/>
				<stop  offset="0.1717" style="stop-color:#7CFBFC"/>
				<stop  offset="0.3497" style="stop-color:#6FF0F4"/>
				<stop  offset="0.5305" style="stop-color:#5BDDE7"/>
				<stop  offset="0.7134" style="stop-color:#3EC2D4"/>
				<stop  offset="0.896" style="stop-color:#19A0BC"/>
				<stop  offset="1" style="stop-color:#008AAC"/>
			</linearGradient>
			<path class="st2" d="M91.3,187.4c0,3.1,0,4.5,0,7.6c0,1.6,0.6,1.3,0.9,1.1c2-1,3-1.4,5-2.4c0.2-0.1,0.6-0.1,0.8,0
				c1.2,0.5,1.8,0.8,3,1.3c0.4,0.1,0.9,0.4,0.9-1.1c0-2.6,0-6.9,0-6.9"/>
			<linearGradient id="SVGID_3_" gradientUnits="userSpaceOnUse" x1="68.8981" y1="44.9562" x2="213.4869" y2="189.545">
				<stop  offset="0" style="stop-color:#80FFFF"/>
				<stop  offset="0.1717" style="stop-color:#7CFBFC"/>
				<stop  offset="0.3497" style="stop-color:#6FF0F4"/>
				<stop  offset="0.5305" style="stop-color:#5BDDE7"/>
				<stop  offset="0.7134" style="stop-color:#3EC2D4"/>
				<stop  offset="0.896" style="stop-color:#19A0BC"/>
				<stop  offset="1" style="stop-color:#008AAC"/>
			</linearGradient>
			<path style="fill:url(#SVGID_3_);" d="M126.3,107h8.6c-0.2-1-2-3.4-4.4-3.4C128.4,103.6,126.5,106,126.3,107z"/>
			<g>
				<linearGradient id="SVGID_4_" gradientUnits="userSpaceOnUse" x1="68.8981" y1="44.9562" x2="213.4869" y2="189.545">
					<stop  offset="0" style="stop-color:#80FFFF"/>
					<stop  offset="0.1717" style="stop-color:#7CFBFC"/>
					<stop  offset="0.3497" style="stop-color:#6FF0F4"/>
					<stop  offset="0.5305" style="stop-color:#5BDDE7"/>
					<stop  offset="0.7134" style="stop-color:#3EC2D4"/>
					<stop  offset="0.896" style="stop-color:#19A0BC"/>
					<stop  offset="1" style="stop-color:#008AAC"/>
				</linearGradient>
				<path style="fill:url(#SVGID_4_);" d="M130.5,103.6c-2,0-4,2.4-4.2,3.4h8.6C134.7,106,132.9,103.6,130.5,103.6z"/>
				<linearGradient id="SVGID_5_" gradientUnits="userSpaceOnUse" x1="90.151" y1="91.9406" x2="173.9958" y2="175.7854">
					<stop  offset="0" style="stop-color:#80FFFF"/>
					<stop  offset="0.1717" style="stop-color:#7CFBFC"/>
					<stop  offset="0.3497" style="stop-color:#6FF0F4"/>
					<stop  offset="0.5305" style="stop-color:#5BDDE7"/>
					<stop  offset="0.7134" style="stop-color:#3EC2D4"/>
					<stop  offset="0.896" style="stop-color:#19A0BC"/>
					<stop  offset="1" style="stop-color:#008AAC"/>
				</linearGradient>
				<path style="fill:url(#SVGID_5_);" d="M161.6,67H83v119h78.6c6.1,0,10.4-5.1,10.4-11.2V77C172,70.8,167.7,67,161.6,67z
					 M118.7,119.6l-3.3,0c-1.2,0-2.2-0.6-2.7-1.4c-0.4-0.6-9-15.5-9-15.5l0.1,16c0,0.9-0.8,2.3-1.7,2.3H100c-0.9,0-1-2.2-1-3V96.2
					c0-0.9,0.1-1.2,1-1.2h3.2c1.2,0,2.1,0.5,2.5,1.2c0.4,0.8,8.9,15.5,8.9,15.5l-0.1-15c0-0.9,0.7-1.7,1.6-1.7h39.1
					c0.6,0-0.3,0.6-0.3,1.2v1.6c0,0.6,0.9-0.8,0.3-0.8H121v21.1C121,118.9,119.6,119.6,118.7,119.6z M138.3,111h-12.1
					c0.1,4,1.9,4.5,4.3,4.5c1.8,0,3-1.2,3.8-2.3c0.3-0.4,0.7-1.1,1.2-1.1h2.8c0.7,0,1,1.4,0.9,1.8c-0.7,3.3-4.7,5.7-8.7,5.7
					c-5.8,0-9.4-4.3-9.4-9.4c0-4.8,3.5-9.2,9.3-9.2c6.5,0,9.4,4.2,9.4,8.9C139.9,110.8,139.4,111,138.3,111z M149.2,119.9
					c-4.9,0-8.2-2.7-8.2-5.2v-0.3c0-0.5,0.1-2.4,0.5-2.4h2.4c0.7,0,1.2,0.9,1.4,1.5c0.5,1.1,2.1,2.2,3.7,2.2c1.7,0,3.3-0.3,3.3-1.7
					c0-0.9-1-1.1-2.1-1.4c-1-0.3-3.1-0.7-4.3-1c-2.7-0.7-4.9-2.2-4.9-4.9c0-3.5,3.1-5.7,7.9-5.7c4.6,0,7.8,2.4,7.8,5.1
					c0,0.5-0.4,0.9-0.8,0.9h-2.3c-0.6,0-1-0.2-1.2-0.7c-0.5-1-1.7-1.7-3.4-1.7c-1.6,0-2.9,0.4-2.9,1.8c0,0.9,1,1.2,2.1,1.5
					c0.6,0.1,3.3,0.8,4.5,1.1c2.9,0.7,4.8,2.5,4.8,5.1C157.4,118.6,152.7,119.9,149.2,119.9z"/>
			</g>
		</g>
	</g>
	<g>
		<g>
			<path class="st0" d="M83.9,325.2H79c-1.2,0-2.2-1-2.2-2.2v-28.4h-0.1l-6.8,30.7h-7.5l-6.7-30.7h-0.1v30.7h-4.9
				c-1.2,0-2.2-1-2.2-2.2v-32.2c0-1.2,1-2.2,2.2-2.2h9l6.6,28.9h0.1l6.1-27.2c0.2-1,1.1-1.7,2.2-1.7h9.3V325.2z"/>
			<path class="st0" d="M111.5,319.9c0,3.2,0.7,3.9,1.6,4.2v1.1h-7.7c-0.4-1.3-0.5-1.7-0.7-3.2c-1.6,1.7-3.9,3.9-8.8,3.9
				c-4.1,0-8.3-2.3-8.3-7.9c0-5.3,3.4-8,7.9-8.7l6.4-1c1.1-0.2,2.5-0.6,2.5-2.1c0-3-2.9-3.2-4.7-3.2c-3,0-3.9,1.5-4.2,2.9
				c-0.1,0.5-0.6,0.9-1.1,0.9h-4.7c-0.7,0-1.2-0.6-1.1-1.3c1.3-7.2,6.7-8.2,12-8.2c3.8,0,10.8,1.2,10.8,7.9V319.9z M104.5,312
				c-0.7,0.6-1.9,1-4.9,1.5c-2.7,0.5-4.9,1.1-4.9,4.1c0,2.5,1.9,3.3,3.3,3.3c3.2,0,6.4-2,6.4-5.4V312z"/>
			<path class="st0" d="M118.8,298h4.6v4.7h0.1c1.5-2.8,3.1-5.4,7.5-5.4c0.5,0,0.9,0.1,1.4,0.1v7.3c-0.6-0.1-1.4-0.1-2-0.1
				c-5.6,0-6.6,3.5-6.6,6.5v14.2h-4.9c-1.2,0-2.2-1-2.2-2.2v-22.7C116.5,299,117.5,298,118.8,298z"/>
			<path class="st0" d="M156.3,315.3c0.7,0,1.2,0.7,1.1,1.4c-0.8,3.4-3.6,9.3-12.2,9.3c-10.2,0-12.6-7.8-12.6-13.5
				c0-8.8,3.8-15.1,13-15.1c4.1,0,10.6,1.7,11.9,9.1c0.1,0.7-0.4,1.3-1.1,1.3h-5.1c-0.5,0-0.9-0.3-1.1-0.8c-0.5-1.6-1.6-3.6-4.2-3.6
				h-0.4c-4.5,0-5.7,4.5-5.7,7.9c0,3,0.1,8.8,5.5,8.8c3,0,4.4-2.4,4.7-3.9c0.1-0.5,0.6-0.8,1.1-0.8H156.3z"/>
			<path class="st0" d="M183.3,319.9c0,3.2,0.7,3.9,1.6,4.2v1.1h-7.7c-0.4-1.3-0.5-1.7-0.7-3.2c-1.6,1.7-3.9,3.9-8.8,3.9
				c-4.1,0-8.3-2.3-8.3-7.9c0-5.3,3.4-8,7.9-8.7l6.4-1c1.1-0.2,2.5-0.6,2.5-2.1c0-3-2.9-3.2-4.7-3.2c-3,0-3.9,1.5-4.2,2.9
				c-0.1,0.5-0.6,0.9-1.1,0.9h-4.7c-0.7,0-1.2-0.6-1.1-1.3c1.3-7.2,6.7-8.2,12-8.2c3.8,0,10.8,1.2,10.8,7.9V319.9z M176.3,312
				c-0.7,0.6-1.9,1-4.9,1.5c-2.7,0.5-4.9,1.1-4.9,4.1c0,2.5,1.9,3.3,3.3,3.3c3.2,0,6.4-2,6.4-5.4V312z"/>
			<path class="st0" d="M204.7,306.3c-0.5,0-0.9-0.3-1.1-0.8c-0.4-1.4-1.4-2.7-4.6-2.7c-3.9,0-4.4,1.5-4.4,2.7c0,4.3,17,1.2,17,11.2
				c0,7.9-7.7,9.4-11.9,9.4c-5.8,0-12-1.9-13-8.1c-0.1-0.7,0.4-1.3,1.1-1.3h5.1c0.5,0,1,0.4,1.1,0.9c0.4,1.8,2,3.1,5.8,3.1
				c3.7,0,4.5-1.8,4.5-2.8c0-4.5-16.9-1.1-16.9-11.3c0-4,2.5-9.1,11-9.1c5,0,10.9,1.2,12,7.7c0.1,0.7-0.4,1.3-1.1,1.3H204.7z"/>
		</g>
	</g>
</g>
</svg>
