<?xml version="1.0" encoding="utf-8"?>
<!-- Generator: Adobe Illustrator 19.2.1, SVG Export Plug-In . SVG Version: 6.00 Build 0)  -->
<svg version="1.1" id="Layer_1" xmlns="http://www.w3.org/2000/svg" xmlns:xlink="http://www.w3.org/1999/xlink" x="0px" y="0px"
	 viewBox="0 0 411 127.6" style="enable-background:new 0 0 411 127.6;" xml:space="preserve">
<style type="text/css">
	.st0{fill:#183059;}
	.st1{fill:url(#SVGID_1_);}
	.st2{fill:url(#SVGID_2_);}
	.st3{fill:url(#SVGID_3_);}
	.st4{fill:url(#SVGID_4_);}
	.st5{fill:url(#SVGID_5_);}
	.st6{fill:url(#SVGID_6_);}
	.st7{fill:url(#SVGID_7_);}
	.st8{fill:url(#SVGID_8_);}
	.st9{fill:url(#SVGID_9_);}
	.st10{fill:url(#SVGID_10_);}
	.st11{fill:url(#SVGID_11_);}
	.st12{fill:url(#SVGID_12_);}
	.st13{fill:url(#SVGID_13_);}
	.st14{fill:url(#SVGID_14_);}
	.st15{fill:url(#SVGID_15_);}
	.st16{fill:url(#SVGID_16_);}
	.st17{fill:url(#SVGID_17_);}
	.st18{fill:url(#SVGID_18_);}
	.st19{fill:url(#SVGID_19_);}
	.st20{fill:url(#SVGID_20_);}
	.st21{fill:url(#SVGID_21_);}
	.st22{fill:url(#SVGID_22_);}
	.st23{fill:url(#SVGID_23_);}
	.st24{fill:url(#SVGID_24_);}
	.st25{fill:url(#SVGID_25_);}
	.st26{clip-path:url(#SVGID_27_);}
	.st27{fill:url(#SVGID_28_);}
	.st28{fill:url(#SVGID_29_);}
	.st29{fill:url(#SVGID_30_);}
	.st30{fill:url(#SVGID_31_);}
	.st31{fill:url(#SVGID_32_);}
</style>
<g>
	<g>
		<path class="st0" d="M161.5,65.3c0,1.6,0.8,4.6,6,4.6c2.8,0,5.9-0.7,5.9-3.7c0-2.2-2.1-2.8-5.1-3.5l-3-0.7c-4.6-1.1-9-2.1-9-8.3
			c0-3.2,1.7-8.7,10.9-8.7c8.7,0,11,5.7,11.1,9.2h-5.7c-0.2-1.3-0.6-4.3-5.8-4.3c-2.3,0-4.9,0.8-4.9,3.4c0,2.2,1.8,2.7,3,3l6.9,1.7
			c3.9,0.9,7.4,2.5,7.4,7.6c0,8.5-8.7,9.3-11.2,9.3c-10.4,0-12.1-6-12.1-9.5H161.5z"/>
		<path class="st0" d="M201.3,74.1h-5.5V61.3c0-1.5-0.1-4.2-3.6-4.2c-2.5,0-4.4,1.7-4.4,4.9v12.1h-5.5V45.7h5.5v10.1h0.1
			c0.7-1.7,3.1-3.3,6.1-3.3c4.1,0,7.3,2.4,7.3,7V74.1z"/>
		<path class="st0" d="M215,74.6c-5.7,0-10.8-3.5-10.8-11.1s5.1-11.1,10.8-11.1s10.8,3.5,10.8,11.1S220.7,74.6,215,74.6z M215,57.1
			c-4.3,0-5.1,3.7-5.1,6.4c0,2.7,0.8,6.4,5.1,6.4c4.3,0,5.1-3.7,5.1-6.4C220.1,60.9,219.3,57.1,215,57.1z"/>
		<path class="st0" d="M233.9,56.1L233.9,56.1c1.1-1.7,2.7-3.6,6.4-3.6c4.6,0,8.7,3.6,8.7,10.8c0,5.8-2.6,11.3-8.9,11.3
			c-3.9,0-5.3-2.1-5.9-3.2h-0.1v10.9h-5.5V53h5.3V56.1z M238.8,70.1c3.6,0,4.6-3.9,4.6-6.4c0-3.3-1.2-6.4-4.7-6.4
			c-3.8,0-4.7,3.4-4.7,6.8C233.9,67.1,235.2,70.1,238.8,70.1z"/>
		<path class="st0" d="M257.1,56.1L257.1,56.1c1.1-1.7,2.7-3.6,6.4-3.6c4.6,0,8.7,3.6,8.7,10.8c0,5.8-2.6,11.3-8.9,11.3
			c-3.9,0-5.3-2.1-5.9-3.2h-0.1v10.9h-5.5V53h5.3V56.1z M261.9,70.1c3.6,0,4.6-3.9,4.6-6.4c0-3.3-1.2-6.4-4.7-6.4
			c-3.8,0-4.7,3.4-4.7,6.8C257.1,67.1,258.4,70.1,261.9,70.1z"/>
		<path class="st0" d="M293.2,67.9c-1.5,5.1-5.7,6.7-9.3,6.7c-5.9,0-10.5-2.8-10.5-11.5c0-2.5,0.9-10.6,10.1-10.6
			c4.2,0,9.9,2,9.9,11.6v1H279c0.2,1.6,0.5,5.1,4.9,5.1c1.5,0,3.1-0.8,3.6-2.3H293.2z M287.7,61.4c-0.3-3.4-2.5-4.4-4.3-4.4
			c-2.6,0-4,1.7-4.3,4.4H287.7z"/>
		<path class="st0" d="M296.1,53h5.3v3.6h0.1c1.1-2.1,2.4-4.2,5.8-4.2c0.4,0,0.7,0,1.1,0.1v5.6c-0.5-0.1-1.1-0.1-1.6-0.1
			c-4.3,0-5.1,2.7-5.1,5v11h-5.5V53z"/>
	</g>
	<g>
		<linearGradient id="SVGID_1_" gradientUnits="userSpaceOnUse" x1="18.3114" y1="30.4477" x2="110.5547" y2="93.8649">
			<stop  offset="0" style="stop-color:#198FCE"/>
			<stop  offset="1" style="stop-color:#183059"/>
		</linearGradient>
		<circle class="st1" cx="64.4" cy="62.2" r="56.5"/>
		<g>
			<g id="shopping-cart_3_">
				<path class="st0" d="M54.8,77.9c-2.7,0-4.8,2.2-4.8,4.8s2.2,4.8,4.8,4.8c2.7,0,4.8-2.2,4.8-4.8S57.4,77.9,54.8,77.9z M40.3,39.3
					v4.8h4.8l8.7,18.3l-3.4,5.8C50.2,69,50,69.9,50,70.7c0,2.7,2.2,4.8,4.8,4.8h28.9v-4.8h-28c-0.2,0-0.5-0.2-0.5-0.5v-0.2l2.2-4.1
					h17.8c1.9,0,3.4-1,4.1-2.4l8.7-15.7c0.5-0.5,0.5-0.7,0.5-1.2c0-1.4-1-2.4-2.4-2.4H50.5l-2.2-4.8H40.3z M78.9,77.9
					c-2.7,0-4.8,2.2-4.8,4.8s2.2,4.8,4.8,4.8s4.8-2.2,4.8-4.8S81.6,77.9,78.9,77.9z"/>
			</g>
		</g>
		<g>
			<g id="shopping-cart_2_">
				<linearGradient id="SVGID_2_" gradientUnits="userSpaceOnUse" x1="40.1373" y1="36.5696" x2="83.8981" y2="80.3304">
					<stop  offset="0.2564" style="stop-color:#99D9E5"/>
					<stop  offset="0.3904" style="stop-color:#95D4E2"/>
					<stop  offset="0.5293" style="stop-color:#8ACADB"/>
					<stop  offset="0.6704" style="stop-color:#76BBD0"/>
					<stop  offset="0.813" style="stop-color:#59A8C2"/>
					<stop  offset="0.9556" style="stop-color:#2A92B2"/>
					<stop  offset="1" style="stop-color:#058BAD"/>
				</linearGradient>
				<path class="st2" d="M52.9,76.6c-2.7,0-4.8,2.2-4.8,4.8s2.2,4.8,4.8,4.8s4.8-2.2,4.8-4.8S55.6,76.6,52.9,76.6z M38.4,38v4.8h4.8
					L52,61.2L48.6,67c-0.2,0.7-0.5,1.7-0.5,2.4c0,2.7,2.2,4.8,4.8,4.8h28.9v-4.8h-28c-0.2,0-0.5-0.2-0.5-0.5v-0.2l2.2-4.1h17.8
					c1.9,0,3.4-1,4.1-2.4l8.7-15.7c0.5-0.5,0.5-0.7,0.5-1.2c0-1.4-1-2.4-2.4-2.4H48.6L46.4,38H38.4z M77,76.6
					c-2.7,0-4.8,2.2-4.8,4.8s2.2,4.8,4.8,4.8c2.7,0,4.8-2.2,4.8-4.8S79.7,76.6,77,76.6z"/>
			</g>
		</g>
	</g>
</g>
</svg>
