<?xml version="1.0" encoding="utf-8"?>
<!-- Generator: Adobe Illustrator 19.2.1, SVG Export Plug-In . SVG Version: 6.00 Build 0)  -->
<svg version="1.1" id="Layer_1" xmlns="http://www.w3.org/2000/svg" xmlns:xlink="http://www.w3.org/1999/xlink" x="0px" y="0px"
	 viewBox="0 0 260 350" style="enable-background:new 0 0 260 350;" xml:space="preserve">
<style type="text/css">
	.st0{fill:#002E5A;}
	.st1{fill:url(#SVGID_1_);}
	.st2{fill:url(#SVGID_2_);}
	.st3{opacity:0.5;fill:url(#SVGID_3_);}
	.st4{opacity:0.5;fill:url(#SVGID_4_);}
	.st5{opacity:0.5;fill:url(#SVGID_5_);}
	.st6{opacity:0.5;fill:url(#SVGID_6_);}
	.st7{opacity:0.5;fill:url(#SVGID_7_);}
	.st8{opacity:0.5;fill:url(#SVGID_8_);}
	.st9{fill:url(#SVGID_9_);}
	.st10{fill:url(#SVGID_10_);}
	.st11{clip-path:url(#SVGID_12_);}
	.st12{fill:url(#SVGID_13_);}
	.st13{fill:url(#SVGID_14_);}
	.st14{fill:url(#SVGID_15_);}
	.st15{fill:url(#SVGID_16_);}
	.st16{fill:url(#SVGID_17_);}
	.st17{fill:url(#SVGID_18_);}
	.st18{fill:url(#SVGID_19_);}
	.st19{fill:url(#SVGID_20_);}
	.st20{fill:url(#SVGID_21_);}
	.st21{fill:url(#SVGID_22_);}
	.st22{fill:url(#SVGID_23_);}
	.st23{fill:url(#SVGID_24_);}
	.st24{fill:url(#SVGID_25_);}
	.st25{fill:url(#SVGID_26_);}
	.st26{fill:url(#SVGID_27_);}
	.st27{fill:url(#SVGID_28_);}
	.st28{fill:url(#SVGID_29_);}
	.st29{fill:url(#SVGID_30_);}
	.st30{fill:url(#SVGID_31_);}
	.st31{fill:url(#SVGID_32_);}
	.st32{fill:url(#SVGID_33_);}
	.st33{fill:url(#SVGID_34_);}
	.st34{fill:url(#SVGID_35_);}
	.st35{fill:url(#SVGID_36_);}
	.st36{fill:url(#SVGID_37_);}
	.st37{fill:url(#SVGID_38_);}
	.st38{fill:url(#SVGID_39_);}
	.st39{fill:url(#SVGID_40_);}
	.st40{fill:url(#SVGID_41_);}
	.st41{fill:url(#SVGID_42_);}
	.st42{fill:url(#SVGID_43_);}
	.st43{fill:url(#SVGID_44_);}
	.st44{fill:url(#SVGID_45_);}
	.st45{fill:url(#SVGID_46_);}
	.st46{fill:url(#SVGID_47_);}
	.st47{fill:url(#SVGID_48_);}
	.st48{fill:url(#SVGID_49_);}
	.st49{fill:url(#SVGID_50_);}
	.st50{fill:url(#SVGID_51_);}
	.st51{fill:url(#SVGID_52_);}
	.st52{opacity:0.5;fill:url(#SVGID_53_);}
	.st53{opacity:0.5;fill:url(#SVGID_54_);}
	.st54{opacity:0.5;fill:url(#SVGID_55_);}
	.st55{opacity:0.5;fill:url(#SVGID_56_);}
	.st56{opacity:0.5;fill:url(#SVGID_57_);}
	.st57{opacity:0.5;fill:url(#SVGID_58_);}
</style>
<g>
	<g>
		<linearGradient id="SVGID_1_" gradientUnits="userSpaceOnUse" x1="39.4708" y1="53.5247" x2="221.1463" y2="178.4266">
			<stop  offset="0" style="stop-color:#008FD5"/>
			<stop  offset="0.95" style="stop-color:#002E5A"/>
			<stop  offset="1" style="stop-color:#002E5A"/>
		</linearGradient>
		<circle class="st1" cx="130.3" cy="116" r="111.3"/>
		<g>
			<path class="st0" d="M164.9,95.2c-17.6,0-31.9,14.3-31.9,31.9c0,17.6,14.3,31.9,31.9,31.9s31.9-14.3,31.9-31.9
				C196.8,109.5,182.5,95.2,164.9,95.2z"/>
		</g>
		<g>
			<linearGradient id="SVGID_2_" gradientUnits="userSpaceOnUse" x1="142.8281" y1="100.8156" x2="185.3014" y2="143.2889">
				<stop  offset="0" style="stop-color:#80FFFF"/>
				<stop  offset="0.1717" style="stop-color:#7CFBFC"/>
				<stop  offset="0.3497" style="stop-color:#6FF0F4"/>
				<stop  offset="0.5305" style="stop-color:#5BDDE7"/>
				<stop  offset="0.7134" style="stop-color:#3EC2D4"/>
				<stop  offset="0.896" style="stop-color:#19A0BC"/>
				<stop  offset="1" style="stop-color:#008AAC"/>
			</linearGradient>
			<path class="st2" d="M157.6,117.5c0,1.9,1.4,2.8,2.4,3.2v-5.9C159,115.2,157.6,116.4,157.6,117.5z"/>
			<linearGradient id="SVGID_3_" gradientUnits="userSpaceOnUse" x1="140.1369" y1="102.4087" x2="184.5215" y2="146.7933">
				<stop  offset="0" style="stop-color:#80FFFF"/>
				<stop  offset="0.1717" style="stop-color:#7CFBFC"/>
				<stop  offset="0.3497" style="stop-color:#6FF0F4"/>
				<stop  offset="0.5305" style="stop-color:#5BDDE7"/>
				<stop  offset="0.7134" style="stop-color:#3EC2D4"/>
				<stop  offset="0.896" style="stop-color:#19A0BC"/>
				<stop  offset="1" style="stop-color:#008AAC"/>
			</linearGradient>
			<path style="fill:url(#SVGID_3_);" d="M162.4,92.7c-17.6,0-31.9,14.3-31.9,31.9c0,17.6,14.3,31.9,31.9,31.9s31.9-14.3,31.9-31.9
				C194.3,107,180,92.7,162.4,92.7z M167,137.3v1.8c0,1-2.5,1.9-3.5,1.9s-3.5-0.8-3.5-1.9v-1.8c-6-0.7-7.6-3.3-7.6-9.3h5.3
				c0.2,4,0.3,4.6,2.3,5.3v-7.7c-2-1-7.5-2.5-7.5-7.2c0-3.8,4.5-7.1,7.5-7.6v-0.6c0-1,2.5-1.9,3.5-1.9s3.5,0.8,3.5,1.9v0.6
				c1,0.4,4.4,1.2,4.9,7.2h-5.2c-0.2-1,0.3-3.1,0.3-3.3v7.1c2,1,3.5,1.8,4.4,2.6c2.2,1.9,2.9,4.2,2.9,5.1
				C174.3,132.7,170,136.6,167,137.3z"/>
			<linearGradient id="SVGID_4_" gradientUnits="userSpaceOnUse" x1="142.5982" y1="105.4985" x2="184.3705" y2="147.2709">
				<stop  offset="0" style="stop-color:#80FFFF"/>
				<stop  offset="0.1717" style="stop-color:#7CFBFC"/>
				<stop  offset="0.3497" style="stop-color:#6FF0F4"/>
				<stop  offset="0.5305" style="stop-color:#5BDDE7"/>
				<stop  offset="0.7134" style="stop-color:#3EC2D4"/>
				<stop  offset="0.896" style="stop-color:#19A0BC"/>
				<stop  offset="1" style="stop-color:#008AAC"/>
			</linearGradient>
			<path style="fill:url(#SVGID_4_);" d="M167,126.7v6.6c0-0.3,2.6-1.2,2.6-3.4C169.6,128.2,167,127.2,167,126.7z"/>
		</g>
		<g>
			<path class="st0" d="M107.6,76.4c-22.8,0-41.3,18.5-41.3,41.3s18.5,41.3,41.3,41.3c22.8,0,41.3-18.5,41.3-41.3
				S130.5,76.4,107.6,76.4z"/>
		</g>
		<g>
			<linearGradient id="SVGID_5_" gradientUnits="userSpaceOnUse" x1="80.1201" y1="83.912" x2="135.2381" y2="139.03">
				<stop  offset="0" style="stop-color:#80FFFF"/>
				<stop  offset="0.1717" style="stop-color:#7CFBFC"/>
				<stop  offset="0.3497" style="stop-color:#6FF0F4"/>
				<stop  offset="0.5305" style="stop-color:#5BDDE7"/>
				<stop  offset="0.7134" style="stop-color:#3EC2D4"/>
				<stop  offset="0.896" style="stop-color:#19A0BC"/>
				<stop  offset="1" style="stop-color:#008AAC"/>
			</linearGradient>
			<path style="fill:url(#SVGID_5_);" d="M99.8,106c0,2.5,1.2,3.6,3.2,4.2v-7.7C101,103,99.8,104.6,99.8,106z"/>
			<linearGradient id="SVGID_6_" gradientUnits="userSpaceOnUse" x1="76.6352" y1="86.7337" x2="132.3063" y2="142.4048">
				<stop  offset="0" style="stop-color:#80FFFF"/>
				<stop  offset="0.1717" style="stop-color:#7CFBFC"/>
				<stop  offset="0.3497" style="stop-color:#6FF0F4"/>
				<stop  offset="0.5305" style="stop-color:#5BDDE7"/>
				<stop  offset="0.7134" style="stop-color:#3EC2D4"/>
				<stop  offset="0.896" style="stop-color:#19A0BC"/>
				<stop  offset="1" style="stop-color:#008AAC"/>
			</linearGradient>
			<path style="fill:url(#SVGID_6_);" d="M105.2,74c-22.8,0-41.3,18.5-41.3,41.3s18.5,41.3,41.3,41.3c22.8,0,41.3-18.5,41.3-41.3
				S128,74,105.2,74z M108,131.6v2.3c0,1.3-1.2,2.4-2.5,2.4s-2.5-1.1-2.5-2.4v-2.3c-8-0.8-10.7-4.6-10.7-10.6h6.8
				c0.3,2,1.9,4.6,3.9,5.4v-10c-6-1.2-9.7-3.3-9.7-9.3c0-4.9,1.7-9.2,9.7-9.8v-0.7c0-1.3,1.2-2.4,2.5-2.4s2.5,1.1,2.5,2.4v0.8
				c2,0.5,8.8-0.4,9.4,9.6h-6.7c-0.2-2-1.7-4.3-2.7-4.6v9.1c2,1.3,6.1,2.3,7.3,3.4c2.8,2.4,3,5.5,3,6.6
				C118.3,125.7,116,130.8,108,131.6z"/>
			<linearGradient id="SVGID_7_" gradientUnits="userSpaceOnUse" x1="75.6417" y1="89.5539" x2="129.9844" y2="143.8966">
				<stop  offset="0" style="stop-color:#80FFFF"/>
				<stop  offset="0.1717" style="stop-color:#7CFBFC"/>
				<stop  offset="0.3497" style="stop-color:#6FF0F4"/>
				<stop  offset="0.5305" style="stop-color:#5BDDE7"/>
				<stop  offset="0.7134" style="stop-color:#3EC2D4"/>
				<stop  offset="0.896" style="stop-color:#19A0BC"/>
				<stop  offset="1" style="stop-color:#008AAC"/>
			</linearGradient>
			<path style="fill:url(#SVGID_7_);" d="M108,117.9v8.6c1-0.4,3.4-1.6,3.4-4.5C111.4,119.8,109,118.6,108,117.9z"/>
		</g>
	</g>
	<g>
		<g>
			<path class="st0" d="M66.6,325.6h-5.4c-1.2,0-2.2-1-2.2-2.2v-32.2c0-1.2,1-2.2,2.2-2.2h14.5c7.1,0,11.4,4.5,11.4,11.8
				c0,3.3-1.8,11.7-11.7,11.7h-8.8V325.6z M73.7,306c5.7,0,5.7-4.1,5.7-5.7c0-3.6-2-5.1-6.7-5.1h-6.1V306H73.7z"/>
			<path class="st0" d="M92.3,298.4h4.6v4.7H97c1.5-2.8,3.1-5.4,7.5-5.4c0.5,0,0.9,0.1,1.4,0.1v7.3c-0.6-0.1-1.4-0.1-2-0.1
				c-5.6,0-6.6,3.5-6.6,6.5v14.2h-4.9c-1.2,0-2.2-1-2.2-2.2v-22.7C90.1,299.4,91.1,298.4,92.3,298.4z"/>
			<path class="st0" d="M129.5,317.6c0.8,0,1.3,0.8,1,1.6c-2.2,5.3-7.1,7.1-11.4,7.1c-7.7,0-13.5-3.7-13.5-14.9
				c0-3.3,1.1-13.7,13-13.7c5.4,0,12.8,2.6,12.8,15v1.3h-18.7c0.2,2,0.6,6.6,6.4,6.6c1.8,0,3.6-0.8,4.3-2.3c0.2-0.4,0.6-0.6,1-0.6
				H129.5z M124,309.3c-0.4-4.4-3.2-5.7-5.5-5.7c-3.4,0-5.2,2.1-5.6,5.7H124z"/>
			<path class="st0" d="M156.9,315.7c0.7,0,1.2,0.7,1.1,1.4c-0.8,3.4-3.6,9.3-12.2,9.3c-10.2,0-12.6-7.8-12.6-13.5
				c0-8.8,3.8-15.1,13-15.1c4.1,0,10.6,1.7,11.9,9.1c0.1,0.7-0.4,1.3-1.1,1.3h-5.1c-0.5,0-0.9-0.3-1.1-0.8c-0.5-1.6-1.6-3.6-4.2-3.6
				h-0.4c-4.5,0-5.7,4.5-5.7,7.9c0,3,0.1,8.8,5.5,8.8c3,0,4.4-2.4,4.7-3.9c0.1-0.5,0.6-0.8,1.1-0.8H156.9z"/>
			<path class="st0" d="M169.3,295.2h-4.9c-1.2,0-2.2-1-2.2-2.2v-2.2c0-1.2,1-2.2,2.2-2.2h4.9V295.2z M169.3,298.4v27.2h-4.9
				c-1.2,0-2.2-1-2.2-2.2v-22.7c0-1.2,1-2.2,2.2-2.2H169.3z"/>
			<path class="st0" d="M187.2,326.3c-7.3,0-13.9-4.5-13.9-14.3s6.6-14.3,13.9-14.3c7.3,0,13.9,4.5,13.9,14.3
				S194.5,326.3,187.2,326.3z M187.2,303.7c-5.5,0-6.5,4.8-6.5,8.3s1,8.3,6.5,8.3c5.5,0,6.5-4.8,6.5-8.3S192.7,303.7,187.2,303.7z"
				/>
		</g>
	</g>
</g>
</svg>
