<?xml version="1.0" encoding="utf-8"?>
<!-- Generator: Adobe Illustrator 19.2.1, SVG Export Plug-In . SVG Version: 6.00 Build 0)  -->
<svg version="1.1" id="Layer_1" xmlns="http://www.w3.org/2000/svg" xmlns:xlink="http://www.w3.org/1999/xlink" x="0px" y="0px"
	 viewBox="0 0 260 350" style="enable-background:new 0 0 260 350;" xml:space="preserve">
<style type="text/css">
	.st0{fill:#002E5A;}
	.st1{fill:url(#SVGID_1_);}
	.st2{fill:url(#SVGID_2_);}
	.st3{opacity:0.5;fill:url(#SVGID_3_);}
	.st4{opacity:0.5;fill:url(#SVGID_4_);}
	.st5{opacity:0.5;fill:url(#SVGID_5_);}
	.st6{opacity:0.5;fill:url(#SVGID_6_);}
	.st7{opacity:0.5;fill:url(#SVGID_7_);}
	.st8{opacity:0.5;fill:url(#SVGID_8_);}
	.st9{fill:url(#SVGID_9_);}
	.st10{fill:url(#SVGID_10_);}
	.st11{clip-path:url(#SVGID_12_);}
	.st12{fill:url(#SVGID_13_);}
	.st13{fill:url(#SVGID_14_);}
	.st14{fill:url(#SVGID_15_);}
	.st15{fill:url(#SVGID_16_);}
	.st16{fill:url(#SVGID_17_);}
	.st17{fill:url(#SVGID_18_);}
	.st18{fill:url(#SVGID_19_);}
	.st19{fill:url(#SVGID_20_);}
	.st20{fill:url(#SVGID_21_);}
	.st21{fill:url(#SVGID_22_);}
	.st22{fill:url(#SVGID_23_);}
	.st23{fill:url(#SVGID_24_);}
	.st24{fill:url(#SVGID_25_);}
	.st25{fill:url(#SVGID_26_);}
	.st26{fill:url(#SVGID_27_);}
	.st27{fill:url(#SVGID_28_);}
	.st28{fill:url(#SVGID_29_);}
	.st29{fill:url(#SVGID_30_);}
	.st30{fill:url(#SVGID_31_);}
	.st31{fill:url(#SVGID_32_);}
	.st32{fill:url(#SVGID_33_);}
	.st33{fill:url(#SVGID_34_);}
	.st34{fill:url(#SVGID_35_);}
	.st35{fill:url(#SVGID_36_);}
	.st36{fill:url(#SVGID_37_);}
	.st37{fill:url(#SVGID_38_);}
	.st38{fill:url(#SVGID_39_);}
	.st39{fill:url(#SVGID_40_);}
	.st40{fill:url(#SVGID_41_);}
	.st41{fill:url(#SVGID_42_);}
	.st42{fill:url(#SVGID_43_);}
	.st43{fill:url(#SVGID_44_);}
	.st44{fill:url(#SVGID_45_);}
	.st45{fill:url(#SVGID_46_);}
	.st46{fill:url(#SVGID_47_);}
	.st47{fill:url(#SVGID_48_);}
	.st48{fill:url(#SVGID_49_);}
	.st49{fill:url(#SVGID_50_);}
	.st50{fill:url(#SVGID_51_);}
	.st51{fill:url(#SVGID_52_);}
	.st52{opacity:0.5;fill:url(#SVGID_53_);}
	.st53{opacity:0.5;fill:url(#SVGID_54_);}
	.st54{opacity:0.5;fill:url(#SVGID_55_);}
	.st55{opacity:0.5;fill:url(#SVGID_56_);}
	.st56{opacity:0.5;fill:url(#SVGID_57_);}
	.st57{opacity:0.5;fill:url(#SVGID_58_);}
</style>
<g>
	<g>
		<linearGradient id="SVGID_1_" gradientUnits="userSpaceOnUse" x1="39.1524" y1="64.0825" x2="220.8279" y2="188.9843">
			<stop  offset="0" style="stop-color:#008FD5"/>
			<stop  offset="0.95" style="stop-color:#002E5A"/>
			<stop  offset="1" style="stop-color:#002E5A"/>
		</linearGradient>
		<circle class="st1" cx="130" cy="126.5" r="111.3"/>
		<g>
			<g>
				<path class="st0" d="M181.4,96H164V80.4c0-3.7-3.4-7.4-7.1-7.4h-51.4c-3.7,0-8.5,3.7-8.5,7.4V96H81.1c-5.5,0-10.1,5.8-10.1,11.3
					v64.5c0,5.5,4.6,11.2,10.1,11.2h100.3c5.5,0,8.6-5.6,8.6-11.2v-64.5C190,101.8,186.9,96,181.4,96z M108,84h46v12h-46V84z"/>
			</g>
		</g>
		<g>
			<g>
				<linearGradient id="SVGID_2_" gradientUnits="userSpaceOnUse" x1="87.403" y1="95.9667" x2="172.6676" y2="181.2313">
					<stop  offset="0" style="stop-color:#80FFFF"/>
					<stop  offset="0.1717" style="stop-color:#7CFBFC"/>
					<stop  offset="0.3497" style="stop-color:#6FF0F4"/>
					<stop  offset="0.5305" style="stop-color:#5BDDE7"/>
					<stop  offset="0.7134" style="stop-color:#3EC2D4"/>
					<stop  offset="0.896" style="stop-color:#19A0BC"/>
					<stop  offset="1" style="stop-color:#008AAC"/>
				</linearGradient>
				<path class="st2" d="M178.9,95H159V77.9c0-3.7-0.8-5.9-4.5-5.9h-51.4c-3.7,0-8.1,2.2-8.1,5.9V95H78.6c-5.5,0-11.6,4.3-11.6,9.8
					v64.5c0,5.5,6.1,8.6,11.6,8.6h100.3c5.5,0,10.1-3.1,10.1-8.6v-64.5C189,99.3,184.4,95,178.9,95z M106,81h45v14h-45V81z"/>
			</g>
		</g>
	</g>
	<g>
		<path class="st0" d="M28,325.7h-5.4c-1.2,0-2.2-1-2.2-2.2v-32.2c0-1.2,1-2.2,2.2-2.2h14.5c7.1,0,11.4,4.5,11.4,11.8
			c0,3.3-1.8,11.7-11.7,11.7H28V325.7z M35.1,306.1c5.7,0,5.7-4.1,5.7-5.7c0-3.6-2-5.1-6.7-5.1H28v10.8H35.1z"/>
		<path class="st0" d="M62.8,326.4c-7.3,0-13.9-4.5-13.9-14.3s6.6-14.3,13.9-14.3c7.3,0,13.9,4.5,13.9,14.3S70.1,326.4,62.8,326.4z
			 M62.8,303.8c-5.5,0-6.5,4.8-6.5,8.3c0,3.5,1,8.3,6.5,8.3c5.5,0,6.5-4.8,6.5-8.3C69.4,308.6,68.4,303.8,62.8,303.8z"/>
		<path class="st0" d="M82.6,298.5h4.6v4.7h0.1c1.5-2.8,3.1-5.4,7.5-5.4c0.5,0,0.9,0.1,1.4,0.1v7.3c-0.6-0.1-1.4-0.1-2-0.1
			c-5.6,0-6.6,3.5-6.6,6.5v14.2h-4.9c-1.2,0-2.2-1-2.2-2.2v-22.7C80.4,299.5,81.4,298.5,82.6,298.5z"/>
		<path class="st0" d="M108.1,298.5h4.4v5.1h-4.4v14.8c0,1.6,0.1,2.2,3,2.2c0.5,0,1-0.1,1.5-0.1v3.3c0,1.2-1,2.2-2.2,2.2
			c-0.4,0-0.8,0-1.2,0h-0.9c-6.2,0-7.3-2.4-7.3-5.9v-16.5h-3.7v-5.1h3.7v-5.1c0-1.2,1-2.2,2.2-2.2h4.9V298.5z"/>
		<path class="st0" d="M137.8,320.4c0,3.2,0.7,3.9,1.6,4.2v1.1h-7.7c-0.4-1.3-0.5-1.7-0.7-3.2c-1.6,1.7-3.9,3.9-8.8,3.9
			c-4.1,0-8.3-2.3-8.3-7.9c0-5.3,3.4-8,7.9-8.7l6.4-1c1.1-0.2,2.5-0.6,2.5-2.1c0-3-2.9-3.2-4.7-3.2c-2.5,0-3.6,1.1-4.1,2.3
			c-0.3,0.9-1.2,1.5-2.1,1.5h-2.5c-1.5,0-2.6-1.4-2.1-2.9c1.7-5.7,6.8-6.6,11.6-6.6c3.8,0,10.8,1.2,10.8,7.9V320.4z M130.8,312.4
			c-0.7,0.6-1.9,1-4.9,1.5c-2.7,0.5-4.9,1.1-4.9,4.1c0,2.5,1.9,3.3,3.3,3.3c3.2,0,6.4-2,6.4-5.4V312.4z"/>
		<path class="st0" d="M151.2,325.7h-4.9c-1.2,0-2.2-1-2.2-2.2v-19.8h-3.9v-5.1h3.9v-2.2c0-5.6,3.1-7.8,8-7.8c0.6,0,1.1,0,1.5,0
			c1.2,0,2.2,1,2.2,2.2l0,3.6h-2c-2.5,0-2.5,0.8-2.5,3v1.1h4.6v5.1h-4.6V325.7z"/>
		<path class="st0" d="M170,326.4c-7.3,0-13.9-4.5-13.9-14.3s6.6-14.3,13.9-14.3c7.3,0,13.9,4.5,13.9,14.3S177.3,326.4,170,326.4z
			 M170,303.8c-5.5,0-6.5,4.8-6.5,8.3c0,3.5,1,8.3,6.5,8.3c5.5,0,6.5-4.8,6.5-8.3C176.5,308.6,175.5,303.8,170,303.8z"/>
		<path class="st0" d="M195,325.7H190c-1.2,0-2.2-1-2.2-2.2v-32.2c0-1.2,1-2.2,2.2-2.2h4.9V325.7z"/>
		<path class="st0" d="M207.9,295.3H203c-1.2,0-2.2-1-2.2-2.2v-2.2c0-1.2,1-2.2,2.2-2.2h4.9V295.3z M207.9,298.5v27.2H203
			c-1.2,0-2.2-1-2.2-2.2v-22.7c0-1.2,1-2.2,2.2-2.2H207.9z"/>
		<path class="st0" d="M225.8,326.4c-7.3,0-13.9-4.5-13.9-14.3s6.6-14.3,13.9-14.3c7.3,0,13.9,4.5,13.9,14.3
			S233.1,326.4,225.8,326.4z M225.8,303.8c-5.5,0-6.5,4.8-6.5,8.3c0,3.5,1,8.3,6.5,8.3c5.5,0,6.5-4.8,6.5-8.3
			C232.3,308.6,231.3,303.8,225.8,303.8z"/>
	</g>
</g>
</svg>
