<?xml version="1.0" encoding="utf-8"?>
<!-- Generator: Adobe Illustrator 19.2.1, SVG Export Plug-In . SVG Version: 6.00 Build 0)  -->
<svg version="1.1" id="Layer_1" xmlns="http://www.w3.org/2000/svg" xmlns:xlink="http://www.w3.org/1999/xlink" x="0px" y="0px"
	 viewBox="0 0 411 127.6" style="enable-background:new 0 0 411 127.6;" xml:space="preserve">
<style type="text/css">
	.st0{fill:#183059;}
	.st1{fill:url(#SVGID_1_);}
	.st2{fill:url(#SVGID_2_);}
	.st3{fill:url(#SVGID_3_);}
	.st4{fill:url(#SVGID_4_);}
	.st5{fill:url(#SVGID_5_);}
	.st6{fill:url(#SVGID_6_);}
	.st7{fill:url(#SVGID_7_);}
	.st8{fill:url(#SVGID_8_);}
	.st9{fill:url(#SVGID_9_);}
	.st10{fill:url(#SVGID_10_);}
	.st11{fill:url(#SVGID_11_);}
	.st12{fill:url(#SVGID_12_);}
	.st13{fill:url(#SVGID_13_);}
	.st14{fill:url(#SVGID_14_);}
	.st15{fill:url(#SVGID_15_);}
	.st16{fill:url(#SVGID_16_);}
	.st17{fill:url(#SVGID_17_);}
	.st18{fill:url(#SVGID_18_);}
	.st19{fill:url(#SVGID_19_);}
	.st20{fill:url(#SVGID_20_);}
	.st21{fill:url(#SVGID_21_);}
	.st22{fill:url(#SVGID_22_);}
	.st23{fill:url(#SVGID_23_);}
	.st24{fill:url(#SVGID_24_);}
	.st25{fill:url(#SVGID_25_);}
	.st26{clip-path:url(#SVGID_27_);}
	.st27{fill:url(#SVGID_28_);}
	.st28{fill:url(#SVGID_29_);}
	.st29{fill:url(#SVGID_30_);}
	.st30{fill:url(#SVGID_31_);}
	.st31{fill:url(#SVGID_32_);}
</style>
<g>
	<g>
		<g>
			<path class="st0" d="M158,45.2h14.1v5.1h-20.1V21.9h5.9V45.2z"/>
			<path class="st0" d="M180.5,26.8H175v-5.1h5.5V26.8z M180.5,29.3v21.1H175V29.3H180.5z"/>
			<path class="st0" d="M196.8,35.7c-0.2-1.3-0.7-2.8-3.7-2.8s-3.4,1.1-3.4,2.1c0,3.3,13.2,0.9,13.2,8.7c0,6.1-5.9,7.2-9.2,7.2
				c-4.8,0-10-1.7-10.1-7.3h5.7c0,1.8,1.1,3.1,4.6,3.1c2.9,0,3.5-1.4,3.5-2.2c0-3.5-13.1-0.9-13.1-8.8c0-3.1,1.9-7.1,8.5-7.1
				c4.1,0,9,1,9.5,7H196.8z"/>
			<path class="st0" d="M212.2,29.3h3.4v4h-3.4v11.4c0,1.2,0,1.7,2.3,1.7c0.4,0,0.8,0,1.1-0.1v4.2c-0.9,0-1.7,0.1-2.6,0.1h-0.7
				c-4.8,0-5.7-1.8-5.7-4.6V33.3h-2.9v-4h2.9v-5.7h5.5V29.3z"/>
			<path class="st0" d="M235.2,46.3c0,2.5,0.6,3.1,1.2,3.3v0.8h-6c-0.3-1-0.4-1.3-0.5-2.5c-1.3,1.3-3,3.1-6.8,3.1
				c-3.2,0-6.4-1.8-6.4-6.1c0-4.1,2.6-6.2,6.1-6.7l5-0.8c0.9-0.1,1.9-0.5,1.9-1.7c0-2.3-2.2-2.5-3.6-2.5c-2.8,0-3.2,1.7-3.4,2.9
				h-5.3c0.6-6.5,5.1-7.4,9.4-7.4c3,0,8.4,0.9,8.4,6.1V46.3z M229.8,40.1c-0.6,0.4-1.5,0.8-3.8,1.1c-2.1,0.4-3.8,0.9-3.8,3.2
				c0,1.9,1.5,2.5,2.6,2.5c2.5,0,5-1.6,5-4.2V40.1z"/>
			<path class="st0" d="M268.5,50.4H263v-2.7H263c-1.3,2.4-3.8,3.2-6.1,3.2c-6.3,0-8.9-5.5-8.9-11.3c0-7.3,4.1-10.9,8.8-10.9
				c3.6,0,5.2,1.9,6.1,3.3h0.1V21.9h5.5V50.4z M258.3,46.4c3.5,0,4.9-2.9,4.9-6.1c0-3.4-1-6.8-4.8-6.8c-3.5,0-4.7,3.1-4.7,6.5
				C253.7,42.5,254.7,46.4,258.3,46.4z"/>
			<path class="st0" d="M290.5,44.2c-1.5,5.1-5.7,6.7-9.3,6.7c-5.9,0-10.5-2.9-10.5-11.5c0-2.5,0.9-10.7,10.1-10.7
				c4.2,0,9.9,2,9.9,11.6v1h-14.5c0.2,1.6,0.5,5.1,5,5.1c1.5,0,3.1-0.8,3.6-2.3H290.5z M285.1,37.7c-0.3-3.4-2.5-4.4-4.3-4.4
				c-2.6,0-4,1.7-4.3,4.4H285.1z"/>
		</g>
		<g>
			<path class="st0" d="M158,97.9h-5.9V69.5h13c5.5,0,8.8,3.5,8.8,9.1c0,2.6-1.4,9.1-9.1,9.1H158V97.9z M163.5,82.7
				c4.4,0,4.4-3.2,4.4-4.4c0-2.8-1.5-3.9-5.2-3.9H158v8.4H163.5z"/>
			<path class="st0" d="M176.3,76.8h5.3v3.6h0.1c1.1-2.1,2.4-4.2,5.8-4.2c0.4,0,0.7,0,1.1,0.1V82c-0.5-0.1-1.1-0.1-1.6-0.1
				c-4.3,0-5.1,2.7-5.1,5v11h-5.5V76.8z"/>
			<path class="st0" d="M208.1,91.7c-1.5,5.1-5.7,6.7-9.3,6.7c-5.9,0-10.5-2.9-10.5-11.5c0-2.5,0.9-10.7,10.1-10.7
				c4.2,0,9.9,2,9.9,11.6v1h-14.5c0.2,1.6,0.5,5.1,5,5.1c1.5,0,3.1-0.8,3.6-2.3H208.1z M202.6,85.3c-0.3-3.4-2.5-4.4-4.3-4.4
				c-2.6,0-4,1.7-4.3,4.4H202.6z"/>
			<path class="st0" d="M229.2,90.2c-0.2,2.2-1.9,8.2-9.6,8.2c-7.9,0-9.7-6.1-9.7-10.5c0-6.8,3-11.7,10.1-11.7
				c3.3,0,8.8,1.5,9.3,8.1h-5.6c-0.2-1.3-1-3.4-3.4-3.4h-0.3c-3.5,0-4.4,3.5-4.4,6.1c0,2.3,0.1,6.9,4.3,6.9c2.8,0,3.8-2.7,3.8-3.7
				H229.2z"/>
			<path class="st0" d="M237.8,74.3h-5.5v-5.1h5.5V74.3z M237.8,76.8v21.1h-5.5V76.8H237.8z"/>
			<path class="st0" d="M251.6,98.5c-5.7,0-10.8-3.5-10.8-11.1s5.1-11.1,10.8-11.1c5.7,0,10.8,3.5,10.8,11.1S257.3,98.5,251.6,98.5z
				 M251.6,81c-4.3,0-5.1,3.7-5.1,6.4c0,2.7,0.8,6.4,5.1,6.4s5.1-3.7,5.1-6.4C256.7,84.7,255.9,81,251.6,81z"/>
			<path class="st0" d="M277.2,83.2c-0.2-1.3-0.7-2.8-3.7-2.8s-3.4,1.1-3.4,2.1c0,3.3,13.2,0.9,13.2,8.7c0,6.1-5.9,7.2-9.2,7.2
				c-4.8,0-10-1.7-10.1-7.3h5.7c0,1.8,1.1,3.1,4.6,3.1c2.9,0,3.5-1.4,3.5-2.2c0-3.5-13.1-0.9-13.1-8.8c0-3.1,1.9-7.1,8.5-7.1
				c4.1,0,9,1,9.5,7H277.2z"/>
		</g>
	</g>
	<g>
		<linearGradient id="SVGID_1_" gradientUnits="userSpaceOnUse" x1="18.3217" y1="30.4722" x2="110.6564" y2="93.9523">
			<stop  offset="0" style="stop-color:#198FCE"/>
			<stop  offset="1" style="stop-color:#183059"/>
		</linearGradient>
		<circle class="st1" cx="64.5" cy="62.2" r="56.6"/>
		<g>
			<path class="st0" d="M82,51.6c-9,0-16.2,7.3-16.2,16.2c0,9,7.3,16.2,16.2,16.2s16.2-7.3,16.2-16.2C98.3,58.9,91,51.6,82,51.6z"/>
		</g>
		<g>
			<linearGradient id="SVGID_2_" gradientUnits="userSpaceOnUse" x1="70.7036" y1="54.0976" x2="93.2617" y2="76.6556">
				<stop  offset="0" style="stop-color:#99D9E5"/>
				<stop  offset="0.1802" style="stop-color:#95D4E2"/>
				<stop  offset="0.3669" style="stop-color:#8ACADB"/>
				<stop  offset="0.5567" style="stop-color:#76BBD0"/>
				<stop  offset="0.7486" style="stop-color:#59A8C2"/>
				<stop  offset="0.9403" style="stop-color:#2A92B2"/>
				<stop  offset="1" style="stop-color:#058BAD"/>
			</linearGradient>
			<path class="st2" d="M78.6,63c0,1,0.6,1.4,1.2,1.6v-3C79,61.8,78.6,62.4,78.6,63z"/>
			<linearGradient id="SVGID_3_" gradientUnits="userSpaceOnUse" x1="69.4842" y1="55.317" x2="92.0422" y2="77.875">
				<stop  offset="0" style="stop-color:#99D9E5"/>
				<stop  offset="0.1802" style="stop-color:#95D4E2"/>
				<stop  offset="0.3669" style="stop-color:#8ACADB"/>
				<stop  offset="0.5567" style="stop-color:#76BBD0"/>
				<stop  offset="0.7486" style="stop-color:#59A8C2"/>
				<stop  offset="0.9403" style="stop-color:#2A92B2"/>
				<stop  offset="1" style="stop-color:#058BAD"/>
			</linearGradient>
			<path class="st3" d="M80.8,50.4c-9,0-16.2,7.3-16.2,16.2c0,9,7.3,16.2,16.2,16.2S97,75.6,97,66.6C97,57.7,89.7,50.4,80.8,50.4z
				 M81.8,73V74c0,0.5-0.4,0.9-0.9,0.9c-0.5,0-0.9-0.4-0.9-0.9V73c-3-0.3-4.1-1.6-4.1-4.3h2.7c0.1,1.2,0.3,1.9,1.4,2.2v-3.9
				C78,66.6,76,65.8,76,63.4c0-1.9,1.2-3.6,3.8-3.8v-0.3c0-0.5,0.4-0.9,0.9-0.9c0.5,0,0.9,0.4,0.9,0.9v0.3c1.5,0.2,3.6,0.8,3.8,3.8
				H83c-0.1-1.4-0.6-1.8-1.2-1.9v3.6c1.6,0.5,2.5,0.9,2.9,1.3c1.1,0.9,1.1,2.1,1.1,2.6C85.8,70.7,84.8,72.7,81.8,73z"/>
			<linearGradient id="SVGID_4_" gradientUnits="userSpaceOnUse" x1="68.6947" y1="56.1065" x2="91.2527" y2="78.6645">
				<stop  offset="0" style="stop-color:#99D9E5"/>
				<stop  offset="0.1802" style="stop-color:#95D4E2"/>
				<stop  offset="0.3669" style="stop-color:#8ACADB"/>
				<stop  offset="0.5567" style="stop-color:#76BBD0"/>
				<stop  offset="0.7486" style="stop-color:#59A8C2"/>
				<stop  offset="0.9403" style="stop-color:#2A92B2"/>
				<stop  offset="1" style="stop-color:#058BAD"/>
			</linearGradient>
			<path class="st4" d="M81.8,67.7V71c0.6-0.2,1.3-0.6,1.3-1.7C83.1,68.4,82.4,67.9,81.8,67.7z"/>
		</g>
		<g>
			<path class="st0" d="M53,42.1c-11.6,0-21,9.4-21,21s9.4,21,21,21c11.6,0,21-9.4,21-21S64.6,42.1,53,42.1z"/>
		</g>
		<g>
			<linearGradient id="SVGID_5_" gradientUnits="userSpaceOnUse" x1="38.7878" y1="45.7727" x2="67.0821" y2="74.0669">
				<stop  offset="0" style="stop-color:#99D9E5"/>
				<stop  offset="0.1802" style="stop-color:#95D4E2"/>
				<stop  offset="0.3669" style="stop-color:#8ACADB"/>
				<stop  offset="0.5567" style="stop-color:#76BBD0"/>
				<stop  offset="0.7486" style="stop-color:#59A8C2"/>
				<stop  offset="0.9403" style="stop-color:#2A92B2"/>
				<stop  offset="1" style="stop-color:#058BAD"/>
			</linearGradient>
			<path class="st5" d="M48.9,57.1c0,1.3,0.8,1.8,1.6,2.1v-3.9C49.4,55.6,48.9,56.4,48.9,57.1z"/>
			<linearGradient id="SVGID_6_" gradientUnits="userSpaceOnUse" x1="37.2102" y1="47.3504" x2="65.5044" y2="75.6446">
				<stop  offset="0" style="stop-color:#99D9E5"/>
				<stop  offset="0.1802" style="stop-color:#95D4E2"/>
				<stop  offset="0.3669" style="stop-color:#8ACADB"/>
				<stop  offset="0.5567" style="stop-color:#76BBD0"/>
				<stop  offset="0.7486" style="stop-color:#59A8C2"/>
				<stop  offset="0.9403" style="stop-color:#2A92B2"/>
				<stop  offset="1" style="stop-color:#058BAD"/>
			</linearGradient>
			<path class="st6" d="M51.7,40.9c-11.6,0-21,9.4-21,21s9.4,21,21,21c11.6,0,21-9.4,21-21S63.3,40.9,51.7,40.9z M53,70.2v1.2
				c0,0.7-0.5,1.2-1.2,1.2s-1.2-0.5-1.2-1.2v-1.2c-3.8-0.4-5.3-2.1-5.3-5.5h3.5c0.1,1.5,0.4,2.5,1.9,2.9v-5.1
				c-2.4-0.6-4.9-1.7-4.9-4.7c0-2.5,1.6-4.7,4.9-5v-0.4c0-0.7,0.5-1.2,1.2-1.2s1.2,0.5,1.2,1.2v0.4c2,0.3,4.7,1.1,5,5h-3.4
				c-0.1-1.8-0.8-2.3-1.6-2.4v4.6c2.1,0.6,3.2,1.2,3.8,1.7c1.4,1.2,1.5,2.8,1.5,3.4C58.2,67.1,56.9,69.7,53,70.2z"/>
			<linearGradient id="SVGID_7_" gradientUnits="userSpaceOnUse" x1="36.1886" y1="48.3719" x2="64.4829" y2="76.6661">
				<stop  offset="0" style="stop-color:#99D9E5"/>
				<stop  offset="0.1802" style="stop-color:#95D4E2"/>
				<stop  offset="0.3669" style="stop-color:#8ACADB"/>
				<stop  offset="0.5567" style="stop-color:#76BBD0"/>
				<stop  offset="0.7486" style="stop-color:#59A8C2"/>
				<stop  offset="0.9403" style="stop-color:#2A92B2"/>
				<stop  offset="1" style="stop-color:#058BAD"/>
			</linearGradient>
			<path class="st7" d="M53,63.2v4.4c0.8-0.2,1.7-0.8,1.7-2.3C54.7,64.2,53.9,63.5,53,63.2z"/>
		</g>
	</g>
</g>
</svg>
