<?xml version="1.0" encoding="utf-8"?>
<!-- Generator: Adobe Illustrator 19.2.1, SVG Export Plug-In . SVG Version: 6.00 Build 0)  -->
<svg version="1.1" id="Layer_1" xmlns="http://www.w3.org/2000/svg" xmlns:xlink="http://www.w3.org/1999/xlink" x="0px" y="0px"
	 viewBox="0 0 411 127.6" style="enable-background:new 0 0 411 127.6;" xml:space="preserve">
<style type="text/css">
	.st0{fill:#183059;}
	.st1{fill:url(#SVGID_1_);}
	.st2{fill:url(#SVGID_2_);}
	.st3{fill:url(#SVGID_3_);}
	.st4{fill:url(#SVGID_4_);}
	.st5{fill:url(#SVGID_5_);}
	.st6{fill:url(#SVGID_6_);}
	.st7{fill:url(#SVGID_7_);}
	.st8{fill:url(#SVGID_8_);}
	.st9{fill:url(#SVGID_9_);}
	.st10{fill:url(#SVGID_10_);}
	.st11{fill:url(#SVGID_11_);}
	.st12{fill:url(#SVGID_12_);}
	.st13{fill:url(#SVGID_13_);}
	.st14{fill:url(#SVGID_14_);}
	.st15{fill:url(#SVGID_15_);}
	.st16{fill:url(#SVGID_16_);}
	.st17{fill:url(#SVGID_17_);}
	.st18{fill:url(#SVGID_18_);}
	.st19{fill:url(#SVGID_19_);}
	.st20{fill:url(#SVGID_20_);}
	.st21{fill:url(#SVGID_21_);}
	.st22{fill:url(#SVGID_22_);}
	.st23{fill:url(#SVGID_23_);}
	.st24{fill:url(#SVGID_24_);}
	.st25{fill:url(#SVGID_25_);}
	.st26{clip-path:url(#SVGID_27_);}
	.st27{fill:url(#SVGID_28_);}
	.st28{fill:url(#SVGID_29_);}
	.st29{fill:url(#SVGID_30_);}
	.st30{fill:url(#SVGID_31_);}
	.st31{fill:url(#SVGID_32_);}
</style>
<g>
	<g>
		<path class="st0" d="M165.9,56.5c-0.5-1.7-1.4-4.9-6.2-4.9c-2.8,0-7,1.9-7,9.8c0,5,2,9.6,7,9.6c3.2,0,5.5-1.8,6.2-5.3h5.9
			c-1.2,6.1-5.2,10.4-12.2,10.4c-7.5,0-12.8-5-12.8-14.8c0-9.8,5.7-14.8,12.9-14.8c8.4,0,11.8,5.8,12.1,9.9H165.9z"/>
		<path class="st0" d="M191.7,71.3c0,2.5,0.5,3,1.2,3.2v0.8H187c-0.3-1-0.4-1.3-0.5-2.5c-1.3,1.3-3,3-6.7,3c-3.1,0-6.3-1.8-6.3-6.1
			c0-4.1,2.6-6.1,6.1-6.7l4.9-0.7c0.9-0.1,1.9-0.5,1.9-1.6c0-2.3-2.2-2.4-3.6-2.4c-2.7,0-3.2,1.7-3.4,2.9h-5.3
			c0.6-6.4,5-7.3,9.3-7.3c2.9,0,8.3,0.9,8.3,6V71.3z M186.4,65.3c-0.5,0.4-1.4,0.8-3.7,1.1c-2,0.4-3.7,0.9-3.7,3.1
			c0,1.9,1.5,2.5,2.5,2.5c2.4,0,4.9-1.6,4.9-4.1V65.3z"/>
		<path class="st0" d="M201.8,54.6h3.4v3.9h-3.4v11.3c0,1.2,0,1.7,2.3,1.7c0.4,0,0.7,0,1.1-0.1v4.1c-0.9,0-1.7,0.1-2.6,0.1h-0.7
			c-4.7,0-5.6-1.8-5.6-4.5V58.5h-2.8v-3.9h2.8v-5.6h5.5V54.6z"/>
		<path class="st0" d="M214,70.3h14v5.1h-19.8V47.3h5.9V70.3z"/>
		<path class="st0" d="M248.6,69.3c-1.4,5-5.6,6.7-9.2,6.7c-5.9,0-10.4-2.8-10.4-11.4c0-2.5,0.9-10.5,10-10.5c4.1,0,9.8,2,9.8,11.5
			v1h-14.3c0.2,1.6,0.5,5.1,4.9,5.1c1.5,0,3.1-0.8,3.5-2.3H248.6z M243.2,62.9c-0.3-3.4-2.5-4.4-4.2-4.4c-2.6,0-4,1.6-4.3,4.4H243.2
			z"/>
		<path class="st0" d="M268.4,71.3c0,2.5,0.5,3,1.2,3.2v0.8h-5.9c-0.3-1-0.4-1.3-0.5-2.5c-1.3,1.3-3,3-6.7,3c-3.1,0-6.3-1.8-6.3-6.1
			c0-4.1,2.6-6.1,6.1-6.7l4.9-0.7c0.9-0.1,1.9-0.5,1.9-1.6c0-2.3-2.2-2.4-3.6-2.4c-2.7,0-3.2,1.7-3.4,2.9h-5.3
			c0.6-6.4,5-7.3,9.3-7.3c2.9,0,8.3,0.9,8.3,6V71.3z M263,65.3c-0.5,0.4-1.4,0.8-3.7,1.1c-2,0.4-3.7,0.9-3.7,3.1
			c0,1.9,1.5,2.5,2.5,2.5c2.4,0,4.9-1.6,4.9-4.1V65.3z"/>
		<path class="st0" d="M291.3,75.4H286v-2.6h-0.1c-1.3,2.3-3.8,3.2-6,3.2c-6.2,0-8.8-5.5-8.8-11.2c0-7.2,4.1-10.7,8.6-10.7
			c3.5,0,5.2,1.9,6,3.2h0.1v-10h5.5V75.4z M281.2,71.4c3.5,0,4.9-2.9,4.9-6c0-3.3-0.9-6.7-4.7-6.7c-3.5,0-4.7,3.1-4.7,6.4
			C276.7,67.6,277.7,71.4,281.2,71.4z"/>
	</g>
	<g>
		<linearGradient id="SVGID_1_" gradientUnits="userSpaceOnUse" x1="18.1958" y1="32.2532" x2="109.4139" y2="94.9657">
			<stop  offset="0" style="stop-color:#198FCE"/>
			<stop  offset="1" style="stop-color:#183059"/>
		</linearGradient>
		<circle class="st1" cx="63.8" cy="63.6" r="55.9"/>
		<g>
			<path class="st0" d="M54,54H40.5V42.9c0-1.4,1.1-2.5,2.5-2.5H54V54z"/>
			<rect x="57.6" y="40.4" class="st0" width="13.6" height="13.6"/>
			<path class="st0" d="M88.4,54H74.8V40.4h11.1c1.4,0,2.5,1.1,2.5,2.5V54z"/>
			<rect x="40.5" y="57.4" class="st0" width="13.6" height="13.6"/>
			<rect x="57.6" y="57.4" class="st0" width="13.6" height="13.6"/>
			<rect x="74.8" y="57.4" class="st0" width="13.6" height="13.6"/>
			<path class="st0" d="M54,88.1H42.9c-1.4,0-2.5-1.1-2.5-2.5V74.5H54V88.1z"/>
			<rect x="57.6" y="74.5" class="st0" width="13.6" height="13.6"/>
			<path class="st0" d="M85.9,88.1H74.8V74.5h13.6v11.1C88.4,87,87.3,88.1,85.9,88.1z"/>
		</g>
		<g>
			<linearGradient id="SVGID_2_" gradientUnits="userSpaceOnUse" x1="45.8192" y1="45.7511" x2="79.5052" y2="79.4372">
				<stop  offset="0" style="stop-color:#99D9E5"/>
				<stop  offset="0.1802" style="stop-color:#95D4E2"/>
				<stop  offset="0.3669" style="stop-color:#8ACADB"/>
				<stop  offset="0.5567" style="stop-color:#76BBD0"/>
				<stop  offset="0.7486" style="stop-color:#59A8C2"/>
				<stop  offset="0.9403" style="stop-color:#2A92B2"/>
				<stop  offset="1" style="stop-color:#058BAD"/>
			</linearGradient>
			<path class="st2" d="M52.8,52.7H39.2V41.6c0-1.4,1.1-2.5,2.5-2.5h11.1V52.7z"/>
			<linearGradient id="SVGID_3_" gradientUnits="userSpaceOnUse" x1="54.4129" y1="37.1574" x2="88.0989" y2="70.8434">
				<stop  offset="0" style="stop-color:#99D9E5"/>
				<stop  offset="0.1802" style="stop-color:#95D4E2"/>
				<stop  offset="0.3669" style="stop-color:#8ACADB"/>
				<stop  offset="0.5567" style="stop-color:#76BBD0"/>
				<stop  offset="0.7486" style="stop-color:#59A8C2"/>
				<stop  offset="0.9403" style="stop-color:#2A92B2"/>
				<stop  offset="1" style="stop-color:#058BAD"/>
			</linearGradient>
			<rect x="56.4" y="39.1" class="st3" width="13.6" height="13.6"/>
			<linearGradient id="SVGID_4_" gradientUnits="userSpaceOnUse" x1="62.6428" y1="28.9276" x2="96.3288" y2="62.6136">
				<stop  offset="0" style="stop-color:#99D9E5"/>
				<stop  offset="0.1802" style="stop-color:#95D4E2"/>
				<stop  offset="0.3669" style="stop-color:#8ACADB"/>
				<stop  offset="0.5567" style="stop-color:#76BBD0"/>
				<stop  offset="0.7486" style="stop-color:#59A8C2"/>
				<stop  offset="0.9403" style="stop-color:#2A92B2"/>
				<stop  offset="1" style="stop-color:#058BAD"/>
			</linearGradient>
			<path class="st4" d="M87.2,52.7H73.6V39.1h11.1c1.4,0,2.5,1.1,2.5,2.5V52.7z"/>
			<linearGradient id="SVGID_5_" gradientUnits="userSpaceOnUse" x1="37.2899" y1="54.2804" x2="70.976" y2="87.9664">
				<stop  offset="0" style="stop-color:#99D9E5"/>
				<stop  offset="0.1802" style="stop-color:#95D4E2"/>
				<stop  offset="0.3669" style="stop-color:#8ACADB"/>
				<stop  offset="0.5567" style="stop-color:#76BBD0"/>
				<stop  offset="0.7486" style="stop-color:#59A8C2"/>
				<stop  offset="0.9403" style="stop-color:#2A92B2"/>
				<stop  offset="1" style="stop-color:#058BAD"/>
			</linearGradient>
			<rect x="39.2" y="56.2" class="st5" width="13.6" height="13.6"/>
			<linearGradient id="SVGID_6_" gradientUnits="userSpaceOnUse" x1="45.8837" y1="45.6867" x2="79.5697" y2="79.3727">
				<stop  offset="0" style="stop-color:#99D9E5"/>
				<stop  offset="0.1802" style="stop-color:#95D4E2"/>
				<stop  offset="0.3669" style="stop-color:#8ACADB"/>
				<stop  offset="0.5567" style="stop-color:#76BBD0"/>
				<stop  offset="0.7486" style="stop-color:#59A8C2"/>
				<stop  offset="0.9403" style="stop-color:#2A92B2"/>
				<stop  offset="1" style="stop-color:#058BAD"/>
			</linearGradient>
			<rect x="56.4" y="56.2" class="st6" width="13.6" height="13.6"/>
			<linearGradient id="SVGID_7_" gradientUnits="userSpaceOnUse" x1="54.4774" y1="37.093" x2="88.1634" y2="70.779">
				<stop  offset="0" style="stop-color:#99D9E5"/>
				<stop  offset="0.1802" style="stop-color:#95D4E2"/>
				<stop  offset="0.3669" style="stop-color:#8ACADB"/>
				<stop  offset="0.5567" style="stop-color:#76BBD0"/>
				<stop  offset="0.7486" style="stop-color:#59A8C2"/>
				<stop  offset="0.9403" style="stop-color:#2A92B2"/>
				<stop  offset="1" style="stop-color:#058BAD"/>
			</linearGradient>
			<rect x="73.6" y="56.2" class="st7" width="13.6" height="13.6"/>
			<linearGradient id="SVGID_8_" gradientUnits="userSpaceOnUse" x1="29.1245" y1="62.4458" x2="62.8105" y2="96.1319">
				<stop  offset="0" style="stop-color:#99D9E5"/>
				<stop  offset="0.1802" style="stop-color:#95D4E2"/>
				<stop  offset="0.3669" style="stop-color:#8ACADB"/>
				<stop  offset="0.5567" style="stop-color:#76BBD0"/>
				<stop  offset="0.7486" style="stop-color:#59A8C2"/>
				<stop  offset="0.9403" style="stop-color:#2A92B2"/>
				<stop  offset="1" style="stop-color:#058BAD"/>
			</linearGradient>
			<path class="st8" d="M52.8,86.8H41.7c-1.4,0-2.5-1.1-2.5-2.5V73.3h13.6V86.8z"/>
			<linearGradient id="SVGID_9_" gradientUnits="userSpaceOnUse" x1="37.3544" y1="54.216" x2="71.0404" y2="87.902">
				<stop  offset="0" style="stop-color:#99D9E5"/>
				<stop  offset="0.1802" style="stop-color:#95D4E2"/>
				<stop  offset="0.3669" style="stop-color:#8ACADB"/>
				<stop  offset="0.5567" style="stop-color:#76BBD0"/>
				<stop  offset="0.7486" style="stop-color:#59A8C2"/>
				<stop  offset="0.9403" style="stop-color:#2A92B2"/>
				<stop  offset="1" style="stop-color:#058BAD"/>
			</linearGradient>
			<rect x="56.4" y="73.3" class="st9" width="13.6" height="13.6"/>
			<linearGradient id="SVGID_10_" gradientUnits="userSpaceOnUse" x1="45.9481" y1="45.6223" x2="79.6341" y2="79.3083">
				<stop  offset="0" style="stop-color:#99D9E5"/>
				<stop  offset="0.1802" style="stop-color:#95D4E2"/>
				<stop  offset="0.3669" style="stop-color:#8ACADB"/>
				<stop  offset="0.5567" style="stop-color:#76BBD0"/>
				<stop  offset="0.7486" style="stop-color:#59A8C2"/>
				<stop  offset="0.9403" style="stop-color:#2A92B2"/>
				<stop  offset="1" style="stop-color:#058BAD"/>
			</linearGradient>
			<path class="st10" d="M84.7,86.8H73.6V73.3h13.6v11.1C87.2,85.7,86.1,86.8,84.7,86.8z"/>
		</g>
	</g>
</g>
</svg>
