<?xml version="1.0" encoding="utf-8"?>
<!-- Generator: Adobe Illustrator 19.2.1, SVG Export Plug-In . SVG Version: 6.00 Build 0)  -->
<svg version="1.1" id="Layer_1" xmlns="http://www.w3.org/2000/svg" xmlns:xlink="http://www.w3.org/1999/xlink" x="0px" y="0px"
	 viewBox="0 0 260 350" style="enable-background:new 0 0 260 350;" xml:space="preserve">
<style type="text/css">
	.st0{fill:#002E5A;}
	.st1{fill:url(#SVGID_1_);}
	.st2{fill:url(#SVGID_2_);}
	.st3{opacity:0.5;fill:url(#SVGID_3_);}
	.st4{opacity:0.5;fill:url(#SVGID_4_);}
	.st5{opacity:0.5;fill:url(#SVGID_5_);}
	.st6{opacity:0.5;fill:url(#SVGID_6_);}
	.st7{opacity:0.5;fill:url(#SVGID_7_);}
	.st8{opacity:0.5;fill:url(#SVGID_8_);}
	.st9{fill:url(#SVGID_9_);}
	.st10{fill:url(#SVGID_10_);}
	.st11{clip-path:url(#SVGID_12_);}
	.st12{fill:url(#SVGID_13_);}
	.st13{fill:url(#SVGID_14_);}
	.st14{fill:url(#SVGID_15_);}
	.st15{fill:url(#SVGID_16_);}
	.st16{fill:url(#SVGID_17_);}
	.st17{fill:url(#SVGID_18_);}
	.st18{fill:url(#SVGID_19_);}
	.st19{fill:url(#SVGID_20_);}
	.st20{fill:url(#SVGID_21_);}
	.st21{fill:url(#SVGID_22_);}
	.st22{fill:url(#SVGID_23_);}
	.st23{fill:url(#SVGID_24_);}
	.st24{fill:url(#SVGID_25_);}
	.st25{fill:url(#SVGID_26_);}
	.st26{fill:url(#SVGID_27_);}
	.st27{fill:url(#SVGID_28_);}
	.st28{fill:url(#SVGID_29_);}
	.st29{fill:url(#SVGID_30_);}
	.st30{fill:url(#SVGID_31_);}
	.st31{fill:url(#SVGID_32_);}
	.st32{fill:url(#SVGID_33_);}
	.st33{fill:url(#SVGID_34_);}
	.st34{fill:url(#SVGID_35_);}
	.st35{fill:url(#SVGID_36_);}
	.st36{fill:url(#SVGID_37_);}
	.st37{fill:url(#SVGID_38_);}
	.st38{fill:url(#SVGID_39_);}
	.st39{fill:url(#SVGID_40_);}
	.st40{fill:url(#SVGID_41_);}
	.st41{fill:url(#SVGID_42_);}
	.st42{fill:url(#SVGID_43_);}
	.st43{fill:url(#SVGID_44_);}
	.st44{fill:url(#SVGID_45_);}
	.st45{fill:url(#SVGID_46_);}
	.st46{fill:url(#SVGID_47_);}
	.st47{fill:url(#SVGID_48_);}
	.st48{fill:url(#SVGID_49_);}
	.st49{fill:url(#SVGID_50_);}
	.st50{fill:url(#SVGID_51_);}
	.st51{fill:url(#SVGID_52_);}
	.st52{opacity:0.5;fill:url(#SVGID_53_);}
	.st53{opacity:0.5;fill:url(#SVGID_54_);}
	.st54{opacity:0.5;fill:url(#SVGID_55_);}
	.st55{opacity:0.5;fill:url(#SVGID_56_);}
	.st56{opacity:0.5;fill:url(#SVGID_57_);}
	.st57{opacity:0.5;fill:url(#SVGID_58_);}
</style>
<g>
	<g>
		<g>
			<path class="st0" d="M34.4,325.2h-6c-0.9,0-1.7-0.7-1.7-1.7v-33.3c0-0.9,0.7-1.7,1.7-1.7h6V325.2z"/>
			<path class="st0" d="M64.3,325.2h-5.5c-0.9,0-1.7-0.7-1.7-1.7v-14.8c0-2-0.1-5.4-4.7-5.4c-3.2,0-5.6,2.1-5.6,6.3v15.6h-5.5
				c-0.9,0-1.7-0.7-1.7-1.7v-23.8c0-0.9,0.7-1.7,1.7-1.7h5.2v4h0.1c1-1.6,3-4.7,8.2-4.7c5.3,0,9.5,3.1,9.5,9.1V325.2z"/>
			<path class="st0" d="M82.2,325.2h-6.3c-0.7,0-1.3-0.4-1.6-1.1l-8.6-23.8c-0.4-1.1,0.4-2.2,1.6-2.2h5.6l5.6,20h0.1l5.4-18.8
				c0.2-0.7,0.9-1.2,1.6-1.2H92L82.2,325.2z"/>
			<path class="st0" d="M115.5,317.2c0.8,0,1.3,0.8,1,1.6c-2.2,5.3-7.1,7.1-11.4,7.1c-7.7,0-13.5-3.7-13.5-14.9
				c0-3.3,1.1-13.7,13-13.7c5.4,0,12.8,2.6,12.8,15v1.3H98.7c0.2,2,0.6,6.6,6.4,6.6c1.8,0,3.6-0.8,4.3-2.3c0.2-0.4,0.6-0.6,1-0.6
				H115.5z M110,308.9c-0.4-4.4-3.2-5.7-5.5-5.7c-3.4,0-5.2,2.1-5.6,5.7H110z"/>
			<path class="st0" d="M122.5,298h5.2v4.7h0.1c1.5-2.8,3.1-5.4,7.5-5.4c0.5,0,0.9,0.1,1.4,0.1v7.3c-0.6-0.1-1.4-0.1-2-0.1
				c-5.6,0-6.6,3.5-6.6,6.5v14.2h-5.5c-0.9,0-1.7-0.7-1.7-1.7v-23.8C120.8,298.8,121.6,298,122.5,298z"/>
			<path class="st0" d="M154.1,306.3c-0.3-1.7-0.9-3.6-4.8-3.6s-4.4,1.5-4.4,2.7c0,4.3,17,1.2,17,11.2c0,7.9-7.7,9.4-11.9,9.4
				c-6.2,0-12.9-2.1-13.1-9.4h7.4c0,2.3,1.4,4,5.9,4c3.7,0,4.5-1.8,4.5-2.8c0-4.5-16.9-1.1-16.9-11.3c0-4,2.5-9.1,11-9.1
				c5.3,0,11.7,1.3,12.2,9H154.1z"/>
			<path class="st0" d="M173.2,294.8h-5.5c-0.9,0-1.7-0.7-1.7-1.7v-3.3c0-0.9,0.7-1.7,1.7-1.7h5.5V294.8z M173.2,298v27.2h-5.5
				c-0.9,0-1.7-0.7-1.7-1.7v-23.8c0-0.9,0.7-1.7,1.7-1.7H173.2z"/>
			<path class="st0" d="M191.1,325.9c-7.3,0-13.9-4.5-13.9-14.3s6.6-14.3,13.9-14.3c7.3,0,13.9,4.5,13.9,14.3
				S198.4,325.9,191.1,325.9z M191.1,303.3c-5.5,0-6.5,4.8-6.5,8.3s1,8.3,6.5,8.3c5.5,0,6.5-4.8,6.5-8.3S196.6,303.3,191.1,303.3z
				 M193.2,294.4H188l4.8-7.5h7.9L193.2,294.4z"/>
			<path class="st0" d="M233.3,325.2h-5.5c-0.9,0-1.7-0.7-1.7-1.7v-14.8c0-2-0.1-5.4-4.6-5.4c-3.2,0-5.6,2.1-5.6,6.3v15.6h-5.5
				c-0.9,0-1.7-0.7-1.7-1.7v-23.8c0-0.9,0.7-1.7,1.7-1.7h5.2v4h0.1c1-1.6,3-4.7,8.2-4.7c5.3,0,9.5,3.1,9.5,9.1V325.2z"/>
		</g>
	</g>
	<g>
		<linearGradient id="SVGID_1_" gradientUnits="userSpaceOnUse" x1="39.1523" y1="54.0459" x2="220.8279" y2="178.9478">
			<stop  offset="0" style="stop-color:#008FD5"/>
			<stop  offset="0.95" style="stop-color:#002E5A"/>
			<stop  offset="1" style="stop-color:#002E5A"/>
		</linearGradient>
		<circle class="st1" cx="130" cy="116.5" r="111.3"/>
		<g>
			<g>
				<path class="st0" d="M191,152.4H66.3c-2,0-3.6-1.6-3.6-3.6v0c0-2,1.6-3.6,3.6-3.6H191c2,0,3.6,1.6,3.6,3.6v0
					C194.6,150.8,193,152.4,191,152.4z"/>
			</g>
			<g>
				<linearGradient id="SVGID_2_" gradientUnits="userSpaceOnUse" x1="80.1146" y1="96.6541" x2="145.8784" y2="162.4179">
					<stop  offset="0" style="stop-color:#80FFFF"/>
					<stop  offset="0.1717" style="stop-color:#7CFBFC"/>
					<stop  offset="0.3497" style="stop-color:#6FF0F4"/>
					<stop  offset="0.5305" style="stop-color:#5BDDE7"/>
					<stop  offset="0.7134" style="stop-color:#3EC2D4"/>
					<stop  offset="0.896" style="stop-color:#19A0BC"/>
					<stop  offset="1" style="stop-color:#008AAC"/>
				</linearGradient>
				<path class="st2" d="M191,148.8H66.3c-2,0-3.6-1.6-3.6-3.6l0,0c0-2,1.6-3.6,3.6-3.6H191c2,0,3.6,1.6,3.6,3.6l0,0
					C194.6,147.2,193,148.8,191,148.8z"/>
			</g>
			<g>
				<defs>
					<rect id="SVGID_11_" x="74.7" y="59" width="107.2" height="77.5"/>
				</defs>
				<clipPath id="SVGID_3_">
					<use xlink:href="#SVGID_11_"  style="overflow:visible;"/>
				</clipPath>
				<g style="clip-path:url(#SVGID_3_);">
					<g>
						<path class="st0" d="M129.7,70.1c-26.5,0-48.1,21.5-48.1,48.1s21.5,48.1,48.1,48.1c26.5,0,48.1-21.5,48.1-48.1
							S156.3,70.1,129.7,70.1z"/>
					</g>
					<g>
						<linearGradient id="SVGID_4_" gradientUnits="userSpaceOnUse" x1="97.2733" y1="78.4556" x2="162.0286" y2="143.2109">
							<stop  offset="0" style="stop-color:#80FFFF"/>
							<stop  offset="0.1717" style="stop-color:#7CFBFC"/>
							<stop  offset="0.3497" style="stop-color:#6FF0F4"/>
							<stop  offset="0.5305" style="stop-color:#5BDDE7"/>
							<stop  offset="0.7134" style="stop-color:#3EC2D4"/>
							<stop  offset="0.896" style="stop-color:#19A0BC"/>
							<stop  offset="1" style="stop-color:#008AAC"/>
						</linearGradient>
						<path style="fill:url(#SVGID_4_);" d="M120.5,104.4c0,2.9,1.8,4.2,3.7,4.9v-8.9C121.6,101,120.5,102.9,120.5,104.4z"/>
						<linearGradient id="SVGID_5_" gradientUnits="userSpaceOnUse" x1="94.1825" y1="82.5863" x2="159.9462" y2="148.35">
							<stop  offset="0.2564" style="stop-color:#80FFFF"/>
							<stop  offset="0.3841" style="stop-color:#7CFBFC"/>
							<stop  offset="0.5164" style="stop-color:#6FF0F4"/>
							<stop  offset="0.6509" style="stop-color:#5BDDE7"/>
							<stop  offset="0.7869" style="stop-color:#3EC2D4"/>
							<stop  offset="0.9226" style="stop-color:#19A0BC"/>
							<stop  offset="1" style="stop-color:#008AAC"/>
						</linearGradient>
						<path style="fill:url(#SVGID_5_);" d="M126.9,67.2c-26.5,0-48.1,21.5-48.1,48.1s21.5,48.1,48.1,48.1
							c26.5,0,48.1-21.5,48.1-48.1S153.4,67.2,126.9,67.2z M129.7,134.3v2.7c0,1.6-1.3,2.8-2.8,2.8c-1.6,0-2.8-1.3-2.8-2.8v-2.7
							c-8.8-1-12.2-4.9-12.2-12.7h7.9c0.3,3.4,0.9,5.6,4.3,6.6v-11.6c-5.6-1.5-11.3-3.8-11.3-10.8c0-5.7,3.7-10.7,11.3-11.4v-0.8
							c0-1.6,1.3-2.8,2.8-2.8c1.6,0,2.8,1.3,2.8,2.8v0.9c4.5,0.6,10.7,2.5,11.4,11.4h-7.8c-0.3-4-1.8-5.2-3.6-5.6v10.6
							c4.8,1.5,7.3,2.7,8.7,3.9c3.3,2.8,3.3,6.3,3.3,7.7C141.8,127.4,138.7,133.3,129.7,134.3z"/>
						<linearGradient id="SVGID_6_" gradientUnits="userSpaceOnUse" x1="91.3246" y1="84.4043" x2="156.0799" y2="149.1595">
							<stop  offset="0" style="stop-color:#80FFFF"/>
							<stop  offset="0.1717" style="stop-color:#7CFBFC"/>
							<stop  offset="0.3497" style="stop-color:#6FF0F4"/>
							<stop  offset="0.5305" style="stop-color:#5BDDE7"/>
							<stop  offset="0.7134" style="stop-color:#3EC2D4"/>
							<stop  offset="0.896" style="stop-color:#19A0BC"/>
							<stop  offset="1" style="stop-color:#008AAC"/>
						</linearGradient>
						<path style="fill:url(#SVGID_6_);" d="M129.7,118.3v10c1.9-0.5,3.9-1.8,3.9-5.2C133.7,120.5,131.8,119.1,129.7,118.3z"/>
					</g>
				</g>
			</g>
		</g>
	</g>
</g>
</svg>
