<?xml version="1.0" encoding="utf-8"?>
<!-- Generator: Adobe Illustrator 19.2.1, SVG Export Plug-In . SVG Version: 6.00 Build 0)  -->
<svg version="1.1" id="Layer_1" xmlns="http://www.w3.org/2000/svg" xmlns:xlink="http://www.w3.org/1999/xlink" x="0px" y="0px"
	 viewBox="0 0 260 350" style="enable-background:new 0 0 260 350;" xml:space="preserve">
<style type="text/css">
	.st0{fill:#002E5A;}
	.st1{fill:url(#SVGID_1_);}
	.st2{fill:url(#SVGID_2_);}
	.st3{opacity:0.5;fill:url(#SVGID_3_);}
	.st4{opacity:0.5;fill:url(#SVGID_4_);}
	.st5{opacity:0.5;fill:url(#SVGID_5_);}
	.st6{opacity:0.5;fill:url(#SVGID_6_);}
	.st7{opacity:0.5;fill:url(#SVGID_7_);}
	.st8{opacity:0.5;fill:url(#SVGID_8_);}
	.st9{fill:url(#SVGID_9_);}
	.st10{fill:url(#SVGID_10_);}
	.st11{clip-path:url(#SVGID_12_);}
	.st12{fill:url(#SVGID_13_);}
	.st13{fill:url(#SVGID_14_);}
	.st14{fill:url(#SVGID_15_);}
	.st15{fill:url(#SVGID_16_);}
	.st16{fill:url(#SVGID_17_);}
	.st17{fill:url(#SVGID_18_);}
	.st18{fill:url(#SVGID_19_);}
	.st19{fill:url(#SVGID_20_);}
	.st20{fill:url(#SVGID_21_);}
	.st21{fill:url(#SVGID_22_);}
	.st22{fill:url(#SVGID_23_);}
	.st23{fill:url(#SVGID_24_);}
	.st24{fill:url(#SVGID_25_);}
	.st25{fill:url(#SVGID_26_);}
	.st26{fill:url(#SVGID_27_);}
	.st27{fill:url(#SVGID_28_);}
	.st28{fill:url(#SVGID_29_);}
	.st29{fill:url(#SVGID_30_);}
	.st30{fill:url(#SVGID_31_);}
	.st31{fill:url(#SVGID_32_);}
	.st32{fill:url(#SVGID_33_);}
	.st33{fill:url(#SVGID_34_);}
	.st34{fill:url(#SVGID_35_);}
	.st35{fill:url(#SVGID_36_);}
	.st36{fill:url(#SVGID_37_);}
	.st37{fill:url(#SVGID_38_);}
	.st38{fill:url(#SVGID_39_);}
	.st39{fill:url(#SVGID_40_);}
	.st40{fill:url(#SVGID_41_);}
	.st41{fill:url(#SVGID_42_);}
	.st42{fill:url(#SVGID_43_);}
	.st43{fill:url(#SVGID_44_);}
	.st44{fill:url(#SVGID_45_);}
	.st45{fill:url(#SVGID_46_);}
	.st46{fill:url(#SVGID_47_);}
	.st47{fill:url(#SVGID_48_);}
	.st48{fill:url(#SVGID_49_);}
	.st49{fill:url(#SVGID_50_);}
	.st50{fill:url(#SVGID_51_);}
	.st51{fill:url(#SVGID_52_);}
	.st52{opacity:0.5;fill:url(#SVGID_53_);}
	.st53{opacity:0.5;fill:url(#SVGID_54_);}
	.st54{opacity:0.5;fill:url(#SVGID_55_);}
	.st55{opacity:0.5;fill:url(#SVGID_56_);}
	.st56{opacity:0.5;fill:url(#SVGID_57_);}
	.st57{opacity:0.5;fill:url(#SVGID_58_);}
</style>
<g>
	<g>
		<linearGradient id="SVGID_1_" gradientUnits="userSpaceOnUse" x1="39.152" y1="63.5672" x2="220.8282" y2="188.4695">
			<stop  offset="0" style="stop-color:#008FD5"/>
			<stop  offset="0.95" style="stop-color:#002E5A"/>
			<stop  offset="1" style="stop-color:#002E5A"/>
		</linearGradient>
		<circle class="st1" cx="130" cy="126" r="111.3"/>
		<g>
			<g>
				<g>
					<g>
						<g>
							<g>
								<g>
									<path class="st0" d="M143.9,111c0,6.7-6.2,12.1-13.9,12.1l0,0c-7.7,0-13.9-5.4-13.9-12.1V73.3h27.9V111z"/>
								</g>
							</g>
						</g>
					</g>
				</g>
			</g>
			<g>
				<g>
					<g>
						<g>
							<g>
								<g>
									<path class="st0" d="M199.7,111c0,6.7-6.2,12.1-13.9,12.1l0,0c-7.7,0-13.9-5.4-13.9-12.1l-6-37.7h20.3L199.7,111z"/>
								</g>
							</g>
						</g>
					</g>
				</g>
			</g>
			<g>
				<g>
					<g>
						<g>
							<g>
								<g>
									<path class="st0" d="M171.8,111c0,6.7-6.2,12.1-13.9,12.1l0,0c-7.7,0-13.9-5.4-13.9-12.1V73.3h21.9L171.8,111z"/>
								</g>
							</g>
						</g>
					</g>
				</g>
			</g>
			<g>
				<g>
					<g>
						<g>
							<g>
								<g>
									<path class="st0" d="M60.3,111c0,6.7,6.2,12.1,13.9,12.1l0,0c7.7,0,13.9-5.4,13.9-12.1l6-37.7H73.9L60.3,111z"/>
								</g>
							</g>
						</g>
					</g>
				</g>
			</g>
			<g>
				<g>
					<g>
						<g>
							<g>
								<g>
									<path class="st0" d="M88.2,111c0,6.7,6.2,12.1,13.9,12.1l0,0c7.7,0,13.9-5.4,13.9-12.1V73.3H94.2L88.2,111z"/>
								</g>
							</g>
						</g>
					</g>
				</g>
			</g>
		</g>
		<g>
			<path class="st0" d="M186,123.7v2.2c-5.9,0-11.2-2.9-13.9-7.1c-2.8,4.2-8,7.1-13.9,7.1c-5.9,0-11.2-2.9-13.9-7.1
				c-2.8,4.2-8,7.1-13.9,7.1c-5.9,0-11.2-2.9-13.9-7.1c-2.8,4.2-8,7.1-13.9,7.1c-5.9,0-11.2-2.9-13.9-7.1c-2.8,4.2-8,7.1-13.9,7.1
				c-0.1,0-0.2,0-0.3,0l0-2.2c0,0,0,0,0,0v47.5c0,5.6,4.5,10.1,10.1,10.1h2.1v-44.6h30v44.6h31.9H186L186,123.7L186,123.7z"/>
		</g>
		<g>
			<g>
				<g>
					<g>
						<g>
							<g>
								<g>
									<g>
										<linearGradient id="SVGID_2_" gradientUnits="userSpaceOnUse" x1="95.6291" y1="57.5432" x2="192.7231" y2="154.6371">
											<stop  offset="0" style="stop-color:#80FFFF"/>
											<stop  offset="0.1717" style="stop-color:#7CFBFC"/>
											<stop  offset="0.3497" style="stop-color:#6FF0F4"/>
											<stop  offset="0.5305" style="stop-color:#5BDDE7"/>
											<stop  offset="0.7134" style="stop-color:#3EC2D4"/>
											<stop  offset="0.896" style="stop-color:#19A0BC"/>
											<stop  offset="1" style="stop-color:#008AAC"/>
										</linearGradient>
										<path class="st2" d="M143.9,108.5c0,6.7-6.2,12.1-13.9,12.1l0,0c-7.7,0-13.9-5.4-13.9-12.1V70.8h27.9V108.5z"/>
									</g>
								</g>
							</g>
						</g>
					</g>
				</g>
				<g>
					<g>
						<g>
							<g>
								<g>
									<g>
										<linearGradient id="SVGID_3_" gradientUnits="userSpaceOnUse" x1="120.1242" y1="33.0481" x2="217.2181" y2="130.142">
											<stop  offset="0" style="stop-color:#80FFFF"/>
											<stop  offset="0.1717" style="stop-color:#7CFBFC"/>
											<stop  offset="0.3497" style="stop-color:#6FF0F4"/>
											<stop  offset="0.5305" style="stop-color:#5BDDE7"/>
											<stop  offset="0.7134" style="stop-color:#3EC2D4"/>
											<stop  offset="0.896" style="stop-color:#19A0BC"/>
											<stop  offset="1" style="stop-color:#008AAC"/>
										</linearGradient>
										<path style="fill:url(#SVGID_3_);" d="M199.7,108.5c0,6.7-6.2,12.1-13.9,12.1l0,0c-7.7,0-13.9-5.4-13.9-12.1l-6-37.7h20.3
											L199.7,108.5z"/>
									</g>
								</g>
							</g>
						</g>
					</g>
				</g>
				<g>
					<g>
						<g>
							<g>
								<g>
									<g>
										<linearGradient id="SVGID_4_" gradientUnits="userSpaceOnUse" x1="108.0663" y1="45.106" x2="205.1602" y2="142.1999">
											<stop  offset="0" style="stop-color:#80FFFF"/>
											<stop  offset="0.1717" style="stop-color:#7CFBFC"/>
											<stop  offset="0.3497" style="stop-color:#6FF0F4"/>
											<stop  offset="0.5305" style="stop-color:#5BDDE7"/>
											<stop  offset="0.7134" style="stop-color:#3EC2D4"/>
											<stop  offset="0.896" style="stop-color:#19A0BC"/>
											<stop  offset="1" style="stop-color:#008AAC"/>
										</linearGradient>
										<path style="fill:url(#SVGID_4_);" d="M171.8,108.5c0,6.7-6.2,12.1-13.9,12.1l0,0c-7.7,0-13.9-5.4-13.9-12.1V70.8h21.9
											L171.8,108.5z"/>
									</g>
								</g>
							</g>
						</g>
					</g>
				</g>
				<g>
					<g>
						<g>
							<g>
								<g>
									<g>
										<linearGradient id="SVGID_5_" gradientUnits="userSpaceOnUse" x1="69.2472" y1="83.9251" x2="166.3412" y2="181.019">
											<stop  offset="0" style="stop-color:#80FFFF"/>
											<stop  offset="0.1717" style="stop-color:#7CFBFC"/>
											<stop  offset="0.3497" style="stop-color:#6FF0F4"/>
											<stop  offset="0.5305" style="stop-color:#5BDDE7"/>
											<stop  offset="0.7134" style="stop-color:#3EC2D4"/>
											<stop  offset="0.896" style="stop-color:#19A0BC"/>
											<stop  offset="1" style="stop-color:#008AAC"/>
										</linearGradient>
										<path style="fill:url(#SVGID_5_);" d="M60.3,108.5c0,6.7,6.2,12.1,13.9,12.1l0,0c7.7,0,13.9-5.4,13.9-12.1l6-37.7H73.9
											L60.3,108.5z"/>
									</g>
								</g>
							</g>
						</g>
					</g>
				</g>
				<g>
					<g>
						<g>
							<g>
								<g>
									<g>
										<linearGradient id="SVGID_6_" gradientUnits="userSpaceOnUse" x1="81.6841" y1="71.4882" x2="178.778" y2="168.5821">
											<stop  offset="0" style="stop-color:#80FFFF"/>
											<stop  offset="0.1717" style="stop-color:#7CFBFC"/>
											<stop  offset="0.3497" style="stop-color:#6FF0F4"/>
											<stop  offset="0.5305" style="stop-color:#5BDDE7"/>
											<stop  offset="0.7134" style="stop-color:#3EC2D4"/>
											<stop  offset="0.896" style="stop-color:#19A0BC"/>
											<stop  offset="1" style="stop-color:#008AAC"/>
										</linearGradient>
										<path style="fill:url(#SVGID_6_);" d="M88.2,108.5c0,6.7,6.2,12.1,13.9,12.1l0,0c7.7,0,13.9-5.4,13.9-12.1V70.8H94.2
											L88.2,108.5z"/>
									</g>
								</g>
							</g>
						</g>
					</g>
				</g>
			</g>
			<g>
				<linearGradient id="SVGID_7_" gradientUnits="userSpaceOnUse" x1="62.0312" y1="79.0573" x2="187.0403" y2="204.0664">
					<stop  offset="0" style="stop-color:#80FFFF"/>
					<stop  offset="0.1717" style="stop-color:#7CFBFC"/>
					<stop  offset="0.3497" style="stop-color:#6FF0F4"/>
					<stop  offset="0.5305" style="stop-color:#5BDDE7"/>
					<stop  offset="0.7134" style="stop-color:#3EC2D4"/>
					<stop  offset="0.896" style="stop-color:#19A0BC"/>
					<stop  offset="1" style="stop-color:#008AAC"/>
				</linearGradient>
				<path style="fill:url(#SVGID_7_);" d="M186,121.2v2.2c-5.9,0-11.2-2.9-13.9-7.1c-2.8,4.2-8,7.1-13.9,7.1
					c-5.9,0-11.2-2.9-13.9-7.1c-2.8,4.2-8,7.1-13.9,7.1c-5.9,0-11.2-2.9-13.9-7.1c-2.8,4.2-8,7.1-13.9,7.1c-5.9,0-11.2-2.9-13.9-7.1
					c-2.8,4.2-8,7.1-13.9,7.1c-0.1,0-0.2,0-0.3,0l0-2.2c0,0,0,0,0,0v47.5c0,5.6,4.5,10.1,10.1,10.1h2.1v-44.6h30v44.6h31.9H186
					L186,121.2L186,121.2z"/>
			</g>
		</g>
	</g>
	<g>
		<g>
			<path class="st0" d="M63.4,301.5c-0.5,0-0.9-0.3-1.1-0.8c-0.7-2.3-2.3-5.6-7.9-5.6c-3.7,0-9.1,2.5-9.1,12.8
				c0,6.6,2.6,12.5,9.1,12.5c4,0,6.8-2.1,7.9-6.1c0.1-0.5,0.6-0.8,1.1-0.8h5.4c0.7,0,1.3,0.7,1.1,1.4c-1.9,7.2-7,12.2-15.6,12.2
				c-9.8,0-16.8-6.6-16.8-19.3c0-12.8,7.4-19.4,16.9-19.4c10.1,0,14.7,6.4,15.7,11.6c0.1,0.7-0.4,1.3-1.1,1.3H63.4z"/>
			<path class="st0" d="M81.6,326.2h-4.9c-1.2,0-2.2-1-2.2-2.2v-32.2c0-1.2,1-2.2,2.2-2.2h4.9V326.2z"/>
			<path class="st0" d="M94.5,295.8h-4.9c-1.2,0-2.2-1-2.2-2.2v-2.2c0-1.2,1-2.2,2.2-2.2h4.9V295.8z M94.5,299v27.2h-4.9
				c-1.2,0-2.2-1-2.2-2.2v-22.7c0-1.2,1-2.2,2.2-2.2H94.5z"/>
			<path class="st0" d="M121.9,318.2c0.8,0,1.3,0.8,1,1.6c-2.2,5.3-7.1,7.1-11.4,7.1c-7.7,0-13.5-3.7-13.5-14.9
				c0-3.3,1.1-13.7,13-13.7c5.4,0,12.8,2.6,12.8,15v1.3h-18.7c0.2,2,0.6,6.6,6.4,6.6c1.8,0,3.6-0.8,4.3-2.3c0.2-0.4,0.6-0.6,1-0.6
				H121.9z M116.4,309.9c-0.4-4.4-3.2-5.7-5.5-5.7c-3.4,0-5.2,2.1-5.6,5.7H116.4z"/>
			<path class="st0" d="M151.8,326.2h-4.9c-1.2,0-2.2-1-2.2-2.2v-14.3c0-2-0.1-5.4-4.6-5.4c-3.2,0-5.6,2.1-5.6,6.3v15.6h-4.9
				c-1.2,0-2.2-1-2.2-2.2v-22.7c0-1.2,1-2.2,2.2-2.2h4.6v4h0.1c1-1.6,3-4.7,8.2-4.7c5.3,0,9.5,3.1,9.5,9.1V326.2z"/>
			<path class="st0" d="M165.2,299h4.4v5.1h-4.4v14.8c0,1.6,0.1,2.2,3,2.2c0.5,0,1-0.1,1.5-0.1v3.3c0,1.2-1,2.2-2.2,2.2
				c-0.4,0-0.8,0-1.2,0h-0.9c-6.2,0-7.3-2.4-7.3-5.9v-16.5h-3.7V299h3.7v-5.1c0-1.2,1-2.2,2.2-2.2h4.9V299z"/>
			<path class="st0" d="M193.9,318.2c0.8,0,1.3,0.8,1,1.6c-2.2,5.3-7.1,7.1-11.4,7.1c-7.7,0-13.5-3.7-13.5-14.9
				c0-3.3,1.1-13.7,13-13.7c5.4,0,12.8,2.6,12.8,15v1.3h-18.7c0.2,2,0.6,6.6,6.4,6.6c1.8,0,3.6-0.8,4.3-2.3c0.2-0.4,0.6-0.6,1-0.6
				H193.9z M188.4,309.9c-0.4-4.4-3.2-5.7-5.5-5.7c-3.4,0-5.2,2.1-5.6,5.7H188.4z"/>
			<path class="st0" d="M215.5,307.3c-0.5,0-0.9-0.3-1.1-0.8c-0.4-1.4-1.4-2.7-4.6-2.7c-3.9,0-4.4,1.5-4.4,2.7c0,4.3,17,1.2,17,11.2
				c0,7.9-7.7,9.4-11.9,9.4c-5.8,0-12-1.9-13-8.1c-0.1-0.7,0.4-1.3,1.1-1.3h5.1c0.5,0,1,0.4,1.1,0.9c0.4,1.8,2,3.1,5.8,3.1
				c3.7,0,4.5-1.8,4.5-2.8c0-4.5-16.9-1.1-16.9-11.3c0-4,2.5-9.1,11-9.1c5,0,10.9,1.2,12,7.7c0.1,0.7-0.4,1.3-1.1,1.3H215.5z"/>
		</g>
	</g>
</g>
</svg>
