<?xml version="1.0" encoding="utf-8"?>
<!-- Generator: Adobe Illustrator 19.2.1, SVG Export Plug-In . SVG Version: 6.00 Build 0)  -->
<svg version="1.1" id="Layer_1" xmlns="http://www.w3.org/2000/svg" xmlns:xlink="http://www.w3.org/1999/xlink" x="0px" y="0px"
	 viewBox="0 0 411 127.6" style="enable-background:new 0 0 411 127.6;" xml:space="preserve">
<style type="text/css">
	.st0{fill:#183059;}
	.st1{fill:url(#SVGID_1_);}
	.st2{fill:url(#SVGID_2_);}
	.st3{fill:url(#SVGID_3_);}
	.st4{fill:url(#SVGID_4_);}
	.st5{fill:url(#SVGID_5_);}
	.st6{fill:url(#SVGID_6_);}
	.st7{fill:url(#SVGID_7_);}
	.st8{fill:url(#SVGID_8_);}
	.st9{fill:url(#SVGID_9_);}
	.st10{fill:url(#SVGID_10_);}
	.st11{fill:url(#SVGID_11_);}
	.st12{fill:url(#SVGID_12_);}
	.st13{fill:url(#SVGID_13_);}
	.st14{fill:url(#SVGID_14_);}
	.st15{fill:url(#SVGID_15_);}
	.st16{fill:url(#SVGID_16_);}
	.st17{fill:url(#SVGID_17_);}
	.st18{fill:url(#SVGID_18_);}
	.st19{fill:url(#SVGID_19_);}
	.st20{fill:url(#SVGID_20_);}
	.st21{fill:url(#SVGID_21_);}
	.st22{fill:url(#SVGID_22_);}
	.st23{fill:url(#SVGID_23_);}
	.st24{fill:url(#SVGID_24_);}
	.st25{fill:url(#SVGID_25_);}
	.st26{clip-path:url(#SVGID_27_);}
	.st27{fill:url(#SVGID_28_);}
	.st28{fill:url(#SVGID_29_);}
	.st29{fill:url(#SVGID_30_);}
	.st30{fill:url(#SVGID_31_);}
	.st31{fill:url(#SVGID_32_);}
</style>
<g>
	<g>
		<g>
			<path class="st0" d="M160,52.8h-5.9V24.3h13c5.5,0,8.8,3.5,8.8,9.1c0,2.6-1.4,9.1-9.1,9.1H160V52.8z M165.5,37.6
				c4.4,0,4.4-3.2,4.4-4.4c0-2.8-1.5-3.9-5.2-3.9H160v8.4H165.5z"/>
			<path class="st0" d="M178.3,31.7h5.3v3.6h0.1c1.1-2.1,2.4-4.2,5.8-4.2c0.4,0,0.7,0,1.1,0.1v5.6c-0.5-0.1-1.1-0.1-1.6-0.1
				c-4.3,0-5.1,2.7-5.1,5v11h-5.5V31.7z"/>
			<path class="st0" d="M210.1,46.6c-1.5,5.1-5.7,6.7-9.3,6.7c-5.9,0-10.5-2.9-10.5-11.5c0-2.5,0.9-10.7,10.1-10.7
				c4.2,0,9.9,2,9.9,11.6v1h-14.5c0.2,1.6,0.5,5.1,5,5.1c1.5,0,3.1-0.8,3.6-2.3H210.1z M204.6,40.1c-0.3-3.4-2.5-4.4-4.3-4.4
				c-2.6,0-4,1.7-4.3,4.4H204.6z"/>
			<path class="st0" d="M231.2,45.1c-0.2,2.2-1.9,8.2-9.6,8.2c-7.9,0-9.7-6.1-9.7-10.5c0-6.8,3-11.7,10.1-11.7
				c3.3,0,8.8,1.5,9.3,8.1h-5.6c-0.2-1.3-1-3.4-3.4-3.4h-0.3c-3.5,0-4.4,3.5-4.4,6.1c0,2.3,0.1,6.9,4.3,6.9c2.8,0,3.8-2.7,3.8-3.7
				H231.2z"/>
			<path class="st0" d="M239.8,29.2h-5.5v-5.2h5.5V29.2z M239.8,31.7v21.1h-5.5V31.7H239.8z"/>
			<path class="st0" d="M253.7,53.3c-5.7,0-10.8-3.5-10.8-11.1s5.1-11.1,10.8-11.1c5.7,0,10.8,3.5,10.8,11.1S259.3,53.3,253.7,53.3z
				 M253.7,35.8c-4.3,0-5.1,3.7-5.1,6.4c0,2.7,0.8,6.4,5.1,6.4s5.1-3.7,5.1-6.4C258.7,39.5,257.9,35.8,253.7,35.8z"/>
		</g>
		<g>
			<path class="st0" d="M160,100.3h-5.9V71.9h13c5.5,0,8.8,3.5,8.8,9.1c0,2.6-1.4,9.1-9.1,9.1H160V100.3z M165.5,85.1
				c4.4,0,4.4-3.2,4.4-4.4c0-2.8-1.5-3.9-5.2-3.9H160v8.4H165.5z"/>
			<path class="st0" d="M178.3,79.2h5.3v3.6h0.1c1.1-2.1,2.4-4.2,5.8-4.2c0.4,0,0.7,0,1.1,0.1v5.6c-0.5-0.1-1.1-0.1-1.6-0.1
				c-4.3,0-5.1,2.7-5.1,5v11h-5.5V79.2z"/>
			<path class="st0" d="M201.5,100.9c-5.7,0-10.8-3.5-10.8-11.1s5.1-11.1,10.8-11.1c5.7,0,10.8,3.5,10.8,11.1
				S207.2,100.9,201.5,100.9z M201.5,83.4c-4.3,0-5.1,3.7-5.1,6.4c0,2.7,0.8,6.4,5.1,6.4s5.1-3.7,5.1-6.4
				C206.6,87.1,205.8,83.4,201.5,83.4z"/>
			<path class="st0" d="M245.4,100.3h-5.5V87.5c0-3.1-1.4-4.2-3-4.2c-2.8,0-3.8,1.8-3.8,4.3v12.6h-5.5V87.6c0-1.8,0-4.3-3.3-4.3
				c-2.6,0-3.4,1.8-3.4,4.1v12.8h-5.5V79.2h5.3v3.1h0.1c0.7-1.4,2.3-3.6,6-3.6c3.1,0,4.4,1.1,5.9,3.4c0.7-1,2.3-3.4,5.6-3.4
				c4.1,0,7.3,2.4,7.3,7.1V100.3z"/>
			<path class="st0" d="M259,100.9c-5.7,0-10.8-3.5-10.8-11.1s5.1-11.1,10.8-11.1c5.7,0,10.8,3.5,10.8,11.1S264.7,100.9,259,100.9z
				 M259,83.4c-4.3,0-5.1,3.7-5.1,6.4c0,2.7,0.8,6.4,5.1,6.4s5.1-3.7,5.1-6.4C264.1,87.1,263.3,83.4,259,83.4z"/>
			<path class="st0" d="M290.8,92.6c-0.2,2.2-1.9,8.2-9.6,8.2c-7.9,0-9.7-6.1-9.7-10.5c0-6.8,3-11.7,10.1-11.7
				c3.3,0,8.8,1.5,9.3,8.1h-5.6c-0.2-1.3-1-3.4-3.4-3.4h-0.3c-3.5,0-4.4,3.5-4.4,6.1c0,2.3,0.1,6.9,4.3,6.9c2.8,0,3.8-2.7,3.8-3.7
				H290.8z"/>
			<path class="st0" d="M299.4,76.7h-5.5v-5.1h5.5V76.7z M299.4,79.2v21.1h-5.5V79.2H299.4z"/>
			<path class="st0" d="M313.3,100.9c-5.7,0-10.8-3.5-10.8-11.1s5.1-11.1,10.8-11.1c5.7,0,10.8,3.5,10.8,11.1
				S318.9,100.9,313.3,100.9z M313.3,83.4c-4.3,0-5.1,3.7-5.1,6.4c0,2.7,0.8,6.4,5.1,6.4s5.1-3.7,5.1-6.4
				C318.4,87.1,317.6,83.4,313.3,83.4z"/>
			<path class="st0" d="M346,100.3h-5.5V87.5c0-1.5-0.1-4.2-3.6-4.2c-2.5,0-4.4,1.7-4.4,4.9v12.1H327V79.2h5.3v3.1h0.1
				c0.8-1.3,2.3-3.6,6.3-3.6c4.1,0,7.3,2.4,7.3,7.1V100.3z"/>
			<path class="st0" d="M367.2,96.2c0,2.5,0.6,3.1,1.2,3.3v0.8h-6c-0.3-1-0.4-1.3-0.5-2.5c-1.3,1.3-3,3-6.8,3
				c-3.2,0-6.4-1.8-6.4-6.1c0-4.1,2.6-6.2,6.1-6.7l5-0.8c0.9-0.1,1.9-0.5,1.9-1.7c0-2.3-2.2-2.5-3.6-2.5c-2.8,0-3.2,1.7-3.4,2.9
				h-5.3c0.6-6.5,5.1-7.4,9.4-7.4c3,0,8.4,0.9,8.4,6.1V96.2z M361.8,90c-0.6,0.4-1.5,0.8-3.8,1.1c-2.1,0.4-3.8,0.9-3.8,3.2
				c0,1.9,1.5,2.5,2.6,2.5c2.5,0,5-1.6,5-4.2V90z"/>
			<path class="st0" d="M376.9,100.3h-5.5V71.9h5.5V100.3z"/>
		</g>
	</g>
	<g>
		<linearGradient id="SVGID_1_" gradientUnits="userSpaceOnUse" x1="18.3217" y1="32.8738" x2="110.6564" y2="96.3539">
			<stop  offset="0" style="stop-color:#198FCE"/>
			<stop  offset="1" style="stop-color:#183059"/>
		</linearGradient>
		<circle class="st1" cx="64.5" cy="64.6" r="56.6"/>
		<g>
			<path class="st0" d="M69.8,72.8c-0.8,0.8-0.8,2.1,0,2.9s2.1,0.8,2.9,0c0.8-0.8,0.8-2.1,0-2.9C71.9,72,70.6,72,69.8,72.8z"/>
			<path class="st0" d="M59.6,64.4c-0.8-0.8-2.1-0.8-2.9,0c-0.8,0.8-0.8,2.1,0,2.9c0.8,0.8,2.1,0.8,2.9,0
				C60.4,66.5,60.4,65.2,59.6,64.4z"/>
			<path class="st0" d="M92.4,36.4c-0.6-1.5-2.6-4.1-8.5-4.2c-0.1,0-0.1,0-0.2,0c-3.6,0-8,1-12.2,2.7c-0.8,0.3-1.5,0.7-2.3,1l0,0
				c-2.4-2.4-6.3-2.4-8.7,0L48.5,47.5C46.9,49,46,51.1,46,53.3v39.2c0,3.2,2.6,5.7,5.7,5.7h26.1c3.2,0,5.7-2.6,5.7-5.7V53.3
				c0-1.1-0.2-2.2-0.7-3.2c2.5-1.4,4.7-3,6.4-4.7C93.5,41.1,93,37.9,92.4,36.4z M76.7,47.7c-2.5,1-5,1.8-7.4,2.1c0,0.1,0,0.2,0,0.3
				c0,2.6-2.1,4.7-4.7,4.7c-2.6,0-4.7-2.1-4.7-4.7s2.1-4.7,4.7-4.7c1.6,0,2.9,0.8,3.8,1.9c2.2-0.4,4.6-1.1,6.9-2
				c0.8-0.3,1.6-0.7,2.3-1.1l-4.8-4.7c0.1-0.1,0.3-0.1,0.4-0.2C77,37.9,80.7,37,83.7,37c0,0,0.1,0,0.1,0c2.9,0,3.9,0.8,4.1,1.2
				C88.4,39.5,85.2,44.2,76.7,47.7z"/>
		</g>
		<g>
			<linearGradient id="SVGID_2_" gradientUnits="userSpaceOnUse" x1="46.0267" y1="49.0053" x2="82.3149" y2="85.2936">
				<stop  offset="0" style="stop-color:#99D9E5"/>
				<stop  offset="0.1802" style="stop-color:#95D4E2"/>
				<stop  offset="0.3669" style="stop-color:#8ACADB"/>
				<stop  offset="0.5567" style="stop-color:#76BBD0"/>
				<stop  offset="0.7486" style="stop-color:#59A8C2"/>
				<stop  offset="0.9403" style="stop-color:#2A92B2"/>
				<stop  offset="1" style="stop-color:#058BAD"/>
			</linearGradient>
			<path class="st2" d="M68.5,71.5c-0.8,0.8-0.8,2.1,0,2.9c0.8,0.8,2.1,0.8,2.9,0c0.8-0.8,0.8-2.1,0-2.9
				C70.6,70.7,69.3,70.7,68.5,71.5z"/>
			<linearGradient id="SVGID_3_" gradientUnits="userSpaceOnUse" x1="43.6678" y1="51.3642" x2="79.956" y2="87.6524">
				<stop  offset="0" style="stop-color:#99D9E5"/>
				<stop  offset="0.1802" style="stop-color:#95D4E2"/>
				<stop  offset="0.3669" style="stop-color:#8ACADB"/>
				<stop  offset="0.5567" style="stop-color:#76BBD0"/>
				<stop  offset="0.7486" style="stop-color:#59A8C2"/>
				<stop  offset="0.9403" style="stop-color:#2A92B2"/>
				<stop  offset="1" style="stop-color:#058BAD"/>
			</linearGradient>
			<path class="st3" d="M58.3,63.1c-0.8-0.8-2.1-0.8-2.9,0s-0.8,2.1,0,2.9c0.8,0.8,2.1,0.8,2.9,0C59.1,65.2,59.1,63.9,58.3,63.1z"/>
			<linearGradient id="SVGID_4_" gradientUnits="userSpaceOnUse" x1="49.4334" y1="45.5986" x2="85.7216" y2="81.8868">
				<stop  offset="0" style="stop-color:#99D9E5"/>
				<stop  offset="0.1802" style="stop-color:#95D4E2"/>
				<stop  offset="0.3669" style="stop-color:#8ACADB"/>
				<stop  offset="0.5567" style="stop-color:#76BBD0"/>
				<stop  offset="0.7486" style="stop-color:#59A8C2"/>
				<stop  offset="0.9403" style="stop-color:#2A92B2"/>
				<stop  offset="1" style="stop-color:#058BAD"/>
			</linearGradient>
			<path class="st4" d="M91.1,35.1c-0.6-1.5-2.6-4.1-8.5-4.2c-0.1,0-0.1,0-0.2,0c-3.6,0-8,1-12.2,2.7c-0.8,0.3-1.5,0.7-2.3,1l0,0
				c-2.4-2.4-6.3-2.4-8.7,0L47.2,46.2c-1.6,1.5-2.5,3.6-2.5,5.8v39.2c0,3.2,2.6,5.7,5.7,5.7h26.1c3.2,0,5.7-2.6,5.7-5.7V52.1
				c0-1.1-0.2-2.2-0.7-3.2c2.5-1.4,4.7-3,6.4-4.7C92.2,39.9,91.8,36.7,91.1,35.1z M51.9,64.6c0-2.7,2.2-5,5-5c2.7,0,5,2.2,5,5
				c0,2.7-2.2,5-5,5C54.2,69.6,51.9,67.3,51.9,64.6z M56.1,77.6c-0.5-0.4-0.6-1.2-0.2-1.7l13-15.7c0.4-0.5,1.2-0.6,1.7-0.2
				c0.5,0.4,0.6,1.2,0.2,1.7l-13,15.7C57.4,77.9,56.7,78,56.1,77.6z M70,77.9c-2.7,0-5-2.2-5-5c0-2.7,2.2-5,5-5c2.7,0,5,2.2,5,5
				C74.9,75.7,72.7,77.9,70,77.9z M75.5,46.4c-2.5,1-5,1.8-7.4,2.1c0,0.1,0,0.2,0,0.3c0,2.6-2.1,4.7-4.7,4.7c-2.6,0-4.7-2.1-4.7-4.7
				c0-2.6,2.1-4.7,4.7-4.7c1.6,0,2.9,0.8,3.8,1.9c2.2-0.4,4.6-1.1,6.9-2c0.8-0.3,1.6-0.7,2.3-1.1l-4.8-4.7c0.1-0.1,0.3-0.1,0.4-0.2
				c3.6-1.5,7.4-2.4,10.4-2.4c0,0,0.1,0,0.1,0c2.9,0,3.9,0.8,4.1,1.2C87.2,38.2,84,42.9,75.5,46.4z"/>
		</g>
	</g>
</g>
</svg>
