<?xml version="1.0" encoding="utf-8"?>
<!-- Generator: Adobe Illustrator 19.2.1, SVG Export Plug-In . SVG Version: 6.00 Build 0)  -->
<svg version="1.1" id="Layer_1" xmlns="http://www.w3.org/2000/svg" xmlns:xlink="http://www.w3.org/1999/xlink" x="0px" y="0px"
	 viewBox="0 0 480 350" style="enable-background:new 0 0 480 350;" xml:space="preserve">
<style type="text/css">
	.st0{fill:#002E5A;}
	.st1{fill:url(#SVGID_1_);}
	.st2{fill:url(#SVGID_2_);}
	.st3{opacity:0.5;fill:url(#SVGID_3_);}
	.st4{opacity:0.5;fill:url(#SVGID_4_);}
	.st5{opacity:0.5;fill:url(#SVGID_5_);}
	.st6{opacity:0.5;fill:url(#SVGID_6_);}
	.st7{opacity:0.5;fill:url(#SVGID_7_);}
	.st8{opacity:0.5;fill:url(#SVGID_8_);}
	.st9{fill:url(#SVGID_9_);}
	.st10{fill:url(#SVGID_10_);}
	.st11{clip-path:url(#SVGID_12_);}
	.st12{fill:url(#SVGID_13_);}
	.st13{fill:url(#SVGID_14_);}
	.st14{fill:url(#SVGID_15_);}
	.st15{fill:url(#SVGID_16_);}
	.st16{fill:url(#SVGID_17_);}
	.st17{fill:url(#SVGID_18_);}
	.st18{fill:url(#SVGID_19_);}
	.st19{fill:url(#SVGID_20_);}
	.st20{fill:url(#SVGID_21_);}
	.st21{fill:url(#SVGID_22_);}
	.st22{fill:url(#SVGID_23_);}
	.st23{fill:url(#SVGID_24_);}
	.st24{fill:url(#SVGID_25_);}
	.st25{fill:url(#SVGID_26_);}
	.st26{fill:url(#SVGID_27_);}
	.st27{fill:url(#SVGID_28_);}
	.st28{fill:url(#SVGID_29_);}
	.st29{fill:url(#SVGID_30_);}
	.st30{fill:url(#SVGID_31_);}
	.st31{fill:url(#SVGID_32_);}
	.st32{fill:url(#SVGID_33_);}
	.st33{fill:url(#SVGID_34_);}
	.st34{fill:url(#SVGID_35_);}
	.st35{fill:url(#SVGID_36_);}
	.st36{fill:url(#SVGID_37_);}
	.st37{fill:url(#SVGID_38_);}
	.st38{fill:url(#SVGID_39_);}
	.st39{fill:url(#SVGID_40_);}
	.st40{fill:url(#SVGID_41_);}
	.st41{fill:url(#SVGID_42_);}
	.st42{fill:url(#SVGID_43_);}
	.st43{fill:url(#SVGID_44_);}
	.st44{fill:url(#SVGID_45_);}
	.st45{fill:url(#SVGID_46_);}
	.st46{fill:url(#SVGID_47_);}
	.st47{fill:url(#SVGID_48_);}
	.st48{fill:url(#SVGID_49_);}
	.st49{fill:url(#SVGID_50_);}
	.st50{fill:url(#SVGID_51_);}
	.st51{fill:url(#SVGID_52_);}
	.st52{opacity:0.5;fill:url(#SVGID_53_);}
	.st53{opacity:0.5;fill:url(#SVGID_54_);}
	.st54{opacity:0.5;fill:url(#SVGID_55_);}
	.st55{opacity:0.5;fill:url(#SVGID_56_);}
	.st56{opacity:0.5;fill:url(#SVGID_57_);}
	.st57{opacity:0.5;fill:url(#SVGID_58_);}
</style>
<g>
	<g>
		<g>
			<g>
				<g>
					<g>
						<path class="st0" d="M116,288.3c9,0,15.4,5.7,16.1,10.7h-29C103.8,294,111,288.3,116,288.3v-12.6c-18,0-30.8,15.3-30.8,31.4
							c0,17.1,12.5,32.2,32,32.2c13.4,0,26.7-6.2,29.2-17.4c0.3-1.5-0.5-2.9-2.7-2.9h-9.5c-1.7,0-3.2,0.2-4,1.5
							c-2.7,3.9-6.7,5.9-12.7,5.9c-8.4,0-14.2-7.4-14.6-13.4h40.6c3.7,0,4.6-2.3,4.6-5.6c0-15.7-10.2-31.7-32.2-31.7V288.3z"/>
						<path class="st0" d="M200.5,257H69c-3,0-5.4,1.8-5.4,4.7l0.5,49.6c0,0-28.3-50.4-29.8-52.9c-1.4-2.4-4.4-5.5-8.5-5.5H14.9
							c-3,0-5.4,3.1-5.4,6l0,73.5c0,2.9,2.4,5.5,5.4,5.5h6.9c3,0,5.4-2.3,5.4-5.1l-0.4-51.3c0,0,28.6,49.9,29.8,51.8
							c1.7,2.7,4.4,4.6,8.5,4.6h9.9c3,0,5.4-2.2,5.4-5.1l0-64.6l119.9,0c2,0,3.6-1.6,3.6-3.5v-5.3C204,257.5,202.5,257,200.5,257z"
							/>
						<path class="st0" d="M179.2,287.7c5.7,0,10,2.4,11.5,5.9c0.7,1.7,2.2,2.4,4.1,2.4h7.9c1.3,0,2.8-1.5,2.8-3.1
							c0-8.8-10.9-16.9-26.3-16.9c-16,0-26.5,7.2-26.5,19c0,9,7.3,14.2,16.3,16.5c4.1,1,11.1,2.7,14.5,3.5c3.7,0.9,7,2,7,5.1
							c0,4.8-5.2,6.4-11,6.4c-5.4,0-10.8-1.8-12.4-5.5c-0.9-2.2-2.5-1.9-4.9-1.9h-8c-1.4,0-2.4,0-2.4,1.8v1
							c0,8.5,11.6,17.5,27.9,17.5c11.6,0,27.6-4.7,27.6-19.7c0-8.7-6.1-14.7-15.9-17.2c-3.8-0.9-13.1-3.2-15.1-3.7
							c-3.6-0.9-6.9-2-6.9-5C169.6,289.2,173.9,287.7,179.2,287.7z"/>
					</g>
				</g>
			</g>
		</g>
		<g>
			<path class="st0" d="M218,279.7c0-2.3,1.6-3.7,3.8-3.7h25.5c10.9,0,22.9,2.5,22.9,15.7c0,5.7-3.4,10.2-8.3,12.7
				c6.7,1.9,10.9,7.3,10.9,14.5c0,15.1-11.1,19.2-24.6,19.2h-26.3c-2.3,0-3.8-1-3.8-3.2V279.7z M235,301h12c2.8,0,6.7-1.9,6.7-6.5
				c0-4.6-3.3-6.5-6.7-6.5h-12V301z M235,325h12.4c5.2,0,8.9-1.6,8.9-6.8c0-5.6-3.9-7.2-8.9-7.2H235V325z"/>
			<path class="st0" d="M308.3,274.3c19.9,0,31.2,14.6,31.2,33c0,18.3-11.2,33-31.2,33c-19.9,0-31.2-14.6-31.2-33
				C277.1,288.9,288.3,274.3,308.3,274.3z M308.3,326c10.6,0,14.7-9.4,14.7-18.8c0-9.4-4.1-18.8-14.7-18.8
				c-10.6,0-14.7,9.4-14.7,18.8C293.6,316.6,297.6,326,308.3,326z"/>
			<path class="st0" d="M375,274.3c19.9,0,31.2,14.6,31.2,33c0,18.3-11.2,33-31.2,33c-19.9,0-31.2-14.6-31.2-33
				C343.8,288.9,355.1,274.3,375,274.3z M375,326c10.6,0,14.7-9.4,14.7-18.8c0-9.4-4.1-18.8-14.7-18.8c-10.6,0-14.7,9.4-14.7,18.8
				C360.3,316.6,364.4,326,375,326z"/>
			<path class="st0" d="M416.8,276H429v23.9l21.2-23.9h18c0.9,0,1.4,0.9,0.8,1.6l-21.7,23l25,36c0.6,0.8,0,1.4-1,1.4h-18.2
				l-17.2-26.1l-6.9,7.5V338h-12.2c-2.2,0-3.8-0.9-3.8-3.1v-55.4C413,277.4,414.7,276,416.8,276z"/>
		</g>
	</g>
</g>
<g>
	<g>
		<radialGradient id="SVGID_1_" cx="240.6149" cy="222.2167" r="119.3483" gradientUnits="userSpaceOnUse">
			<stop  offset="0" style="stop-color:#B3B3B3"/>
			<stop  offset="0.146" style="stop-color:#CCCCCC;stop-opacity:0.854"/>
			<stop  offset="0.3176" style="stop-color:#E3E3E3;stop-opacity:0.6824"/>
			<stop  offset="0.5041" style="stop-color:#F3F3F3;stop-opacity:0.4959"/>
			<stop  offset="0.7147" style="stop-color:#FCFCFC;stop-opacity:0.2853"/>
			<stop  offset="1" style="stop-color:#FFFFFF;stop-opacity:0"/>
		</radialGradient>
		<polygon class="st1" points="383,67 99,67 99,223.4 241,205.7 383,222.7 		"/>
		<path class="st0" d="M239,206.4c-46-8.7-91.9-15.1-138.7-18.8c-1.7-0.1-2.5-1.3-2.1-2.8c8.7-38,17.5-75.9,26.2-113.9
			c0.5-2.2,2.5-4.1,4.5-3.9c37.2,5,74.1,12,110.1,20.4C239,127.2,239,166.8,239,206.4z"/>
		<linearGradient id="SVGID_2_" gradientUnits="userSpaceOnUse" x1="165.6331" y1="220.5187" x2="178.3001" y2="188.2753">
			<stop  offset="0.25" style="stop-color:#80FFFF"/>
			<stop  offset="0.3237" style="stop-color:#7AF6F8"/>
			<stop  offset="0.4455" style="stop-color:#6BDDE4"/>
			<stop  offset="0.6002" style="stop-color:#52B4C4"/>
			<stop  offset="0.7818" style="stop-color:#2F7B97"/>
			<stop  offset="0.984" style="stop-color:#04345F"/>
			<stop  offset="1" style="stop-color:#002E5A"/>
		</linearGradient>
		<path class="st2" d="M165,174.6c-1.5,12.5-3.7,30.8-5.3,43.2c-0.1,0.9,1.2,1.3,2.2,0.6c5.3-3.4,8-5.1,13.2-8.4
			c0.6-0.4,1.5-0.4,1.9,0c2.7,2.5,4,3.7,6.8,6.2c0.8,0.7,2.4,0.2,2.5-0.8c0.8-9.6,1.6-21.4,2.4-31"/>
		<radialGradient id="SVGID_3_" cx="238.6186" cy="206.1239" r="192.06" gradientUnits="userSpaceOnUse">
			<stop  offset="0" style="stop-color:#002E5A"/>
			<stop  offset="0.5" style="stop-color:#008FD5"/>
			<stop  offset="1" style="stop-color:#008AAC"/>
		</radialGradient>
		<path class="st3" d="M117.4,152.9c7.9-37.6,15.7-75.2,23.6-112.7c0.5-2.6,3.1-4.5,4.9-3.5C180.5,57.6,208,57.2,239,87.5
			c0,39.6,0,79.3,0,118.9c-39-36.5-79.7-30.4-120.7-50.8C117.2,155.1,117.2,154.1,117.4,152.9z"/>
		<path class="st0" d="M239,206.4c47-8.7,92.8-15.1,139.6-18.8c1.8-0.1,2.9-1.3,2.6-2.8c-8.7-38-17.3-75.9-26-113.9
			c-0.5-2.2-3.3-4.1-5.3-3.9c-37.2,5-73.9,12-110.9,20.4C239,127.2,239,166.8,239,206.4z"/>
		
			<radialGradient id="SVGID_4_" cx="446.1538" cy="206.8603" r="178.424" gradientTransform="matrix(1.1523 0 0 1 -275.5527 0)" gradientUnits="userSpaceOnUse">
			<stop  offset="0" style="stop-color:#002E5A"/>
			<stop  offset="0.5" style="stop-color:#00AEEF"/>
			<stop  offset="1" style="stop-color:#80FFFF"/>
		</radialGradient>
		<path class="st4" d="M130,138c7.3-36.8,14.5-73.6,21.8-110.4c1.3-6.1,4.6-3.6,6-2.9c19,21.2,58.3,31.1,81.3,62.8
			c0,39.6,0,79.3,0,118.9c-33-40.1-74-38.1-108.7-66.2C129.6,139.7,129.8,138.9,130,138z"/>
		<radialGradient id="SVGID_5_" cx="238.6191" cy="206.8916" r="185.6849" gradientUnits="userSpaceOnUse">
			<stop  offset="0" style="stop-color:#002E5A"/>
			<stop  offset="0.5" style="stop-color:#00BDF2"/>
			<stop  offset="1" style="stop-color:#80FFFF"/>
		</radialGradient>
		<path class="st5" d="M144.5,125c6.3-36.8,12.6-73.6,18.9-110.4c0.5-3,3.6-4.8,5.1-2.9c28.7,37,52.5,35.1,70.5,75.8
			c0,39.6,0,79.3,0,118.9c-23-46.1-70.3-47.7-94.3-79.2C144.1,126.7,144.3,125.9,144.5,125z"/>
		<g>
			
				<radialGradient id="SVGID_6_" cx="3272.2014" cy="206.1239" r="193.7898" gradientTransform="matrix(-1 0 0 1 3511.5881 0)" gradientUnits="userSpaceOnUse">
				<stop  offset="0" style="stop-color:#002E5A"/>
				<stop  offset="0.5" style="stop-color:#008FD5"/>
				<stop  offset="1" style="stop-color:#008AAC"/>
			</radialGradient>
			<path class="st6" d="M362.4,152.9c-7.9-37.6-15.7-75.2-23.6-112.7c-0.5-2.6-3.9-4.5-5.8-3.5c-34.6,20.9-60,20.5-94,50.8
				c0,39.6,0,79.3,0,118.9c42-36.5,80.6-30.4,121.6-50.8C361.7,155.1,362.6,154.1,362.4,152.9z"/>
			
				<radialGradient id="SVGID_7_" cx="3078.7324" cy="206.8603" r="179.5519" gradientTransform="matrix(-1.1523 0 0 1 3787.1409 0)" gradientUnits="userSpaceOnUse">
				<stop  offset="0" style="stop-color:#002E5A"/>
				<stop  offset="0.5" style="stop-color:#00AEEF"/>
				<stop  offset="1" style="stop-color:#80FFFF"/>
			</radialGradient>
			<path class="st7" d="M349.8,138c-7.3-36.8-14.5-73.6-21.8-110.4c-1.3-6.1-5.5-3.6-6.8-2.9c-19,21.2-58.2,31.1-82.2,62.8
				c0,39.6,0,79.3,0,118.9c34-40.1,74.9-38.1,109.6-66.2C349.3,139.7,350,138.9,349.8,138z"/>
			
				<radialGradient id="SVGID_8_" cx="3272.2007" cy="206.8916" r="186.9251" gradientTransform="matrix(-1 0 0 1 3511.5881 0)" gradientUnits="userSpaceOnUse">
				<stop  offset="0" style="stop-color:#002E5A"/>
				<stop  offset="0.5" style="stop-color:#00BDF2"/>
				<stop  offset="1" style="stop-color:#80FFFF"/>
			</radialGradient>
			<path class="st8" d="M335.3,125c-6.3-36.8-12.6-73.6-18.9-110.4c-0.5-3-4.4-4.8-6-2.9c-28.7,37-52.4,35.1-71.4,75.8
				c0,39.6,0,79.3,0,118.9c26-46.1,71.2-47.7,95.2-79.2C334.7,126.7,335.4,125.9,335.3,125z"/>
		</g>
	</g>
	<rect x="234" y="205" class="st0" width="13" height="3"/>
</g>
</svg>
