<?xml version="1.0" encoding="utf-8"?>
<!-- Generator: Adobe Illustrator 19.2.1, SVG Export Plug-In . SVG Version: 6.00 Build 0)  -->
<svg version="1.1" id="Layer_1" xmlns="http://www.w3.org/2000/svg" xmlns:xlink="http://www.w3.org/1999/xlink" x="0px" y="0px"
	 viewBox="0 0 411 127.6" style="enable-background:new 0 0 411 127.6;" xml:space="preserve">
<style type="text/css">
	.st0{fill:#183059;}
	.st1{fill:url(#SVGID_1_);}
	.st2{fill:url(#SVGID_2_);}
	.st3{fill:url(#SVGID_3_);}
	.st4{fill:url(#SVGID_4_);}
	.st5{fill:url(#SVGID_5_);}
	.st6{fill:url(#SVGID_6_);}
	.st7{fill:url(#SVGID_7_);}
	.st8{fill:url(#SVGID_8_);}
	.st9{fill:url(#SVGID_9_);}
	.st10{fill:url(#SVGID_10_);}
	.st11{fill:url(#SVGID_11_);}
	.st12{fill:url(#SVGID_12_);}
	.st13{fill:url(#SVGID_13_);}
	.st14{fill:url(#SVGID_14_);}
	.st15{fill:url(#SVGID_15_);}
	.st16{fill:url(#SVGID_16_);}
	.st17{fill:url(#SVGID_17_);}
	.st18{fill:url(#SVGID_18_);}
	.st19{fill:url(#SVGID_19_);}
	.st20{fill:url(#SVGID_20_);}
	.st21{fill:url(#SVGID_21_);}
	.st22{fill:url(#SVGID_22_);}
	.st23{fill:url(#SVGID_23_);}
	.st24{fill:url(#SVGID_24_);}
	.st25{fill:url(#SVGID_25_);}
	.st26{clip-path:url(#SVGID_27_);}
	.st27{fill:url(#SVGID_28_);}
	.st28{fill:url(#SVGID_29_);}
	.st29{fill:url(#SVGID_30_);}
	.st30{fill:url(#SVGID_31_);}
	.st31{fill:url(#SVGID_32_);}
</style>
<g>
	<g>
		<path class="st0" d="M156.7,74.8h-5.9V46.4h5.9V74.8z"/>
		<path class="st0" d="M179.8,74.8h-5.5V62c0-1.5-0.1-4.2-3.6-4.2c-2.5,0-4.4,1.7-4.4,4.9v12.1h-5.5V53.7h5.3v3.1h0.1
			c0.8-1.3,2.3-3.6,6.3-3.6c4.1,0,7.3,2.4,7.3,7.1V74.8z"/>
		<path class="st0" d="M193.8,74.8h-5.8l-7.6-21.1h6.2l4.4,15.5h0.1l4.5-15.5h5.9L193.8,74.8z"/>
		<path class="st0" d="M220.8,68.6c-1.5,5.1-5.7,6.7-9.3,6.7c-5.9,0-10.5-2.9-10.5-11.5c0-2.5,0.9-10.7,10.1-10.7
			c4.2,0,9.9,2,9.9,11.6v1h-14.5c0.2,1.6,0.5,5.1,5,5.1c1.5,0,3.1-0.8,3.6-2.3H220.8z M215.3,62.2c-0.3-3.4-2.5-4.4-4.3-4.4
			c-2.6,0-4,1.7-4.3,4.4H215.3z"/>
		<path class="st0" d="M223.7,53.7h5.3v3.6h0.1c1.1-2.1,2.4-4.2,5.8-4.2c0.4,0,0.7,0,1.1,0.1v5.6c-0.5-0.1-1.1-0.1-1.6-0.1
			c-4.3,0-5.1,2.7-5.1,5v11h-5.5V53.7z"/>
		<path class="st0" d="M249.5,60.1c-0.2-1.3-0.7-2.8-3.7-2.8s-3.4,1.1-3.4,2.1c0,3.3,13.2,0.9,13.2,8.7c0,6.1-5.9,7.2-9.2,7.2
			c-4.8,0-10-1.7-10.1-7.3h5.7c0,1.8,1.1,3.1,4.6,3.1c2.9,0,3.5-1.4,3.5-2.2c0-3.5-13.1-0.9-13.1-8.8c0-3.1,1.9-7.1,8.5-7.1
			c4.1,0,9,1,9.5,7H249.5z"/>
		<path class="st0" d="M264.4,51.2h-5.5v-5.1h5.5V51.2z M264.4,53.7v21.1h-5.5V53.7H264.4z"/>
		<path class="st0" d="M278.2,75.4c-5.7,0-10.8-3.5-10.8-11.1s5.1-11.1,10.8-11.1c5.7,0,10.8,3.5,10.8,11.1S283.9,75.4,278.2,75.4z
			 M278.2,57.8c-4.3,0-5.1,3.7-5.1,6.4c0,2.7,0.8,6.4,5.1,6.4s5.1-3.7,5.1-6.4C283.3,61.6,282.5,57.8,278.2,57.8z M279.9,50.9h-4
			l3.7-5.8h6.1L279.9,50.9z"/>
		<path class="st0" d="M311,74.8h-5.5V62c0-1.5-0.1-4.2-3.6-4.2c-2.5,0-4.4,1.7-4.4,4.9v12.1h-5.5V53.7h5.3v3.1h0.1
			c0.8-1.3,2.3-3.6,6.3-3.6c4.1,0,7.3,2.4,7.3,7.1V74.8z"/>
	</g>
	<g>
		<linearGradient id="SVGID_1_" gradientUnits="userSpaceOnUse" x1="18.3217" y1="31.136" x2="110.6564" y2="94.6161">
			<stop  offset="0" style="stop-color:#198FCE"/>
			<stop  offset="1" style="stop-color:#183059"/>
		</linearGradient>
		<circle class="st1" cx="64.5" cy="62.9" r="56.6"/>
		<g>
			<g>
				<path class="st0" d="M96.2,81.1H32.8c-1,0-1.8-0.8-1.8-1.8l0,0c0-1,0.8-1.8,1.8-1.8h63.4c1,0,1.8,0.8,1.8,1.8l0,0
					C98,80.3,97.2,81.1,96.2,81.1z"/>
			</g>
			<g>
				<linearGradient id="SVGID_2_" gradientUnits="userSpaceOnUse" x1="39.8325" y1="52.7912" x2="73.2562" y2="86.2149">
					<stop  offset="0" style="stop-color:#99D9E5"/>
					<stop  offset="0.1802" style="stop-color:#95D4E2"/>
					<stop  offset="0.3669" style="stop-color:#8ACADB"/>
					<stop  offset="0.5567" style="stop-color:#76BBD0"/>
					<stop  offset="0.7486" style="stop-color:#59A8C2"/>
					<stop  offset="0.9403" style="stop-color:#2A92B2"/>
					<stop  offset="1" style="stop-color:#058BAD"/>
				</linearGradient>
				<path class="st2" d="M96.2,79.3H32.8c-1,0-1.8-0.8-1.8-1.8v0c0-1,0.8-1.8,1.8-1.8h63.4c1,0,1.8,0.8,1.8,1.8v0
					C98,78.5,97.2,79.3,96.2,79.3z"/>
			</g>
			<g>
				<defs>
					<rect id="SVGID_26_" x="37.1" y="18.6" width="54.5" height="54.5"/>
				</defs>
				<clipPath id="SVGID_3_">
					<use xlink:href="#SVGID_26_"  style="overflow:visible;"/>
				</clipPath>
				<g style="clip-path:url(#SVGID_3_);">
					<g>
						<path class="st0" d="M65,39.3c-13.5,0-24.4,10.9-24.4,24.4S51.6,88.1,65,88.1c13.5,0,24.4-10.9,24.4-24.4S78.5,39.3,65,39.3z"
							/>
					</g>
					<g>
						<linearGradient id="SVGID_4_" gradientUnits="userSpaceOnUse" x1="48.5532" y1="43.542" x2="81.4644" y2="76.4532">
							<stop  offset="0" style="stop-color:#99D9E5"/>
							<stop  offset="0.1802" style="stop-color:#95D4E2"/>
							<stop  offset="0.3669" style="stop-color:#8ACADB"/>
							<stop  offset="0.5567" style="stop-color:#76BBD0"/>
							<stop  offset="0.7486" style="stop-color:#59A8C2"/>
							<stop  offset="0.9403" style="stop-color:#2A92B2"/>
							<stop  offset="1" style="stop-color:#058BAD"/>
						</linearGradient>
						<path class="st4" d="M60.3,56.8c0,1.5,0.9,2.1,1.9,2.5v-4.5C60.9,55,60.3,56,60.3,56.8z"/>
						<linearGradient id="SVGID_5_" gradientUnits="userSpaceOnUse" x1="46.9823" y1="45.6414" x2="80.406" y2="79.0651">
							<stop  offset="0.2564" style="stop-color:#99D9E5"/>
							<stop  offset="0.3904" style="stop-color:#95D4E2"/>
							<stop  offset="0.5293" style="stop-color:#8ACADB"/>
							<stop  offset="0.6704" style="stop-color:#76BBD0"/>
							<stop  offset="0.813" style="stop-color:#59A8C2"/>
							<stop  offset="0.9556" style="stop-color:#2A92B2"/>
							<stop  offset="1" style="stop-color:#058BAD"/>
						</linearGradient>
						<path class="st5" d="M63.6,37.8c-13.5,0-24.4,10.9-24.4,24.4s10.9,24.4,24.4,24.4C77.1,86.7,88,75.7,88,62.2
							S77.1,37.8,63.6,37.8z M65.1,71.9v1.4c0,0.8-0.6,1.4-1.4,1.4s-1.4-0.6-1.4-1.4v-1.4c-4.5-0.5-6.2-2.5-6.2-6.4h4
							c0.2,1.7,0.5,2.9,2.2,3.4v-5.9c-2.8-0.7-5.8-1.9-5.8-5.5c0-2.9,1.9-5.5,5.8-5.8v-0.4c0-0.8,0.6-1.4,1.4-1.4s1.4,0.6,1.4,1.4
							v0.5c2.3,0.3,5.4,1.3,5.8,5.8h-4c-0.1-2.1-0.9-2.7-1.8-2.8V60c2.4,0.7,3.7,1.4,4.4,2c1.7,1.4,1.7,3.2,1.7,3.9
							C71.2,68.4,69.6,71.4,65.1,71.9z"/>
						<linearGradient id="SVGID_6_" gradientUnits="userSpaceOnUse" x1="45.5298" y1="46.5654" x2="78.441" y2="79.4765">
							<stop  offset="0" style="stop-color:#99D9E5"/>
							<stop  offset="0.1802" style="stop-color:#95D4E2"/>
							<stop  offset="0.3669" style="stop-color:#8ACADB"/>
							<stop  offset="0.5567" style="stop-color:#76BBD0"/>
							<stop  offset="0.7486" style="stop-color:#59A8C2"/>
							<stop  offset="0.9403" style="stop-color:#2A92B2"/>
							<stop  offset="1" style="stop-color:#058BAD"/>
						</linearGradient>
						<path class="st6" d="M65.1,63.8v5.1c0.9-0.2,2-0.9,2-2.6C67.1,64.9,66.1,64.2,65.1,63.8z"/>
					</g>
				</g>
			</g>
		</g>
	</g>
</g>
</svg>
