<?xml version="1.0" encoding="utf-8"?>
<!-- Generator: Adobe Illustrator 19.2.1, SVG Export Plug-In . SVG Version: 6.00 Build 0)  -->
<svg version="1.1" id="Layer_1" xmlns="http://www.w3.org/2000/svg" xmlns:xlink="http://www.w3.org/1999/xlink" x="0px" y="0px"
	 viewBox="0 0 260 350" style="enable-background:new 0 0 260 350;" xml:space="preserve">
<style type="text/css">
	.st0{fill:#002E5A;}
	.st1{fill:url(#SVGID_1_);}
	.st2{fill:url(#SVGID_2_);}
	.st3{opacity:0.5;fill:url(#SVGID_3_);}
	.st4{opacity:0.5;fill:url(#SVGID_4_);}
	.st5{opacity:0.5;fill:url(#SVGID_5_);}
	.st6{opacity:0.5;fill:url(#SVGID_6_);}
	.st7{opacity:0.5;fill:url(#SVGID_7_);}
	.st8{opacity:0.5;fill:url(#SVGID_8_);}
	.st9{fill:url(#SVGID_9_);}
	.st10{fill:url(#SVGID_10_);}
	.st11{clip-path:url(#SVGID_12_);}
	.st12{fill:url(#SVGID_13_);}
	.st13{fill:url(#SVGID_14_);}
	.st14{fill:url(#SVGID_15_);}
	.st15{fill:url(#SVGID_16_);}
	.st16{fill:url(#SVGID_17_);}
	.st17{fill:url(#SVGID_18_);}
	.st18{fill:url(#SVGID_19_);}
	.st19{fill:url(#SVGID_20_);}
	.st20{fill:url(#SVGID_21_);}
	.st21{fill:url(#SVGID_22_);}
	.st22{fill:url(#SVGID_23_);}
	.st23{fill:url(#SVGID_24_);}
	.st24{fill:url(#SVGID_25_);}
	.st25{fill:url(#SVGID_26_);}
	.st26{fill:url(#SVGID_27_);}
	.st27{fill:url(#SVGID_28_);}
	.st28{fill:url(#SVGID_29_);}
	.st29{fill:url(#SVGID_30_);}
	.st30{fill:url(#SVGID_31_);}
	.st31{fill:url(#SVGID_32_);}
	.st32{fill:url(#SVGID_33_);}
	.st33{fill:url(#SVGID_34_);}
	.st34{fill:url(#SVGID_35_);}
	.st35{fill:url(#SVGID_36_);}
	.st36{fill:url(#SVGID_37_);}
	.st37{fill:url(#SVGID_38_);}
	.st38{fill:url(#SVGID_39_);}
	.st39{fill:url(#SVGID_40_);}
	.st40{fill:url(#SVGID_41_);}
	.st41{fill:url(#SVGID_42_);}
	.st42{fill:url(#SVGID_43_);}
	.st43{fill:url(#SVGID_44_);}
	.st44{fill:url(#SVGID_45_);}
	.st45{fill:url(#SVGID_46_);}
	.st46{fill:url(#SVGID_47_);}
	.st47{fill:url(#SVGID_48_);}
	.st48{fill:url(#SVGID_49_);}
	.st49{fill:url(#SVGID_50_);}
	.st50{fill:url(#SVGID_51_);}
	.st51{fill:url(#SVGID_52_);}
	.st52{opacity:0.5;fill:url(#SVGID_53_);}
	.st53{opacity:0.5;fill:url(#SVGID_54_);}
	.st54{opacity:0.5;fill:url(#SVGID_55_);}
	.st55{opacity:0.5;fill:url(#SVGID_56_);}
	.st56{opacity:0.5;fill:url(#SVGID_57_);}
	.st57{opacity:0.5;fill:url(#SVGID_58_);}
</style>
<g>
	<g>
		<linearGradient id="SVGID_1_" gradientUnits="userSpaceOnUse" x1="38.7111" y1="54.0459" x2="220.3866" y2="178.9478">
			<stop  offset="0" style="stop-color:#008FD5"/>
			<stop  offset="0.95" style="stop-color:#002E5A"/>
			<stop  offset="1" style="stop-color:#002E5A"/>
		</linearGradient>
		<circle class="st1" cx="129.6" cy="116.5" r="111.3"/>
		<g>
			<path class="st0" d="M110,96H85V75.2c0-2.7,0.3-5.2,3-5.2h22V96z"/>
			<rect x="116" y="70" class="st0" width="26" height="26"/>
			<path class="st0" d="M179,96h-28V70h22.6c2.7,0,5.4,2.5,5.4,5.2V96z"/>
			<rect x="85" y="105" class="st0" width="25" height="27"/>
			<rect x="116" y="105" class="st0" width="26" height="27"/>
			<rect x="151" y="105" class="st0" width="28" height="27"/>
			<path class="st0" d="M110,165H88c-2.7,0-3-2-3-4.7V137h25V165z"/>
			<rect x="116" y="137" class="st0" width="26" height="28"/>
			<path class="st0" d="M173.6,165H151v-28h28v23.3C179,163,176.3,165,173.6,165z"/>
		</g>
		<g>
			<linearGradient id="SVGID_2_" gradientUnits="userSpaceOnUse" x1="95.1594" y1="81.1594" x2="162.0368" y2="148.0368">
				<stop  offset="0" style="stop-color:#80FFFF"/>
				<stop  offset="0.1717" style="stop-color:#7CFBFC"/>
				<stop  offset="0.3497" style="stop-color:#6FF0F4"/>
				<stop  offset="0.5305" style="stop-color:#5BDDE7"/>
				<stop  offset="0.7134" style="stop-color:#3EC2D4"/>
				<stop  offset="0.896" style="stop-color:#19A0BC"/>
				<stop  offset="1" style="stop-color:#008AAC"/>
			</linearGradient>
			<path class="st2" d="M109,95H83V72.7c0-2.7-0.2-3.7,2.5-3.7H109V95z"/>
			<linearGradient id="SVGID_3_" gradientUnits="userSpaceOnUse" x1="111.1984" y1="65.1984" x2="175.6947" y2="129.6947">
				<stop  offset="0" style="stop-color:#80FFFF"/>
				<stop  offset="0.1717" style="stop-color:#7CFBFC"/>
				<stop  offset="0.3497" style="stop-color:#6FF0F4"/>
				<stop  offset="0.5305" style="stop-color:#5BDDE7"/>
				<stop  offset="0.7134" style="stop-color:#3EC2D4"/>
				<stop  offset="0.896" style="stop-color:#19A0BC"/>
				<stop  offset="1" style="stop-color:#008AAC"/>
			</linearGradient>
			<rect x="115" y="69" style="fill:url(#SVGID_3_);" width="26" height="26"/>
			<linearGradient id="SVGID_4_" gradientUnits="userSpaceOnUse" x1="128.9918" y1="48.7184" x2="194.7284" y2="114.455">
				<stop  offset="0" style="stop-color:#80FFFF"/>
				<stop  offset="0.1717" style="stop-color:#7CFBFC"/>
				<stop  offset="0.3497" style="stop-color:#6FF0F4"/>
				<stop  offset="0.5305" style="stop-color:#5BDDE7"/>
				<stop  offset="0.7134" style="stop-color:#3EC2D4"/>
				<stop  offset="0.896" style="stop-color:#19A0BC"/>
				<stop  offset="1" style="stop-color:#008AAC"/>
			</linearGradient>
			<path style="fill:url(#SVGID_4_);" d="M177,95h-27V69h21.1c2.7,0,5.9,1,5.9,3.7V95z"/>
			<linearGradient id="SVGID_5_" gradientUnits="userSpaceOnUse" x1="79.3218" y1="98.3218" x2="143.8181" y2="162.8181">
				<stop  offset="0" style="stop-color:#80FFFF"/>
				<stop  offset="0.1717" style="stop-color:#7CFBFC"/>
				<stop  offset="0.3497" style="stop-color:#6FF0F4"/>
				<stop  offset="0.5305" style="stop-color:#5BDDE7"/>
				<stop  offset="0.7134" style="stop-color:#3EC2D4"/>
				<stop  offset="0.896" style="stop-color:#19A0BC"/>
				<stop  offset="1" style="stop-color:#008AAC"/>
			</linearGradient>
			<rect x="83" y="102" style="fill:url(#SVGID_5_);" width="26" height="26"/>
			<linearGradient id="SVGID_6_" gradientUnits="userSpaceOnUse" x1="94.868" y1="81.868" x2="159.3643" y2="146.3643">
				<stop  offset="0" style="stop-color:#80FFFF"/>
				<stop  offset="0.1717" style="stop-color:#7CFBFC"/>
				<stop  offset="0.3497" style="stop-color:#6FF0F4"/>
				<stop  offset="0.5305" style="stop-color:#5BDDE7"/>
				<stop  offset="0.7134" style="stop-color:#3EC2D4"/>
				<stop  offset="0.896" style="stop-color:#19A0BC"/>
				<stop  offset="1" style="stop-color:#008AAC"/>
			</linearGradient>
			<rect x="115" y="102" style="fill:url(#SVGID_6_);" width="26" height="26"/>
			<linearGradient id="SVGID_7_" gradientUnits="userSpaceOnUse" x1="112.9606" y1="64.4606" x2="178.6972" y2="130.1972">
				<stop  offset="0" style="stop-color:#80FFFF"/>
				<stop  offset="0.1717" style="stop-color:#7CFBFC"/>
				<stop  offset="0.3497" style="stop-color:#6FF0F4"/>
				<stop  offset="0.5305" style="stop-color:#5BDDE7"/>
				<stop  offset="0.7134" style="stop-color:#3EC2D4"/>
				<stop  offset="0.896" style="stop-color:#19A0BC"/>
				<stop  offset="1" style="stop-color:#008AAC"/>
			</linearGradient>
			<rect x="150" y="102" style="fill:url(#SVGID_7_);" width="27" height="26"/>
			<linearGradient id="SVGID_8_" gradientUnits="userSpaceOnUse" x1="62.6364" y1="114.5767" x2="128.373" y2="180.3134">
				<stop  offset="0" style="stop-color:#80FFFF"/>
				<stop  offset="0.1717" style="stop-color:#7CFBFC"/>
				<stop  offset="0.3497" style="stop-color:#6FF0F4"/>
				<stop  offset="0.5305" style="stop-color:#5BDDE7"/>
				<stop  offset="0.7134" style="stop-color:#3EC2D4"/>
				<stop  offset="0.896" style="stop-color:#19A0BC"/>
				<stop  offset="1" style="stop-color:#008AAC"/>
			</linearGradient>
			<path style="fill:url(#SVGID_8_);" d="M109,162H85.5c-2.7,0-2.5-1.5-2.5-4.2V135h26V162z"/>
			<linearGradient id="SVGID_9_" gradientUnits="userSpaceOnUse" x1="77.5863" y1="98.0863" x2="143.323" y2="163.823">
				<stop  offset="0" style="stop-color:#80FFFF"/>
				<stop  offset="0.1717" style="stop-color:#7CFBFC"/>
				<stop  offset="0.3497" style="stop-color:#6FF0F4"/>
				<stop  offset="0.5305" style="stop-color:#5BDDE7"/>
				<stop  offset="0.7134" style="stop-color:#3EC2D4"/>
				<stop  offset="0.896" style="stop-color:#19A0BC"/>
				<stop  offset="1" style="stop-color:#008AAC"/>
			</linearGradient>
			<rect x="115" y="135" class="st9" width="26" height="27"/>
			<linearGradient id="SVGID_10_" gradientUnits="userSpaceOnUse" x1="94.9419" y1="79.9419" x2="162.0488" y2="147.0488">
				<stop  offset="0" style="stop-color:#80FFFF"/>
				<stop  offset="0.1717" style="stop-color:#7CFBFC"/>
				<stop  offset="0.3497" style="stop-color:#6FF0F4"/>
				<stop  offset="0.5305" style="stop-color:#5BDDE7"/>
				<stop  offset="0.7134" style="stop-color:#3EC2D4"/>
				<stop  offset="0.896" style="stop-color:#19A0BC"/>
				<stop  offset="1" style="stop-color:#008AAC"/>
			</linearGradient>
			<path class="st10" d="M171.1,162H150v-27h27v22.8C177,160.5,173.9,162,171.1,162z"/>
		</g>
	</g>
	<g>
		<g>
			<path class="st0" d="M24.9,325.2h-5.7c-0.8,0-1.3-0.8-1.1-1.5l12.6-35.2h8.8L52,323.7c0.3,0.7-0.3,1.5-1.1,1.5H45
				c-0.5,0-0.9-0.3-1.1-0.8l-2.1-6.8H28.3l-2.3,6.8C25.8,324.9,25.4,325.2,24.9,325.2z M30.3,311.3h9.4l-4.5-14.5H35L30.3,311.3z"/>
			<path class="st0" d="M76.6,315.3c0.7,0,1.2,0.7,1.1,1.4c-0.8,3.4-3.6,9.3-12.2,9.3c-10.2,0-12.6-7.8-12.6-13.5
				c0-8.8,3.8-15.1,13-15.1c4.1,0,10.6,1.7,11.9,9.1c0.1,0.7-0.4,1.3-1.1,1.3h-5.1c-0.5,0-0.9-0.3-1.1-0.8c-0.5-1.6-1.6-3.6-4.2-3.6
				H66c-4.5,0-5.7,4.5-5.7,7.9c0,3,0.1,8.8,5.5,8.8c3,0,4.4-2.4,4.7-3.9c0.1-0.5,0.6-0.8,1.1-0.8H76.6z"/>
			<path class="st0" d="M94,325.9c-7.3,0-13.9-4.5-13.9-14.3s6.6-14.3,13.9-14.3s13.9,4.5,13.9,14.3S101.3,325.9,94,325.9z
				 M94,303.3c-5.5,0-6.5,4.8-6.5,8.3c0,3.5,1,8.3,6.5,8.3s6.5-4.8,6.5-8.3C100.5,308.1,99.5,303.3,94,303.3z"/>
			<path class="st0" d="M150.5,325.2h-4.9c-1.2,0-2.2-1-2.2-2.2v-14.3c0-4-1.8-5.4-3.9-5.4c-3.6,0-4.9,2.4-4.9,5.6v16.3h-4.9
				c-1.2,0-2.2-1-2.2-2.2v-14.1c0-2.3,0-5.5-4.3-5.5c-3.4,0-4.4,2.4-4.4,5.3v16.6h-4.9c-1.2,0-2.2-1-2.2-2.2v-22.7
				c0-1.2,1-2.2,2.2-2.2h4.6v4h0.1c0.9-1.8,2.9-4.7,7.7-4.7c3.9,0,5.7,1.4,7.6,4.3c0.9-1.3,2.9-4.3,7.3-4.3c5.3,0,9.5,3.1,9.5,9.1
				V325.2z"/>
			<path class="st0" d="M168.1,325.9c-7.3,0-13.9-4.5-13.9-14.3s6.6-14.3,13.9-14.3c7.3,0,13.9,4.5,13.9,14.3
				S175.4,325.9,168.1,325.9z M168.1,303.3c-5.5,0-6.5,4.8-6.5,8.3c0,3.5,1,8.3,6.5,8.3c5.5,0,6.5-4.8,6.5-8.3
				C174.6,308.1,173.6,303.3,168.1,303.3z"/>
			<path class="st0" d="M210.6,325.2h-7v-3.4h-0.1c-1.7,3.1-4.9,4.1-7.9,4.1c-8.1,0-11.4-7.2-11.4-14.6c0-9.4,5.3-14,11.3-14
				c4.6,0,6.7,2.5,7.9,4.2h0.1v-10.8c0-1.2,1-2.2,2.2-2.2h4.9V325.2z M197.4,320.1c4.5,0,6.3-3.8,6.3-7.8c0-4.3-1.2-8.7-6.1-8.7
				c-4.5,0-6.1,4-6.1,8.3C191.5,315,192.8,320.1,197.4,320.1z"/>
			<path class="st0" d="M228,325.9c-7.3,0-13.9-4.5-13.9-14.3s6.6-14.3,13.9-14.3c7.3,0,13.9,4.5,13.9,14.3S235.3,325.9,228,325.9z
				 M228,303.3c-5.5,0-6.5,4.8-6.5,8.3c0,3.5,1,8.3,6.5,8.3c5.5,0,6.5-4.8,6.5-8.3C234.5,308.1,233.5,303.3,228,303.3z"/>
		</g>
	</g>
</g>
</svg>
