<?xml version="1.0" encoding="utf-8"?>
<!-- Generator: Adobe Illustrator 19.2.1, SVG Export Plug-In . SVG Version: 6.00 Build 0)  -->
<svg version="1.1" id="Layer_1" xmlns="http://www.w3.org/2000/svg" xmlns:xlink="http://www.w3.org/1999/xlink" x="0px" y="0px"
	 viewBox="0 0 411 127.6" style="enable-background:new 0 0 411 127.6;" xml:space="preserve">
<style type="text/css">
	.st0{fill:#183059;}
	.st1{fill:url(#SVGID_1_);}
	.st2{fill:url(#SVGID_2_);}
	.st3{fill:url(#SVGID_3_);}
	.st4{fill:url(#SVGID_4_);}
	.st5{fill:url(#SVGID_5_);}
	.st6{fill:url(#SVGID_6_);}
	.st7{fill:url(#SVGID_7_);}
	.st8{fill:url(#SVGID_8_);}
	.st9{fill:url(#SVGID_9_);}
	.st10{fill:url(#SVGID_10_);}
	.st11{fill:url(#SVGID_11_);}
	.st12{fill:url(#SVGID_12_);}
	.st13{fill:url(#SVGID_13_);}
	.st14{fill:url(#SVGID_14_);}
	.st15{fill:url(#SVGID_15_);}
	.st16{fill:url(#SVGID_16_);}
	.st17{fill:url(#SVGID_17_);}
	.st18{fill:url(#SVGID_18_);}
	.st19{fill:url(#SVGID_19_);}
	.st20{fill:url(#SVGID_20_);}
	.st21{fill:url(#SVGID_21_);}
	.st22{fill:url(#SVGID_22_);}
	.st23{fill:url(#SVGID_23_);}
	.st24{fill:url(#SVGID_24_);}
	.st25{fill:url(#SVGID_25_);}
	.st26{clip-path:url(#SVGID_27_);}
	.st27{fill:url(#SVGID_28_);}
	.st28{fill:url(#SVGID_29_);}
	.st29{fill:url(#SVGID_30_);}
	.st30{fill:url(#SVGID_31_);}
	.st31{fill:url(#SVGID_32_);}
</style>
<g>
	<g>
		<path class="st0" d="M156.2,75.7h-5.9V47.3h13c5.5,0,8.8,3.5,8.8,9.1c0,2.6-1.4,9.1-9.1,9.1h-6.8V75.7z M161.7,60.5
			c4.4,0,4.4-3.2,4.4-4.4c0-2.8-1.5-3.9-5.2-3.9h-4.7v8.4H161.7z"/>
		<path class="st0" d="M183.2,76.3c-5.7,0-10.8-3.5-10.8-11.1s5.1-11.1,10.8-11.1c5.7,0,10.8,3.5,10.8,11.1S188.9,76.3,183.2,76.3z
			 M183.2,58.7c-4.3,0-5.1,3.7-5.1,6.4c0,2.7,0.8,6.4,5.1,6.4s5.1-3.7,5.1-6.4C188.3,62.5,187.5,58.7,183.2,58.7z"/>
		<path class="st0" d="M196.9,54.6h5.3v3.6h0.1c1.1-2.1,2.4-4.2,5.8-4.2c0.4,0,0.7,0,1.1,0.1v5.6c-0.5-0.1-1.1-0.1-1.6-0.1
			c-4.3,0-5.1,2.7-5.1,5v11h-5.5V54.6z"/>
		<path class="st0" d="M218.4,54.6h3.4v4h-3.4V70c0,1.2,0,1.7,2.3,1.7c0.4,0,0.8,0,1.1-0.1v4.2c-0.9,0-1.7,0.1-2.6,0.1h-0.7
			c-4.8,0-5.7-1.8-5.7-4.6V58.6H210v-4h2.9v-5.7h5.5V54.6z"/>
		<path class="st0" d="M241.5,71.6c0,2.5,0.6,3.1,1.2,3.3v0.8h-6c-0.3-1-0.4-1.3-0.5-2.5c-1.3,1.3-3,3.1-6.8,3.1
			c-3.2,0-6.4-1.8-6.4-6.1c0-4.1,2.6-6.2,6.1-6.7l5-0.8c0.9-0.1,1.9-0.5,1.9-1.7c0-2.3-2.2-2.5-3.6-2.5c-2.8,0-3.2,1.7-3.4,2.9h-5.3
			c0.6-6.5,5.1-7.4,9.4-7.4c3,0,8.4,0.9,8.4,6.1V71.6z M236,65.4c-0.6,0.4-1.5,0.8-3.8,1.1c-2.1,0.4-3.8,0.9-3.8,3.2
			c0,1.9,1.5,2.5,2.6,2.5c2.5,0,5-1.6,5-4.2V65.4z"/>
		<path class="st0" d="M251.9,75.7h-5.5V58.6h-3v-4h3v-1.7c0-4.4,2.4-6,6.2-6c1.6,0,2.4,0,2.9,0.1v4.5h-1.5c-1.9,0-1.9,0.6-1.9,2.3
			v0.8h3.6v4h-3.6V75.7z"/>
		<path class="st0" d="M266.4,76.3c-5.7,0-10.8-3.5-10.8-11.1s5.1-11.1,10.8-11.1c5.7,0,10.8,3.5,10.8,11.1S272.1,76.3,266.4,76.3z
			 M266.4,58.7c-4.3,0-5.1,3.7-5.1,6.4c0,2.7,0.8,6.4,5.1,6.4s5.1-3.7,5.1-6.4C271.5,62.5,270.7,58.7,266.4,58.7z"/>
		<path class="st0" d="M285.8,75.7h-5.5V47.3h5.5V75.7z"/>
		<path class="st0" d="M295.9,52.1h-5.5V47h5.5V52.1z M295.9,54.6v21.1h-5.5V54.6H295.9z"/>
		<path class="st0" d="M309.8,76.3c-5.7,0-10.8-3.5-10.8-11.1s5.1-11.1,10.8-11.1c5.7,0,10.8,3.5,10.8,11.1S315.4,76.3,309.8,76.3z
			 M309.8,58.7c-4.3,0-5.1,3.7-5.1,6.4c0,2.7,0.8,6.4,5.1,6.4s5.1-3.7,5.1-6.4C314.8,62.5,314,58.7,309.8,58.7z"/>
	</g>
	<g>
		<linearGradient id="SVGID_1_" gradientUnits="userSpaceOnUse" x1="18.3217" y1="32.036" x2="110.6564" y2="95.5161">
			<stop  offset="0" style="stop-color:#198FCE"/>
			<stop  offset="1" style="stop-color:#183059"/>
		</linearGradient>
		<circle class="st1" cx="64.5" cy="63.8" r="56.6"/>
		<g>
			<g>
				<path class="st0" d="M90.6,48.9h-9v-8.6c0-1.9-1.5-3.4-3.4-3.4H52.1c-1.9,0-3.4,1.5-3.4,3.4v8.6h-9c-2.8,0-5.1,2.3-5.1,5.1v32.8
					c0,2.8,2.3,5.1,5.1,5.1h51c2.8,0,5.1-2.3,5.1-5.1V54C95.7,51.2,93.4,48.9,90.6,48.9z M53.8,42.1h22.6v6.8H53.8V42.1z"/>
			</g>
		</g>
		<g>
			<g>
				<linearGradient id="SVGID_2_" gradientUnits="userSpaceOnUse" x1="43.1029" y1="48.3844" x2="86.3888" y2="91.6703">
					<stop  offset="0" style="stop-color:#99D9E5"/>
					<stop  offset="0.1802" style="stop-color:#95D4E2"/>
					<stop  offset="0.3669" style="stop-color:#8ACADB"/>
					<stop  offset="0.5567" style="stop-color:#76BBD0"/>
					<stop  offset="0.7486" style="stop-color:#59A8C2"/>
					<stop  offset="0.9403" style="stop-color:#2A92B2"/>
					<stop  offset="1" style="stop-color:#058BAD"/>
				</linearGradient>
				<path class="st2" d="M89.3,47.6h-9v-8.6c0-1.9-1.5-3.4-3.4-3.4H50.8c-1.9,0-3.4,1.5-3.4,3.4v8.6h-9c-2.8,0-5.1,2.3-5.1,5.1v32.8
					c0,2.8,2.3,5.1,5.1,5.1h51c2.8,0,5.1-2.3,5.1-5.1V52.7C94.4,49.9,92.2,47.6,89.3,47.6z M52.6,40.8h22.6v6.8H52.6V40.8z"/>
			</g>
		</g>
	</g>
</g>
</svg>
