<?xml version="1.0" encoding="utf-8"?>
<!-- Generator: Adobe Illustrator 19.2.1, SVG Export Plug-In . SVG Version: 6.00 Build 0)  -->
<svg version="1.1" id="Layer_1" xmlns="http://www.w3.org/2000/svg" xmlns:xlink="http://www.w3.org/1999/xlink" x="0px" y="0px"
	 viewBox="0 0 260 350" style="enable-background:new 0 0 260 350;" xml:space="preserve">
<style type="text/css">
	.st0{fill:#002E5A;}
	.st1{fill:url(#SVGID_1_);}
	.st2{fill:url(#SVGID_2_);}
	.st3{opacity:0.5;fill:url(#SVGID_3_);}
	.st4{opacity:0.5;fill:url(#SVGID_4_);}
	.st5{opacity:0.5;fill:url(#SVGID_5_);}
	.st6{opacity:0.5;fill:url(#SVGID_6_);}
	.st7{opacity:0.5;fill:url(#SVGID_7_);}
	.st8{opacity:0.5;fill:url(#SVGID_8_);}
	.st9{fill:url(#SVGID_9_);}
	.st10{fill:url(#SVGID_10_);}
	.st11{clip-path:url(#SVGID_12_);}
	.st12{fill:url(#SVGID_13_);}
	.st13{fill:url(#SVGID_14_);}
	.st14{fill:url(#SVGID_15_);}
	.st15{fill:url(#SVGID_16_);}
	.st16{fill:url(#SVGID_17_);}
	.st17{fill:url(#SVGID_18_);}
	.st18{fill:url(#SVGID_19_);}
	.st19{fill:url(#SVGID_20_);}
	.st20{fill:url(#SVGID_21_);}
	.st21{fill:url(#SVGID_22_);}
	.st22{fill:url(#SVGID_23_);}
	.st23{fill:url(#SVGID_24_);}
	.st24{fill:url(#SVGID_25_);}
	.st25{fill:url(#SVGID_26_);}
	.st26{fill:url(#SVGID_27_);}
	.st27{fill:url(#SVGID_28_);}
	.st28{fill:url(#SVGID_29_);}
	.st29{fill:url(#SVGID_30_);}
	.st30{fill:url(#SVGID_31_);}
	.st31{fill:url(#SVGID_32_);}
	.st32{fill:url(#SVGID_33_);}
	.st33{fill:url(#SVGID_34_);}
	.st34{fill:url(#SVGID_35_);}
	.st35{fill:url(#SVGID_36_);}
	.st36{fill:url(#SVGID_37_);}
	.st37{fill:url(#SVGID_38_);}
	.st38{fill:url(#SVGID_39_);}
	.st39{fill:url(#SVGID_40_);}
	.st40{fill:url(#SVGID_41_);}
	.st41{fill:url(#SVGID_42_);}
	.st42{fill:url(#SVGID_43_);}
	.st43{fill:url(#SVGID_44_);}
	.st44{fill:url(#SVGID_45_);}
	.st45{fill:url(#SVGID_46_);}
	.st46{fill:url(#SVGID_47_);}
	.st47{fill:url(#SVGID_48_);}
	.st48{fill:url(#SVGID_49_);}
	.st49{fill:url(#SVGID_50_);}
	.st50{fill:url(#SVGID_51_);}
	.st51{fill:url(#SVGID_52_);}
	.st52{opacity:0.5;fill:url(#SVGID_53_);}
	.st53{opacity:0.5;fill:url(#SVGID_54_);}
	.st54{opacity:0.5;fill:url(#SVGID_55_);}
	.st55{opacity:0.5;fill:url(#SVGID_56_);}
	.st56{opacity:0.5;fill:url(#SVGID_57_);}
	.st57{opacity:0.5;fill:url(#SVGID_58_);}
</style>
<g>
	<g>
		<linearGradient id="SVGID_1_" gradientUnits="userSpaceOnUse" x1="39.1524" y1="54.0459" x2="220.8279" y2="178.9478">
			<stop  offset="0" style="stop-color:#008FD5"/>
			<stop  offset="0.95" style="stop-color:#002E5A"/>
			<stop  offset="1" style="stop-color:#002E5A"/>
		</linearGradient>
		<circle class="st1" cx="130" cy="116.5" r="111.3"/>
		<g>
			<path class="st0" d="M140.4,132.5c-1.6,1.6-1.6,4.1,0,5.7s4.1,1.6,5.7,0c1.6-1.6,1.6-4.1,0-5.7
				C144.6,130.9,142,130.9,140.4,132.5z"/>
			<path class="st0" d="M120.4,116.1c-1.6-1.6-4.1-1.6-5.7,0c-1.6,1.6-1.6,4.1,0,5.7s4.1,1.6,5.7,0
				C121.9,120.2,121.9,117.7,120.4,116.1z"/>
			<path class="st0" d="M184.9,61.1c-1.3-3-5.1-8.1-16.7-8.1c-0.1,0-0.2,0-0.4,0c-7.2,0-15.7,1.7-24,5.2c-1.5,0.6-3,1.2-4.5,1.9
				l-0.1-0.1c-4.8-4.7-12.4-4.7-17.2,0L98.2,82.8c-3.1,3-5.2,7.1-5.2,11.5v77.2c0,6.2,5.7,11.5,11.9,11.5h51.3
				c6.2,0,10.7-5.3,10.7-11.5V94.3c0-2.2-0.2-4.4-1.1-6.4c5-2.8,9.4-5.9,12.8-9.3C186.8,70.4,186.1,64.1,184.9,61.1z M154.1,83.2
				c-4.9,2-9.9,3.5-14.5,4.1c0,0.2,0,0.4,0,0.6c0,5.2-4.2,9.3-9.3,9.3c-5.2,0-9.3-4.2-9.3-9.3s4.2-9.3,9.3-9.3
				c3.1,0,5.8,1.5,7.5,3.8c4.3-0.7,9-2.1,13.6-4c1.6-0.7,3.1-1.4,4.6-2.1l-9.4-9.2c0.3-0.1,0.5-0.8,0.8-0.9c7.2-3,14.6-5.2,20.4-5.2
				c0.1,0,0.2,0,0.3,0c5.6,2,7.7,2.2,8,3C177.1,66.4,170.8,76.3,154.1,83.2z"/>
		</g>
		<g>
			<linearGradient id="SVGID_2_" gradientUnits="userSpaceOnUse" x1="93.6639" y1="85.7858" x2="165.0637" y2="157.1857">
				<stop  offset="0" style="stop-color:#80FFFF"/>
				<stop  offset="0.1717" style="stop-color:#7CFBFC"/>
				<stop  offset="0.3497" style="stop-color:#6FF0F4"/>
				<stop  offset="0.5305" style="stop-color:#5BDDE7"/>
				<stop  offset="0.7134" style="stop-color:#3EC2D4"/>
				<stop  offset="0.896" style="stop-color:#19A0BC"/>
				<stop  offset="1" style="stop-color:#008AAC"/>
			</linearGradient>
			<path class="st2" d="M137.9,130.1c-1.6,1.6-1.6,4.1,0,5.7s4.1,1.6,5.7,0c1.6-1.6,1.6-4.1,0-5.7
				C142.1,128.5,139.5,128.5,137.9,130.1z"/>
			<linearGradient id="SVGID_3_" gradientUnits="userSpaceOnUse" x1="89.0227" y1="90.427" x2="160.4225" y2="161.8269">
				<stop  offset="0" style="stop-color:#80FFFF"/>
				<stop  offset="0.1717" style="stop-color:#7CFBFC"/>
				<stop  offset="0.3497" style="stop-color:#6FF0F4"/>
				<stop  offset="0.5305" style="stop-color:#5BDDE7"/>
				<stop  offset="0.7134" style="stop-color:#3EC2D4"/>
				<stop  offset="0.896" style="stop-color:#19A0BC"/>
				<stop  offset="1" style="stop-color:#008AAC"/>
			</linearGradient>
			<path style="fill:url(#SVGID_3_);" d="M117.9,113.6c-1.6-1.6-4.1-1.6-5.7,0c-1.6,1.6-1.6,4.1,0,5.7s4.1,1.6,5.7,0
				C119.5,117.7,119.5,115.2,117.9,113.6z"/>
			<linearGradient id="SVGID_4_" gradientUnits="userSpaceOnUse" x1="100.4691" y1="79.4468" x2="171.8247" y2="150.8024">
				<stop  offset="0" style="stop-color:#80FFFF"/>
				<stop  offset="0.1717" style="stop-color:#7CFBFC"/>
				<stop  offset="0.3497" style="stop-color:#6FF0F4"/>
				<stop  offset="0.5305" style="stop-color:#5BDDE7"/>
				<stop  offset="0.7134" style="stop-color:#3EC2D4"/>
				<stop  offset="0.896" style="stop-color:#19A0BC"/>
				<stop  offset="1" style="stop-color:#008AAC"/>
			</linearGradient>
			<path style="fill:url(#SVGID_4_);" d="M182.4,59.4c-1.3-3-5.1-7.4-16.7-7.4c-0.1,0-0.2,0-0.4,0c-7.2,0-15.7,1-24,4.5
				c-1.5,0.6-3,0.9-4.5,1.6l-0.1-0.3c-4.8-4.7-12.4-4.8-17.2-0.1l-23,22.7c-3.1,3-4.5,7.1-4.5,11.4V169c0,6.2,4.2,11,10.5,11h51.3
				c6.2,0,12.2-4.8,12.2-11V91.8c0-2.2-0.9-4.4-1.8-6.4c5-2.8,9.1-5.5,12.4-8.9C184.7,68.3,183.7,62.4,182.4,59.4z M105.3,116.5
				c0-5.4,4.4-9.8,9.8-9.8c5.4,0,9.8,4.4,9.8,9.8s-4.4,9.8-9.8,9.8C109.7,126.2,105.3,121.9,105.3,116.5z M113.6,142
				c-1-0.9-1.1-2.3-0.3-3.4l25.6-30.9c0.9-1,2.3-1.1,3.4-0.3c1,0.9,1.1,2.3,0.3,3.4l-25.6,30.9C116.1,142.7,114.6,142.8,113.6,142z
				 M140.8,142.7c-5.4,0-9.8-4.4-9.8-9.8c0-5.4,4.4-9.8,9.8-9.8s9.8,4.4,9.8,9.8C150.6,138.3,146.2,142.7,140.8,142.7z M151.6,80.7
				c-4.9,2-9.9,3.5-14.5,4.1c0,0.2,0,0.4,0,0.6c0,5.2-4.2,9.3-9.3,9.3c-5.2,0-9.3-4.2-9.3-9.3s4.2-9.3,9.3-9.3
				c3.1,0,5.8,1.5,7.5,3.8c4.3-0.7,9-2.1,13.6-4c1.6-0.7,3.1-1.4,4.6-2.1l-9.4-9.2c0.3-0.1,0.5-0.6,0.8-0.7c7.2-3,14.6-5,20.4-5
				c0.1,0,0.2,0,0.3,0c5.6,0,7.7,1.9,8,2.7C174.6,64.2,168.4,73.9,151.6,80.7z"/>
		</g>
	</g>
	<g>
		<g>
			<path class="st0" d="M14,326.9H8.5c-1.2,0-2.2-1-2.2-2.2v-32.2c0-1.2,1-2.2,2.2-2.2h14.5c7.1,0,11.4,4.5,11.4,11.8
				c0,3.3-1.8,11.7-11.7,11.7H14V326.9z M21.1,307.3c5.7,0,5.7-4.1,5.7-5.7c0-3.6-2-5.1-6.7-5.1H14v10.8H21.1z"/>
			<path class="st0" d="M39.7,299.7h4.6v4.7h0.1c1.5-2.8,3.1-5.4,7.5-5.4c0.5,0,0.9,0.1,1.4,0.1v7.3c-0.6-0.1-1.4-0.1-2-0.1
				c-5.6,0-6.6,3.5-6.6,6.5v14.2h-4.9c-1.2,0-2.2-1-2.2-2.2v-22.7C37.5,300.7,38.5,299.7,39.7,299.7z"/>
			<path class="st0" d="M67.4,327.6c-7.3,0-13.9-4.5-13.9-14.3s6.6-14.3,13.9-14.3c7.3,0,13.9,4.5,13.9,14.3S74.7,327.6,67.4,327.6z
				 M67.4,305c-5.5,0-6.5,4.8-6.5,8.3s1,8.3,6.5,8.3s6.5-4.8,6.5-8.3S72.9,305,67.4,305z"/>
			<path class="st0" d="M123.9,326.9H119c-1.2,0-2.2-1-2.2-2.2v-14.3c0-4-1.8-5.4-3.9-5.4c-3.6,0-4.9,2.4-4.9,5.6v16.3h-4.9
				c-1.2,0-2.2-1-2.2-2.2v-14.1c0-2.3,0-5.5-4.3-5.5c-3.4,0-4.4,2.4-4.4,5.3v16.6h-4.9c-1.2,0-2.2-1-2.2-2.2v-22.7
				c0-1.2,1-2.2,2.2-2.2h4.6v4h0.1c0.9-1.8,2.9-4.7,7.7-4.7c3.9,0,5.7,1.4,7.6,4.3c0.9-1.3,2.9-4.3,7.3-4.3c5.3,0,9.5,3.1,9.5,9.1
				V326.9z"/>
			<path class="st0" d="M141.5,327.6c-7.3,0-13.9-4.5-13.9-14.3s6.6-14.3,13.9-14.3c7.3,0,13.9,4.5,13.9,14.3
				S148.8,327.6,141.5,327.6z M141.5,305c-5.5,0-6.5,4.8-6.5,8.3s1,8.3,6.5,8.3c5.5,0,6.5-4.8,6.5-8.3S147,305,141.5,305z"/>
			<path class="st0" d="M181.2,316.9c0.7,0,1.2,0.7,1.1,1.4c-0.8,3.4-3.6,9.3-12.2,9.3c-10.2,0-12.6-7.8-12.6-13.5
				c0-8.8,3.8-15.1,13-15.1c4.1,0,10.6,1.7,11.9,9.1c0.1,0.7-0.4,1.3-1.1,1.3h-5.1c-0.5,0-0.9-0.3-1.1-0.8c-0.5-1.6-1.6-3.6-4.2-3.6
				h-0.4c-4.5,0-5.7,4.5-5.7,7.9c0,3,0.1,8.8,5.5,8.8c3,0,4.4-2.4,4.7-3.9c0.1-0.5,0.6-0.8,1.1-0.8H181.2z"/>
			<path class="st0" d="M193.6,296.4h-4.9c-1.2,0-2.2-1-2.2-2.2V292c0-1.2,1-2.2,2.2-2.2h4.9V296.4z M193.6,299.7v27.2h-4.9
				c-1.2,0-2.2-1-2.2-2.2v-22.7c0-1.2,1-2.2,2.2-2.2H193.6z"/>
			<path class="st0" d="M211.5,327.6c-7.3,0-13.9-4.5-13.9-14.3s6.6-14.3,13.9-14.3c7.3,0,13.9,4.5,13.9,14.3
				S218.8,327.6,211.5,327.6z M211.5,305c-5.5,0-6.5,4.8-6.5,8.3s1,8.3,6.5,8.3c5.5,0,6.5-4.8,6.5-8.3S217,305,211.5,305z
				 M213.6,296h-5.2l4.8-7.5h7.9L213.6,296z"/>
			<path class="st0" d="M253.7,326.9h-4.9c-1.2,0-2.2-1-2.2-2.2v-14.3c0-2-0.1-5.4-4.7-5.4c-3.2,0-5.6,2.1-5.6,6.3v15.6h-4.9
				c-1.2,0-2.2-1-2.2-2.2v-22.7c0-1.2,1-2.2,2.2-2.2h4.6v4h0.1c1-1.6,3-4.7,8.2-4.7c5.3,0,9.5,3.1,9.5,9.1V326.9z"/>
		</g>
	</g>
</g>
</svg>
