<?xml version="1.0" encoding="utf-8"?>
<!-- Generator: Adobe Illustrator 19.2.1, SVG Export Plug-In . SVG Version: 6.00 Build 0)  -->
<svg version="1.1" id="Layer_1" xmlns="http://www.w3.org/2000/svg" xmlns:xlink="http://www.w3.org/1999/xlink" x="0px" y="0px"
	 viewBox="0 0 500 500" style="enable-background:new 0 0 500 500;" xml:space="preserve">
<style type="text/css">
	.st0{fill:#ECEFF1;}
	.st1{fill:#1976D2;}
	.st2{fill:#1565C0;}
	.st3{fill:#FAFAFA;}
</style>
<path class="st0" d="M479.7,418.4H265.3c-8.5,0-15.3-6.8-15.3-15.3s0-297.8,0-306.2s6.9-15.3,15.3-15.3h214.4
	c8.5,0,15.3,6.9,15.3,15.3v306.2C495,411.6,488.1,418.4,479.7,418.4z"/>
<g>
	<path class="st1" d="M418.4,173.4H265.3c-8.5,0-15.3-6.8-15.3-15.3s6.9-15.3,15.3-15.3h153.1c8.5,0,15.3,6.9,15.3,15.3
		S426.9,173.4,418.4,173.4z"/>
	<path class="st1" d="M418.4,234.7H265.3c-8.5,0-15.3-6.8-15.3-15.3s6.9-15.3,15.3-15.3h153.1c8.5,0,15.3,6.9,15.3,15.3
		S426.9,234.7,418.4,234.7z"/>
	<path class="st1" d="M418.4,295.9H265.3c-8.5,0-15.3-6.8-15.3-15.3s6.9-15.3,15.3-15.3h153.1c8.5,0,15.3,6.9,15.3,15.3
		S426.9,295.9,418.4,295.9z"/>
	<path class="st1" d="M418.4,357.2H265.3c-8.5,0-15.3-6.8-15.3-15.3s6.9-15.3,15.3-15.3h153.1c8.5,0,15.3,6.9,15.3,15.3
		S426.9,357.2,418.4,357.2z"/>
</g>
<path class="st2" d="M275.1,23.9c-3.5-2.9-8.2-4.2-12.6-3.3l-245,45.9C10.3,67.9,5,74.2,5,81.6v336.9c0,7.4,5.2,13.7,12.5,15
	l245,45.9c0.9,0.2,1.9,0.3,2.8,0.3c3.6,0,7-1.2,9.8-3.5c3.5-2.9,5.5-7.2,5.5-11.8V35.6C280.6,31.1,278.6,26.8,275.1,23.9z"/>
<path class="st3" d="M204,328.3c-0.8,7-6.3,12.6-13.3,13.5c-0.6,0.1-1.3,0.1-1.9,0.1c-6.3,0-12.1-3.9-14.3-9.9l-31.6-84.3L111.2,332
	c-2.4,6.6-8.9,10.6-16,9.8c-7-0.7-12.5-6.1-13.5-13.1L66.4,221.5c-1.2-8.3,4.6-16.1,13-17.3c8.4-1.2,16.1,4.6,17.3,13l6.8,47.9
	l24.9-66.4c4.5-11.9,24.2-11.9,28.7,0l23.5,62.5l8.2-74.2c0.9-8.4,8.7-14.4,16.9-13.5c8.4,1,14.5,8.5,13.5,16.9L204,328.3z"/>
</svg>
