<?xml version="1.0" encoding="utf-8"?>
<!-- Generator: Adobe Illustrator 19.2.1, SVG Export Plug-In . SVG Version: 6.00 Build 0)  -->
<svg version="1.1" id="Capa_1" xmlns="http://www.w3.org/2000/svg" xmlns:xlink="http://www.w3.org/1999/xlink" x="0px" y="0px"
	 viewBox="0 0 500 500" style="enable-background:new 0 0 500 500;" xml:space="preserve">
<style type="text/css">
	.st0{fill:#ECEFF1;}
	.st1{fill:#F57C00;}
	.st2{fill:#EF6C00;}
	.st3{fill:#FAFAFA;}
</style>
<g>
	<path class="st0" d="M479.7,81.6H265.3c-8.5,0-15.3,6.9-15.3,15.3v306.2c0,8.5,6.9,15.3,15.3,15.3h214.4c8.5,0,15.3-6.9,15.3-15.3
		V96.9C495,88.4,488.1,81.6,479.7,81.6z"/>
	<g>
		<path class="st1" d="M418.4,357.2H265.3c-8.5,0-15.3-6.9-15.3-15.3c0-8.5,6.9-15.3,15.3-15.3h153.1c8.5,0,15.3,6.9,15.3,15.3
			C433.8,350.3,426.9,357.2,418.4,357.2z"/>
		<path class="st1" d="M341.9,142.8c-42.3,0-76.6,34.3-76.6,76.6s34.3,76.6,76.6,76.6s76.6-34.3,76.6-76.6h-76.6V142.8z"/>
		<path class="st1" d="M372.5,112.2v76.6h76.6C449.1,146.5,414.8,112.2,372.5,112.2z"/>
	</g>
	<path class="st2" d="M275.1,23.8c-3.5-2.9-8.2-4.2-12.6-3.2l-245,45.9C10.2,67.9,5,74.2,5,81.6v336.9c0,7.3,5.2,13.7,12.5,15
		l245,45.9c0.9,0.2,1.9,0.3,2.8,0.3c3.6,0,7-1.2,9.8-3.5c3.5-2.9,5.5-7.3,5.5-11.8V35.6C280.6,31.1,278.6,26.8,275.1,23.8z"/>
	<path class="st3" d="M112.2,357.2c-8.5,0-15.3-6.9-15.3-15.3V188.8c0-8.5,6.9-15.3,15.3-15.3h45.9c33.8,0,61.2,27.5,61.2,61.2
		s-27.5,61.2-61.2,61.2h-30.6v45.9C127.5,350.3,120.6,357.2,112.2,357.2z M127.5,265.3h30.6c16.9,0,30.6-13.8,30.6-30.6
		s-13.8-30.6-30.6-30.6h-30.6V265.3z"/>
</g>
</svg>
