<?xml version="1.0" encoding="utf-8"?>
<!-- Generator: Adobe Illustrator 19.2.1, SVG Export Plug-In . SVG Version: 6.00 Build 0)  -->
<svg version="1.1" id="Capa_1" xmlns="http://www.w3.org/2000/svg" xmlns:xlink="http://www.w3.org/1999/xlink" x="0px" y="0px"
	 viewBox="0 0 500 500" style="enable-background:new 0 0 500 500;" xml:space="preserve">
<style type="text/css">
	.st0{fill:#E9E9E0;}
	.st1{fill:#D9D7CA;}
	.st2{fill:#CC4B4C;}
	.st3{fill:#FFFFFF;}
</style>
<g>
	<path class="st0" d="M328.6,5H74.7c-7.1,0-12.8,5.7-12.8,16.9v464.4c0,3,5.7,8.8,12.8,8.8h350.6c7.1,0,12.8-5.7,12.8-8.8V118.6
		c0-6.1-0.8-8-2.2-9.5L334.1,7.2C332.6,5.8,330.7,5,328.6,5z"/>
	<polygon class="st1" points="333.1,6.3 333.1,110 436.8,110 	"/>
	<path class="st2" d="M175.7,296.6L175.7,296.6c-3,0-6-1-8.5-2.9c-9.1-6.8-10.3-14.4-9.8-19.6c1.6-14.2,19.2-29.2,52.4-44.3
		c13.2-28.8,25.7-64.4,33.1-94.1c-8.7-19-17.2-43.7-11-58.1c2.2-5.1,4.9-9,9.9-10.6c2-0.7,7-1.5,8.9-1.5c4.4,0,8.3,5.7,11,9.2
		c2.6,3.3,8.4,10.3-3.3,59.5c11.8,24.4,28.5,49.2,44.5,66.2c11.5-2.1,21.3-3.1,29.4-3.1c13.7,0,22,3.2,25.4,9.8
		c2.8,5.4,1.7,11.8-3.4,18.9c-4.9,6.8-11.6,10.4-19.4,10.4c-10.6,0-23-6.7-36.8-20c-24.8,5.2-53.8,14.4-77.2,24.7
		c-7.3,15.5-14.3,28-20.9,37.2C191.1,290.7,183.4,296.6,175.7,296.6z M199,251.7c-18.7,10.5-26.3,19.1-26.9,24
		c-0.1,0.8-0.3,2.9,3.8,6.1C177.2,281.4,184.9,277.9,199,251.7z M318.4,212.9c7.1,5.5,8.9,8.3,13.5,8.3c2,0,7.9-0.1,10.6-3.9
		c1.3-1.8,1.8-3,2-3.6c-1.1-0.6-2.5-1.7-10.3-1.7C329.8,211.9,324.2,212.1,318.4,212.9z M253,155.3c-6.3,21.6-14.5,45-23.4,66.2
		c18.3-7.1,38.2-13.3,56.8-17.7C274.6,190.1,262.8,172.9,253,155.3z M247.7,81.2c-0.9,0.3-11.6,15.4,0.8,28.1
		C256.8,90.9,248.1,81.1,247.7,81.2z"/>
	<path class="st2" d="M425.3,495H74.7c-7.1,0-12.8-5.7-12.8-12.8V346.2h376.2v135.9C438.1,489.3,432.4,495,425.3,495z"/>
	<g>
		<path class="st3" d="M157.1,468.8h-14.4v-88.2h25.4c3.7,0,7.5,0.6,11.1,1.8c3.7,1.2,7,3,9.9,5.4c2.9,2.4,5.3,5.3,7.1,8.7
			c1.8,3.4,2.7,7.2,2.7,11.4c0,4.5-0.8,8.5-2.3,12.1s-3.6,6.7-6.3,9.2c-2.7,2.5-6,4.4-9.8,5.7c-3.8,1.4-8.1,2-12.7,2h-10.6
			L157.1,468.8L157.1,468.8z M157.1,391.5v34.9h13.2c1.8,0,3.5-0.3,5.2-0.9c1.7-0.6,3.3-1.6,4.7-2.9c1.4-1.4,2.6-3.2,3.5-5.7
			s1.3-5.4,1.3-9c0-1.4-0.2-3.1-0.6-5c-0.4-1.9-1.2-3.7-2.4-5.4c-1.2-1.7-3-3.2-5.2-4.3s-5.2-1.7-8.9-1.7L157.1,391.5L157.1,391.5z"
			/>
		<path class="st3" d="M286.9,422.2c0,7.3-0.8,13.5-2.3,18.6c-1.6,5.1-3.5,9.5-5.9,12.9c-2.4,3.5-5.1,6.2-8.1,8.2
			c-3,2-5.9,3.5-8.7,4.5c-2.8,1-5.3,1.6-7.7,1.9c-2.3,0.3-4,0.4-5.1,0.4h-33.4v-88.2h26.6c7.4,0,13.9,1.2,19.6,3.5
			c5.6,2.3,10.3,5.5,14,9.4s6.5,8.4,8.3,13.3C286,411.8,286.9,417,286.9,422.2z M244.3,458.2c9.7,0,16.7-3.1,21.1-9.3
			c4.3-6.2,6.5-15.2,6.5-27c0-3.7-0.4-7.3-1.3-10.9c-0.9-3.6-2.6-6.8-5.1-9.7c-2.5-2.9-5.9-5.3-10.2-7.1c-4.3-1.8-9.9-2.7-16.7-2.7
			h-8.4v66.8C230.1,458.2,244.3,458.2,244.3,458.2z"/>
		<path class="st3" d="M322.3,391.5v27.8h36.8v9.8h-36.8v39.7h-14.6v-88.2h55.1v10.9H322.3z"/>
	</g>
</g>
</svg>
