<?xml version="1.0" encoding="utf-8"?>
<!-- Generator: Adobe Illustrator 19.2.1, SVG Export Plug-In . SVG Version: 6.00 Build 0)  -->
<svg version="1.1" id="Capa_1" xmlns="http://www.w3.org/2000/svg" xmlns:xlink="http://www.w3.org/1999/xlink" x="0px" y="0px"
	 viewBox="0 0 500 500" style="enable-background:new 0 0 500 500;" xml:space="preserve">
<style type="text/css">
	.st0{fill:#ECEFF1;}
	.st1{fill:#388E3C;}
	.st2{fill:#2E7D32;}
	.st3{fill:#FAFAFA;}
</style>
<g>
	<path class="st0" d="M479.7,418.4H265.3c-8.5,0-15.3-6.9-15.3-15.3c0-8.5,0-297.8,0-306.2s6.9-15.3,15.3-15.3h214.4
		c8.5,0,15.3,6.9,15.3,15.3v306.2C495,411.6,488.1,418.4,479.7,418.4z"/>
	<g>
		<path class="st1" d="M326.6,173.4h-61.2c-8.5,0-15.3-6.9-15.3-15.3s6.9-15.3,15.3-15.3h61.2c8.5,0,15.3,6.9,15.3,15.3
			S335,173.4,326.6,173.4z"/>
		<path class="st1" d="M326.6,234.7h-61.2c-8.5,0-15.3-6.9-15.3-15.3s6.9-15.3,15.3-15.3h61.2c8.5,0,15.3,6.9,15.3,15.3
			S335,234.7,326.6,234.7z"/>
		<path class="st1" d="M326.6,295.9h-61.2c-8.5,0-15.3-6.9-15.3-15.3c0-8.5,6.9-15.3,15.3-15.3h61.2c8.5,0,15.3,6.9,15.3,15.3
			C341.9,289.1,335,295.9,326.6,295.9z"/>
		<path class="st1" d="M326.6,357.2h-61.2c-8.5,0-15.3-6.9-15.3-15.3c0-8.5,6.9-15.3,15.3-15.3h61.2c8.5,0,15.3,6.9,15.3,15.3
			C341.9,350.3,335,357.2,326.6,357.2z"/>
		<path class="st1" d="M418.4,173.4h-30.6c-8.5,0-15.3-6.9-15.3-15.3s6.9-15.3,15.3-15.3h30.6c8.5,0,15.3,6.9,15.3,15.3
			S426.9,173.4,418.4,173.4z"/>
		<path class="st1" d="M418.4,234.7h-30.6c-8.5,0-15.3-6.9-15.3-15.3s6.9-15.3,15.3-15.3h30.6c8.5,0,15.3,6.9,15.3,15.3
			S426.9,234.7,418.4,234.7z"/>
		<path class="st1" d="M418.4,295.9h-30.6c-8.5,0-15.3-6.9-15.3-15.3c0-8.5,6.9-15.3,15.3-15.3h30.6c8.5,0,15.3,6.9,15.3,15.3
			C433.8,289.1,426.9,295.9,418.4,295.9z"/>
		<path class="st1" d="M418.4,357.2h-30.6c-8.5,0-15.3-6.9-15.3-15.3c0-8.5,6.9-15.3,15.3-15.3h30.6c8.5,0,15.3,6.9,15.3,15.3
			C433.8,350.3,426.9,357.2,418.4,357.2z"/>
	</g>
	<path class="st2" d="M275.1,23.8c-3.5-2.9-8.2-4.2-12.6-3.2l-245,45.9C10.2,67.9,5,74.2,5,81.6v336.9c0,7.3,5.2,13.7,12.5,15
		l245,45.9c0.9,0.2,1.9,0.3,2.8,0.3c3.6,0,7-1.2,9.8-3.5c3.5-2.9,5.5-7.3,5.5-11.8V35.6C280.6,31.1,278.6,26.8,275.1,23.8z"/>
	<path class="st3" d="M215.6,301.2l-48.4-55.3l49-63c5.2-6.7,4-16.3-2.7-21.5c-6.6-5.2-16.3-4-21.5,2.7l-45.4,58.3l-38.2-43.7
		c-5.6-6.4-15.3-7-21.6-1.4c-6.4,5.6-7,15.3-1.4,21.6l42.1,48.1l-42.7,54.9c-5.2,6.7-4,16.3,2.7,21.5c2.8,2.2,6.2,3.2,9.4,3.2
		c4.6,0,9.1-2,12.1-5.9l39-50.2l44.5,50.9c3,3.5,7.3,5.3,11.5,5.3c3.6,0,7.2-1.3,10.1-3.8C220.5,317.2,221.2,307.5,215.6,301.2z"/>
</g>
</svg>
