<svg id="Layer_1" data-name="Layer 1" xmlns="http://www.w3.org/2000/svg" viewBox="0 0 240.84 34.96"><defs><style>.cls-1{fill:#fff;}</style></defs><title>Untitled-1</title><path class="cls-1" d="M12.1,31.3A33.67,33.67,0,0,1,24,33.38a0.2,0.2,0,0,0,.11,0,0.34,0.34,0,0,0,.21-0.07A0.42,0.42,0,0,0,24.53,33V10a0.43,0.43,0,0,0-.27-0.4L12,4.75c-0.13-.05-0.06,0-0.18,0s0,0.21,0,.35V30.87C11.9,31.11,11.87,31.3,12.1,31.3Z" transform="translate(-3.9 -4.72)"/><path class="cls-1" d="M46.79,8.83a0.37,0.37,0,0,0-.35-0.07l-4.27,1.29a0.39,0.39,0,0,0-.26.41v22.2s0,0.87-.41.87H40.8c-3.48,0-10,.1-14.17,2.52l-0.84.35L25,36.12c-4.22-2.42-10.69-2.59-14.17-2.59H9.89a5,5,0,0,1-1-.72V10.46c0-.19.29-0.36,0.11-0.41L4.9,8.76a1,1,0,0,0-.6.07,0.84,0.84,0,0,0-.4.34V36a1.3,1.3,0,0,0,.47.32,0.89,0.89,0,0,0,.49.11c1.28-.13,3.37-0.28,5.64-0.28,5,0,9,.73,11.63,2.11a12.09,12.09,0,0,0,3.64,1.39,12,12,0,0,0,3.63-1.39C32,36.91,36,36.19,41,36.19c2.27,0,4.28.15,5.56,0.28a0.31,0.31,0,0,0,.27-0.11A0.39,0.39,0,0,0,46.9,36V9.17A0.39,0.39,0,0,0,46.79,8.83Z" transform="translate(-3.9 -4.72)"/><path class="cls-1" d="M27.25,33.34a0.43,0.43,0,0,0,.4,0A33.68,33.68,0,0,1,39.59,31.3a0.35,0.35,0,0,0,.31-0.43V5.15a0.37,0.37,0,0,0-.08-0.35,0.33,0.33,0,0,0-.34,0L27.3,9.6A0.42,0.42,0,0,0,27,10V33A0.43,0.43,0,0,0,27.25,33.34Z" transform="translate(-3.9 -4.72)"/><path class="cls-1" d="M107.9,18.71a5.08,5.08,0,0,1,5.43,4.82H102.15c0.25-3,3.76-4.82,5.76-4.82V13.85c-8,0-12.26,5.89-12.26,12.1,0,6.62,4.64,12.45,12.17,12.45C113,38.4,118,36,119,31.67a1,1,0,0,0-1.15-1.14h-3.69a1.73,1.73,0,0,0-1.55.57c-1.05,1.49-2.6,2-4.88,2a5.65,5.65,0,0,1-5.63-5.52h15.67c1.44,0,2.18-.52,2.18-1.81,0-6.06-3-11.87-12-11.87v4.86Z" transform="translate(-3.9 -4.72)"/><path class="cls-1" d="M139.74,5.53H89a2.36,2.36,0,0,0-2.09,2.36l0.17,19.43S76.13,8.25,75.56,7.28a3.74,3.74,0,0,0-3.28-1.74H68.1A2.11,2.11,0,0,0,66,7.62V35.69a1.91,1.91,0,0,0,2.09,1.84h2.68a1.89,1.89,0,0,0,2.09-1.81L72.7,16s11,19.12,11.52,19.88a3.59,3.59,0,0,0,3.28,1.63h3.83a1.89,1.89,0,0,0,2.09-1.81V10.89l46.2,0.06a1.25,1.25,0,0,0,1.29-1.32v-2C140.9,6.83,140.53,5.53,139.74,5.53Z" transform="translate(-3.9 -4.72)"/><path class="cls-1" d="M131.53,18.48c2.21,0,3.86.36,4.45,1.7,0.28,0.64.84,0.35,1.6,0.35h3c0.5,0,1.08,0,1.08-.64,0-3.41-4.21-6.25-10.17-6.25-6.16,0-10.21,2.94-10.21,7.46,0,3.46,2.83,5.57,6.3,6.45L133.22,29c1.42,0.36,2.69.79,2.69,2,0,1.86-2,2.49-4.23,2.49s-4.18-.69-4.78-2.14c-0.35-.84-1-0.75-1.87-0.75h-3.09c-0.54,0-1,0-1,.71v0.38c0,3.3,4.52,6.76,10.84,6.76,4.48,0,10.7-1.8,10.7-7.61,0-3.36-2.35-5.69-6.14-6.62l-5.83-1.43c-1.38-.35-2.67-0.78-2.67-1.92C127.81,19.07,129.46,18.48,131.53,18.48Z" transform="translate(-3.9 -4.72)"/><path class="cls-1" d="M146.9,15.38c0-.87.2-0.85,1.07-0.85h9.84c4.21,0,8.82.66,8.82,5.76A5.23,5.23,0,0,1,163.42,25a5.87,5.87,0,0,1,4.21,5.85c0,5.81-4.28,7.66-9.51,7.66H148c-0.87,0-1.07-1-1.07-1.89V15.38Zm5,8.15h5.78a2.5,2.5,0,0,0,2.6-2.48,2.39,2.39,0,0,0-2.6-2.52H151.9v5Zm0,10h5.95c2,0,3.42-.91,3.42-2.93s-1.5-3.07-3.42-3.07H151.9v6Z" transform="translate(-3.9 -4.72)"/><path class="cls-1" d="M181.35,13.29c7.69,0,12,5.64,12,12.72s-4.34,12.72-12,12.72-12-5.64-12-12.72S173.65,13.29,181.35,13.29Zm0,20c4.1,0,5.68-3.62,5.68-7.25s-1.57-7.25-5.68-7.25-5.68,3.63-5.68,7.25S177.24,33.26,181.35,33.26Z" transform="translate(-3.9 -4.72)"/><path class="cls-1" d="M207.1,13.29c7.69,0,12,5.64,12,12.72s-4.34,12.72-12,12.72-12-5.64-12-12.72S199.41,13.29,207.1,13.29Zm0,20c4.1,0,5.68-3.62,5.68-7.25s-1.57-7.25-5.68-7.25-5.68,3.63-5.68,7.25S203,33.26,207.1,33.26Z" transform="translate(-3.9 -4.72)"/><path class="cls-1" d="M223.25,14.53h4.65v8.64l8.23-8.64h6.94c0.36,0,.55.07,0.3,0.34L235,23.59l9.65,14.14a0.52,0.52,0,0,1-.39.8h-7L230.6,28.12l-2.7,2.58v7.84h-4.65a1.69,1.69,0,0,1-1.35-1.83V15.31C221.9,14.48,222.42,14.53,223.25,14.53Z" transform="translate(-3.9 -4.72)"/></svg>