<?xml version="1.0" encoding="utf-8"?>
<!-- Generator: Adobe Illustrator 19.2.1, SVG Export Plug-In . SVG Version: 6.00 Build 0)  -->
<svg version="1.1" id="Layer_1" xmlns="http://www.w3.org/2000/svg" xmlns:xlink="http://www.w3.org/1999/xlink" x="0px" y="0px"
	 viewBox="0 0 236 100" style="enable-background:new 0 0 236 100;" xml:space="preserve">
<style type="text/css">
	.st0{fill:#FFFFFF;}
	.st1{fill:none;}
	.st2{enable-background:new    ;}
</style>
<g>
	<g id="_x33_56._Play">
		<g>
			<path class="st0" d="M72.5,35.5c-9.8-17-31.5-22.8-48.5-13S1.2,54,11,71s31.5,22.8,48.5,13S82.3,52.5,72.5,35.5z M56,77.8
				C42.4,85.7,25,81,17.1,67.4s-3.2-31,10.4-38.8c13.6-7.9,31-3.2,38.8,10.4C74.2,52.6,69.6,70,56,77.8z M54.5,51.8L35.9,40.9
				c-1.7-1-3.1-0.2-3.1,1.8L33,64.2c0,2,1.4,2.8,3.1,1.8l18.5-10.7C56.2,54.4,56.2,52.8,54.5,51.8z"/>
		</g>
	</g>
</g>
<rect x="89.3" y="40.5" class="st1" width="131.5" height="25.9"/>
<g class="st2">
	<path class="st0" d="M98.2,58l5.7-16.4h2.9l-7.4,19.9H97l-7.4-19.9h2.9L98.2,58z"/>
	<path class="st0" d="M114.5,61.8c-2,0-3.6-0.7-4.9-2s-1.9-3.1-1.9-5.3v-0.5c0-1.5,0.3-2.8,0.8-3.9s1.3-2.1,2.4-2.7
		c1-0.7,2.1-1,3.3-1c1.9,0,3.4,0.6,4.5,1.9s1.6,3.1,1.6,5.4v1.1h-10c0,1.5,0.5,2.6,1.3,3.5c0.8,0.9,1.9,1.3,3.1,1.3
		c0.9,0,1.6-0.2,2.3-0.5c0.6-0.4,1.2-0.8,1.6-1.4l1.5,1.2C118.9,60.8,117,61.8,114.5,61.8z M114.2,48.5c-1,0-1.9,0.4-2.6,1.1
		c-0.7,0.7-1.1,1.8-1.3,3.1h7.4v-0.2c-0.1-1.3-0.4-2.3-1-3C116.1,48.9,115.3,48.5,114.2,48.5z"/>
	<path class="st0" d="M130.4,49c-0.4-0.1-0.8-0.1-1.2-0.1c-1.7,0-2.8,0.7-3.4,2.1v10.5h-2.5V46.7h2.5l0,1.7c0.8-1.3,2-2,3.5-2
		c0.5,0,0.9,0.1,1.1,0.2V49z"/>
	<path class="st0" d="M143.1,43.1v3.6h2.8v2h-2.8v9.2c0,0.6,0.1,1,0.4,1.3c0.2,0.3,0.7,0.4,1.3,0.4c0.3,0,0.7-0.1,1.2-0.2v2
		c-0.7,0.2-1.3,0.3-1.9,0.3c-1.1,0-2-0.3-2.6-1s-0.9-1.7-0.9-2.9v-9.2h-2.7v-2h2.7v-3.6H143.1z"/>
	<path class="st0" d="M157.9,60.1c-1,1.2-2.4,1.7-4.3,1.7c-1.6,0-2.8-0.5-3.6-1.4c-0.8-0.9-1.2-2.3-1.3-4.1v-9.6h2.5v9.6
		c0,2.2,0.9,3.4,2.7,3.4c1.9,0,3.2-0.7,3.9-2.2V46.7h2.5v14.8H158L157.9,60.1z"/>
	<path class="st0" d="M167.7,43.1v3.6h2.8v2h-2.8v9.2c0,0.6,0.1,1,0.4,1.3c0.2,0.3,0.7,0.4,1.3,0.4c0.3,0,0.7-0.1,1.2-0.2v2
		c-0.7,0.2-1.3,0.3-1.9,0.3c-1.1,0-2-0.3-2.6-1s-0.9-1.7-0.9-2.9v-9.2h-2.7v-2h2.7v-3.6H167.7z"/>
	<path class="st0" d="M172.4,54c0-1.4,0.3-2.8,0.9-3.9c0.6-1.2,1.4-2.1,2.4-2.7c1-0.6,2.2-0.9,3.5-0.9c2,0,3.6,0.7,4.9,2.1
		s1.9,3.2,1.9,5.6v0.2c0,1.4-0.3,2.7-0.8,3.9c-0.6,1.1-1.3,2-2.4,2.7s-2.2,1-3.5,1c-2,0-3.6-0.7-4.9-2.1s-1.9-3.2-1.9-5.5V54z
		 M175,54.3c0,1.6,0.4,3,1.1,4c0.8,1,1.8,1.5,3.1,1.5c1.3,0,2.3-0.5,3.1-1.5c0.8-1,1.1-2.4,1.1-4.2c0-1.6-0.4-2.9-1.2-3.9
		c-0.8-1-1.8-1.5-3.1-1.5c-1.2,0-2.3,0.5-3,1.5S175,52.4,175,54.3z"/>
	<path class="st0" d="M196.2,49c-0.4-0.1-0.8-0.1-1.2-0.1c-1.7,0-2.8,0.7-3.4,2.1v10.5h-2.5V46.7h2.5l0,1.7c0.8-1.3,2-2,3.5-2
		c0.5,0,0.9,0.1,1.1,0.2V49z"/>
	<path class="st0" d="M198.6,42.8c0-0.4,0.1-0.8,0.4-1c0.2-0.3,0.6-0.4,1.1-0.4s0.9,0.1,1.1,0.4c0.3,0.3,0.4,0.6,0.4,1
		s-0.1,0.8-0.4,1c-0.3,0.3-0.6,0.4-1.1,0.4s-0.9-0.1-1.1-0.4C198.7,43.5,198.6,43.2,198.6,42.8z M201.3,61.5h-2.5V46.7h2.5V61.5z"/>
	<path class="st0" d="M214.5,61.5c-0.1-0.3-0.3-0.8-0.4-1.6c-1.2,1.2-2.6,1.8-4.2,1.8c-1.5,0-2.7-0.4-3.6-1.2
		c-0.9-0.8-1.4-1.9-1.4-3.1c0-1.5,0.6-2.7,1.8-3.6c1.2-0.9,2.8-1.3,4.9-1.3h2.5v-1.2c0-0.9-0.3-1.6-0.8-2.1
		c-0.5-0.5-1.3-0.8-2.3-0.8c-0.9,0-1.7,0.2-2.3,0.7c-0.6,0.5-0.9,1-0.9,1.7h-2.5c0-0.7,0.3-1.5,0.8-2.1c0.5-0.7,1.2-1.2,2.1-1.6
		c0.9-0.4,1.9-0.6,3-0.6c1.7,0,3,0.4,4,1.3c1,0.9,1.5,2,1.5,3.5v6.8c0,1.4,0.2,2.4,0.5,3.2v0.2H214.5z M210.3,59.6
		c0.8,0,1.5-0.2,2.3-0.6s1.2-0.9,1.5-1.6v-3h-2c-3.1,0-4.6,0.9-4.6,2.7c0,0.8,0.3,1.4,0.8,1.9C208.8,59.4,209.5,59.6,210.3,59.6z"/>
	<path class="st0" d="M223.3,61.5h-2.5v-21h2.5V61.5z"/>
</g>
</svg>
