<?xml version="1.0" encoding="utf-8"?>
<!-- Generator: Adobe Illustrator 19.2.1, SVG Export Plug-In . SVG Version: 6.00 Build 0)  -->
<svg version="1.1" id="Layer_1" xmlns="http://www.w3.org/2000/svg" xmlns:xlink="http://www.w3.org/1999/xlink" x="0px" y="0px"
	 viewBox="0 0 160 160" style="enable-background:new 0 0 160 160;" xml:space="preserve">
<style type="text/css">
	.st0{fill:#002E5A;}
	.st1{fill:url(#SVGID_1_);}
	.st2{fill:url(#SVGID_2_);}
	.st3{opacity:0.5;fill:url(#SVGID_3_);}
	.st4{opacity:0.5;fill:url(#SVGID_4_);}
	.st5{opacity:0.5;fill:url(#SVGID_5_);}
	.st6{opacity:0.5;fill:url(#SVGID_6_);}
	.st7{opacity:0.5;fill:url(#SVGID_7_);}
	.st8{opacity:0.5;fill:url(#SVGID_8_);}
	.st9{fill:url(#SVGID_9_);}
	.st10{fill:url(#SVGID_10_);}
	.st11{clip-path:url(#SVGID_12_);}
	.st12{fill:url(#SVGID_13_);}
	.st13{fill:url(#SVGID_14_);}
	.st14{fill:url(#SVGID_15_);}
	.st15{fill:url(#SVGID_16_);}
	.st16{fill:url(#SVGID_17_);}
	.st17{fill:url(#SVGID_18_);}
	.st18{fill:url(#SVGID_19_);}
	.st19{fill:url(#SVGID_20_);}
	.st20{fill:url(#SVGID_21_);}
	.st21{fill:url(#SVGID_22_);}
	.st22{fill:url(#SVGID_23_);}
	.st23{fill:url(#SVGID_24_);}
	.st24{fill:url(#SVGID_25_);}
	.st25{fill:url(#SVGID_26_);}
	.st26{fill:url(#SVGID_27_);}
	.st27{fill:url(#SVGID_28_);}
	.st28{fill:url(#SVGID_29_);}
	.st29{fill:url(#SVGID_30_);}
	.st30{fill:url(#SVGID_31_);}
	.st31{fill:url(#SVGID_32_);}
	.st32{fill:url(#SVGID_33_);}
	.st33{fill:url(#SVGID_34_);}
	.st34{fill:url(#SVGID_35_);}
	.st35{fill:url(#SVGID_36_);}
	.st36{fill:url(#SVGID_37_);}
	.st37{fill:url(#SVGID_38_);}
	.st38{fill:url(#SVGID_39_);}
	.st39{fill:url(#SVGID_40_);}
	.st40{fill:url(#SVGID_41_);}
	.st41{fill:url(#SVGID_42_);}
	.st42{fill:url(#SVGID_43_);}
	.st43{fill:url(#SVGID_44_);}
	.st44{fill:url(#SVGID_45_);}
	.st45{fill:url(#SVGID_46_);}
	.st46{fill:url(#SVGID_47_);}
	.st47{fill:url(#SVGID_48_);}
	.st48{fill:url(#SVGID_49_);}
	.st49{fill:url(#SVGID_50_);}
	.st50{fill:url(#SVGID_51_);}
	.st51{fill:url(#SVGID_52_);}
	.st52{opacity:0.5;fill:url(#SVGID_53_);}
	.st53{opacity:0.5;fill:url(#SVGID_54_);}
	.st54{opacity:0.5;fill:url(#SVGID_55_);}
	.st55{opacity:0.5;fill:url(#SVGID_56_);}
	.st56{opacity:0.5;fill:url(#SVGID_57_);}
	.st57{opacity:0.5;fill:url(#SVGID_58_);}
</style>
<g>
	<g>
		<path class="st0" d="M135.1,107.8c22.9-22.9,22.9-60.1,0-83C112.3,2,75,2,52.2,24.9c-19.4,19.4-22.3,48.3-8.8,70.8
			c0,0,1,1.6-0.3,2.9c-7.5,7.5-29.9,29.9-29.9,29.9c-6,6-7.4,14.3-2.1,19.6l0.9,0.9c5.3,5.3,13.6,3.9,19.6-2.1
			c0,0,22.4-22.4,29.9-29.9c1.4-1.4,3-0.4,3-0.4C86.9,130.2,115.7,127.2,135.1,107.8z M63,97c-16.9-16.9-16.9-44.4,0-61.3
			c16.9-16.9,44.4-16.9,61.3,0c16.9,16.9,16.9,44.4,0,61.3C107.4,113.9,79.9,113.9,63,97z"/>
		<g>
			<path class="st0" d="M66.7,62.9c-0.8,0-1.6-0.2-2.4-0.5c-3.1-1.3-4.5-4.9-3.2-7.9c8.2-19.4,30.6-28.4,50-20.3
				c3.1,1.3,4.5,4.9,3.2,7.9c-1.3,3.1-4.9,4.5-7.9,3.2C93.2,39.8,77.9,46,72.3,59.2C71.3,61.5,69.1,62.9,66.7,62.9z"/>
		</g>
	</g>
</g>
</svg>
