<?xml version="1.0" encoding="utf-8"?>
<!-- Generator: Adobe Illustrator 19.2.1, SVG Export Plug-In . SVG Version: 6.00 Build 0)  -->
<svg version="1.1" id="Layer_1" xmlns="http://www.w3.org/2000/svg" xmlns:xlink="http://www.w3.org/1999/xlink" x="0px" y="0px"
	 viewBox="0 0 730 160" style="enable-background:new 0 0 730 160;" xml:space="preserve">
<style type="text/css">
	.st0{fill:#002E5A;}
	.st1{fill:url(#SVGID_1_);}
	.st2{fill:url(#SVGID_2_);}
	.st3{opacity:0.5;fill:url(#SVGID_3_);}
	.st4{opacity:0.5;fill:url(#SVGID_4_);}
	.st5{opacity:0.5;fill:url(#SVGID_5_);}
	.st6{opacity:0.5;fill:url(#SVGID_6_);}
	.st7{opacity:0.5;fill:url(#SVGID_7_);}
	.st8{opacity:0.5;fill:url(#SVGID_8_);}
	.st9{fill:url(#SVGID_9_);}
	.st10{fill:url(#SVGID_10_);}
	.st11{clip-path:url(#SVGID_12_);}
	.st12{fill:url(#SVGID_13_);}
	.st13{fill:url(#SVGID_14_);}
	.st14{fill:url(#SVGID_15_);}
	.st15{fill:url(#SVGID_16_);}
	.st16{fill:url(#SVGID_17_);}
	.st17{fill:url(#SVGID_18_);}
	.st18{fill:url(#SVGID_19_);}
	.st19{fill:url(#SVGID_20_);}
	.st20{fill:url(#SVGID_21_);}
	.st21{fill:url(#SVGID_22_);}
	.st22{fill:url(#SVGID_23_);}
	.st23{fill:url(#SVGID_24_);}
	.st24{fill:url(#SVGID_25_);}
	.st25{fill:url(#SVGID_26_);}
	.st26{fill:url(#SVGID_27_);}
	.st27{fill:url(#SVGID_28_);}
	.st28{fill:url(#SVGID_29_);}
	.st29{fill:url(#SVGID_30_);}
	.st30{fill:url(#SVGID_31_);}
	.st31{fill:url(#SVGID_32_);}
	.st32{fill:url(#SVGID_33_);}
	.st33{fill:url(#SVGID_34_);}
	.st34{fill:url(#SVGID_35_);}
	.st35{fill:url(#SVGID_36_);}
	.st36{fill:url(#SVGID_37_);}
	.st37{fill:url(#SVGID_38_);}
	.st38{fill:url(#SVGID_39_);}
	.st39{fill:url(#SVGID_40_);}
	.st40{fill:url(#SVGID_41_);}
	.st41{fill:url(#SVGID_42_);}
	.st42{fill:url(#SVGID_43_);}
	.st43{fill:url(#SVGID_44_);}
	.st44{fill:url(#SVGID_45_);}
	.st45{fill:url(#SVGID_46_);}
	.st46{fill:url(#SVGID_47_);}
	.st47{fill:url(#SVGID_48_);}
	.st48{fill:url(#SVGID_49_);}
	.st49{fill:url(#SVGID_50_);}
	.st50{fill:url(#SVGID_51_);}
	.st51{fill:url(#SVGID_52_);}
	.st52{opacity:0.5;fill:url(#SVGID_53_);}
	.st53{opacity:0.5;fill:url(#SVGID_54_);}
	.st54{opacity:0.5;fill:url(#SVGID_55_);}
	.st55{opacity:0.5;fill:url(#SVGID_56_);}
	.st56{opacity:0.5;fill:url(#SVGID_57_);}
	.st57{opacity:0.5;fill:url(#SVGID_58_);}
</style>
<g>
	<g>
		<g>
			<g>
				<g>
					<g>
						<g>
							<path class="st0" d="M378.5,72.8c8,0,14,5.2,14.6,11.2h-28C365.7,78,372.5,72.8,378.5,72.8V60.7c-18,0-30.1,14.7-30.1,30.3
								c0,16.5,11.9,31.1,30.7,31.1c12.9,0,25.7-6.2,28.1-17c0.3-1.5-0.6-3-2.7-3h-9.2c-1.7,0-3,0.4-3.9,1.6c-2.6,3.7-6.5,6-12.2,6
								c-8.1,0-13.7-7.6-14.1-12.6h39.2c3.6,0,4.9-2.4,4.9-5.6c0-15.1-10.7-30.7-30.7-30.7V72.8z"/>
							<path class="st0" d="M459.1,43H332.2c-2.9,0-5.2,1.5-5.2,4.3l0.4,47.8c0,0-27.3-48.5-28.8-50.9c-1.3-2.3-4.2-5.2-8.2-5.2H280
								c-2.9,0-5.2,2.9-5.2,5.7l0,71c0,2.8,2.3,5.4,5.2,5.4h6.7c2.9,0,5.2-2.3,5.2-5.1l-0.4-49.5c0,0,27.6,48.2,28.8,50.1
								c1.6,2.6,4.3,4.5,8.2,4.5h9.6c2.9,0,5.2-2.3,5.2-5.1l0-62.4l115.7,0c2,0,3.5-1.5,3.5-3.4V45C462.5,43.1,461.1,43,459.1,43z"
								/>
							<path class="st0" d="M438.6,72.2c5.5,0,9.6,2.2,11.1,5.6c0.7,1.6,2.1,2.2,4,2.2h7.6c1.3,0,2.7-1.3,2.7-2.9
								c0-8.5-10.5-16.3-25.4-16.3c-15.4,0-25.5,7-25.5,18.3c0,8.6,7.1,13.8,15.8,16c4,1,10.7,2.6,14,3.4c3.6,0.9,6.7,1.9,6.7,4.9
								c0,4.6-5.1,6.2-10.6,6.2c-5.2,0-10.5-1.9-11.9-5.5c-0.9-2.1-2.4-2.1-4.7-2.1h-7.7c-1.3,0-2.2,0.5-2.2,2.2v1
								c0,8.3,11.1,16.9,26.9,16.9c11.2,0,26.6-4.5,26.6-19c0-8.4-5.9-14.2-15.4-16.6c-3.7-0.9-12.7-3.1-14.6-3.6
								c-3.5-0.9-6.7-2-6.7-4.8C429.3,73.7,433.4,72.2,438.6,72.2z"/>
						</g>
					</g>
				</g>
			</g>
			<g>
				<path class="st0" d="M475.5,64.5c0-2.2,2.1-3.5,4.2-3.5h24.6c10.5,0,22.1,2.3,22.1,15.1c0,5.5-3.2,9.8-8,12.2
					c6.5,1.9,10.5,7.2,10.5,14.1c0,14.5-10.7,18.6-23.8,18.6h-25.4c-2.2,0-4.2-1.2-4.2-3.4V64.5z M492.5,86h11.5
					c2.7,0,6.5-2.1,6.5-6.5c0-4.4-3.2-6.5-6.5-6.5h-11.5V86z M492.5,108h11.9c5,0,8.5-1.3,8.5-6.3c0-5.4-3.8-6.7-8.5-6.7h-11.9V108z
					"/>
				<path class="st0" d="M563.1,59.3c19.2,0,30.1,14.1,30.1,31.8c0,17.7-10.9,31.8-30.1,31.8c-19.2,0-30.1-14.1-30.1-31.8
					C533,73.4,543.9,59.3,563.1,59.3z M563.1,109.2c10.3,0,14.2-9.1,14.2-18.1c0-9.1-3.9-18.1-14.2-18.1c-10.3,0-14.2,9.1-14.2,18.1
					C548.9,100.1,552.9,109.2,563.1,109.2z"/>
				<path class="st0" d="M627.5,59.3c19.2,0,30.1,14.1,30.1,31.8c0,17.7-10.9,31.8-30.1,31.8c-19.2,0-30.1-14.1-30.1-31.8
					C597.4,73.4,608.3,59.3,627.5,59.3z M627.5,109.2c10.3,0,14.2-9.1,14.2-18.1c0-9.1-3.9-18.1-14.2-18.1
					c-10.3,0-14.2,9.1-14.2,18.1C613.3,100.1,617.2,109.2,627.5,109.2z"/>
				<path class="st0" d="M667.9,61h11.6v23l20.6-23h17.3c0.9,0,1.4,0.9,0.8,1.5l-20.9,22.2l24.1,34.8c0.5,0.8,0,1.5-1,1.5h-17.5
					l-16.7-25.4l-6.8,7.1V121h-11.6c-2.1,0-3.4-1.1-3.4-3.2V64.3C664.5,62.2,665.8,61,667.9,61z"/>
			</g>
		</g>
	</g>
	<g>
		<g>
			<radialGradient id="SVGID_1_" cx="110.175" cy="155.4093" r="85.729" gradientUnits="userSpaceOnUse">
				<stop  offset="0" style="stop-color:#B3B3B3"/>
				<stop  offset="0.146" style="stop-color:#CCCCCC;stop-opacity:0.854"/>
				<stop  offset="0.3176" style="stop-color:#E3E3E3;stop-opacity:0.6824"/>
				<stop  offset="0.5041" style="stop-color:#F3F3F3;stop-opacity:0.4959"/>
				<stop  offset="0.7147" style="stop-color:#FCFCFC;stop-opacity:0.2853"/>
				<stop  offset="1" style="stop-color:#FFFFFF;stop-opacity:0"/>
			</radialGradient>
			<polygon class="st1" points="212.5,44 8.5,44 8.5,156.3 110.5,143.5 212.5,155.7 			"/>
			<path class="st0" d="M110.5,144.1c-35-6.2-66.6-10.8-100.2-13.5c-1.3-0.1-2.1-0.9-1.9-2c6.2-27.2,12.4-54.5,18.7-81.7
				c0.4-1.6,2.4-2.9,3.8-2.8c26.7,3.6,51.6,8.6,79.6,14.7C110.5,87.2,110.5,115.6,110.5,144.1z"/>
			<linearGradient id="SVGID_2_" gradientUnits="userSpaceOnUse" x1="56.5438" y1="154.1907" x2="65.6348" y2="131.05">
				<stop  offset="0.25" style="stop-color:#80FFFF"/>
				<stop  offset="0.3237" style="stop-color:#7AF6F8"/>
				<stop  offset="0.4455" style="stop-color:#6BDDE4"/>
				<stop  offset="0.6002" style="stop-color:#52B4C4"/>
				<stop  offset="0.7818" style="stop-color:#2F7B97"/>
				<stop  offset="0.984" style="stop-color:#04345F"/>
				<stop  offset="1" style="stop-color:#002E5A"/>
			</linearGradient>
			<path class="st2" d="M56.1,121.2c-1.1,8.9-2.7,22.1-3.8,31c-0.1,0.6,0.9,0.9,1.6,0.5c3.8-2.4,5.7-3.6,9.5-6
				c0.4-0.3,1.1-0.3,1.4,0c1.9,1.8,2.9,2.7,4.9,4.5c0.6,0.5,1.7,0.1,1.8-0.6c0.6-6.9,1.1-15.3,1.7-22.2"/>
			<radialGradient id="SVGID_3_" cx="110.1741" cy="143.8598" r="139.0565" gradientUnits="userSpaceOnUse">
				<stop  offset="0" style="stop-color:#002E5A"/>
				<stop  offset="0.5" style="stop-color:#008FD5"/>
				<stop  offset="1" style="stop-color:#008AAC"/>
			</radialGradient>
			<path class="st3" d="M21.9,105.7c5.6-27,11.3-53.9,16.9-80.9c0.4-1.9,2.8-3.3,4.1-2.5c24.9,15,43.4,14.7,67.4,36.5
				c0,28.4,0,56.9,0,85.3c-29-26.2-57.9-21.8-87.2-36.5C22.4,107.3,21.8,106.5,21.9,105.7z"/>
			<path class="st0" d="M110.5,144.1c33-6.2,66-10.8,99.5-13.5c1.3-0.1,1.8-0.9,1.5-2c-6.2-27.2-12.6-54.5-18.8-81.7
				c-0.4-1.6-1.8-2.9-3.3-2.8c-26.7,3.6-53,8.6-79,14.7C110.5,87.2,110.5,115.6,110.5,144.1z"/>
			
				<radialGradient id="SVGID_4_" cx="332.6462" cy="144.3883" r="128.846" gradientTransform="matrix(1.1523 0 0 1 -273.1843 0)" gradientUnits="userSpaceOnUse">
				<stop  offset="0" style="stop-color:#002E5A"/>
				<stop  offset="0.5" style="stop-color:#00AEEF"/>
				<stop  offset="1" style="stop-color:#80FFFF"/>
			</radialGradient>
			<path class="st4" d="M30.9,95c5.2-26.4,10.4-52.8,15.6-79.2c0.9-4.4,3.9-2.6,4.9-2.1c13.6,15.2,41,22.4,59,45.1
				c0,28.4,0,56.9,0,85.3c-25-28.8-53.7-27.3-78.6-47.5C31.3,96.2,30.8,95.6,30.9,95z"/>
			<radialGradient id="SVGID_5_" cx="110.1736" cy="144.4108" r="134.1359" gradientUnits="userSpaceOnUse">
				<stop  offset="0" style="stop-color:#002E5A"/>
				<stop  offset="0.5" style="stop-color:#00BDF2"/>
				<stop  offset="1" style="stop-color:#80FFFF"/>
			</radialGradient>
			<path class="st5" d="M41.4,85.6c4.5-26.4,9-52.8,13.6-79.2c0.4-2.1,3.2-3.5,4.3-2.1c20.6,26.6,37.2,25.2,51.2,54.4
				c0,28.4,0,56.9,0,85.3c-18-33.1-51.1-34.2-68.3-56.8C41.8,86.8,41.3,86.3,41.4,85.6z"/>
			<g>
				
					<radialGradient id="SVGID_6_" cx="3369.7659" cy="143.8598" r="137.861" gradientTransform="matrix(-1 0 0 1 3480.4912 0)" gradientUnits="userSpaceOnUse">
					<stop  offset="0" style="stop-color:#002E5A"/>
					<stop  offset="0.5" style="stop-color:#008FD5"/>
					<stop  offset="1" style="stop-color:#008AAC"/>
				</radialGradient>
				<path class="st6" d="M197.7,105.7c-5.6-27-11.3-53.9-16.9-80.9c-0.4-1.9-2.2-3.3-3.5-2.5c-24.9,15-43.8,14.7-66.8,36.5
					c0,28.4,0,56.9,0,85.3c29-26.2,57.2-21.8,86.6-36.5C197.9,107.3,197.9,106.5,197.7,105.7z"/>
				
					<radialGradient id="SVGID_7_" cx="3161.3601" cy="144.3883" r="128.0657" gradientTransform="matrix(-1.1523 0 0 1 3753.6755 0)" gradientUnits="userSpaceOnUse">
					<stop  offset="0" style="stop-color:#002E5A"/>
					<stop  offset="0.5" style="stop-color:#00AEEF"/>
					<stop  offset="1" style="stop-color:#80FFFF"/>
				</radialGradient>
				<path class="st7" d="M188.7,95c-5.2-26.4-10.4-52.8-15.6-79.2c-0.9-4.4-3.3-2.6-4.3-2.1c-13.6,15.2-42.4,22.4-58.4,45.1
					c0,28.4,0,56.9,0,85.3c23-28.8,53.1-27.3,78-47.5C189,96.2,188.9,95.6,188.7,95z"/>
				
					<radialGradient id="SVGID_8_" cx="3369.7664" cy="144.4108" r="133.2776" gradientTransform="matrix(-1 0 0 1 3480.4912 0)" gradientUnits="userSpaceOnUse">
					<stop  offset="0" style="stop-color:#002E5A"/>
					<stop  offset="0.5" style="stop-color:#00BDF2"/>
					<stop  offset="1" style="stop-color:#80FFFF"/>
				</radialGradient>
				<path class="st8" d="M178.3,85.6c-4.5-26.4-9-52.8-13.6-79.2c-0.4-2.1-2.6-3.5-3.7-2.1c-20.6,26.6-38.6,25.2-50.6,54.4
					c0,28.4,0,56.9,0,85.3c18-33.1,50.5-34.2,67.7-56.8C178.5,86.8,178.4,86.3,178.3,85.6z"/>
			</g>
		</g>
		<rect x="106.5" y="143" class="st0" width="9" height="3"/>
	</g>
</g>
</svg>
