<?xml version="1.0" encoding="utf-8"?>
<!-- Generator: Adobe Illustrator 19.0.0, SVG Export Plug-In . SVG Version: 6.00 Build 0)  -->
<svg version="1.1" id="Capa_1" xmlns="http://www.w3.org/2000/svg" xmlns:xlink="http://www.w3.org/1999/xlink" x="0px" y="0px"
	 viewBox="0 0 15.8 16.1" style="enable-background:new 0 0 15.8 16.1;" xml:space="preserve">
<style type="text/css">
	.st0{fill:#030104;}
</style>
<g id="XMLID_184_">
	<g id="XMLID_185_">
		<path id="XMLID_186_" class="st0" d="M16.1,13.9l-5.8-5.8l5.8-5.8c0.3-0.3,0.5-1.2-0.2-1.9S14.2,0,13.9,0.2L8.2,6L2.4,0.2
			C2.1,0,1.2-0.2,0.5,0.5S0,2.1,0.2,2.4L6,8.2l-5.8,5.8c-0.3,0.3-0.5,1.2,0.2,1.9s1.6,0.5,1.9,0.2l5.8-5.8l5.8,5.8
			c0.3,0.3,1.2,0.5,1.9-0.2C16.6,15.1,16.3,14.2,16.1,13.9z"/>
	</g>
</g>
</svg>
