<?xml version="1.0" encoding="utf-8"?>
<!-- Generator: Adobe Illustrator 19.0.0, SVG Export Plug-In . SVG Version: 6.00 Build 0)  -->
<svg version="1.1" id="Capa_1" xmlns="http://www.w3.org/2000/svg" xmlns:xlink="http://www.w3.org/1999/xlink" x="0px" y="0px"
	 viewBox="0 0 23.7 28.1" style="enable-background:new 0 0 23.7 28.1;" xml:space="preserve">
<style type="text/css">
	.st0{fill:#FFFFFF;}
</style>
<g>
	<g>
		<path class="st0" d="M21.7,1.7h-4v-2.6c0-0.5-0.4-0.9-0.9-0.9c-0.1,0-0.1,0-0.1,0c0,0-0.1,0-0.1,0H7.1H7.1H7
			c-0.5,0-0.9,0.4-0.9,0.9v2.6H2c-1.1,0-2,0.9-2,2v1.5v1.9h1.8v19c0,1.1,0.9,2,2,2h16.1c1.1,0,2-0.9,2-2v-19h1.8V5.2V3.7
			C23.7,2.6,22.8,1.7,21.7,1.7z M7.9,0h7.9v1.7H7.9V0z M20.1,26.1c0,0.1-0.1,0.2-0.2,0.2H3.8c-0.1,0-0.2-0.1-0.2-0.2v-19h16.4V26.1z
			 M21.8,5.2h-20V3.7c0-0.1,0.1-0.2,0.2-0.2h19.6c0.1,0,0.2,0.1,0.2,0.2L21.8,5.2L21.8,5.2z"/>
		<rect x="15.3" y="9.2" class="st0" width="1.9" height="15.4"/>
		<rect x="10.9" y="9.2" class="st0" width="1.9" height="15.4"/>
		<rect x="6.6" y="9.2" class="st0" width="1.9" height="15.4"/>
	</g>
</g>
</svg>
