<?xml version="1.0" encoding="utf-8"?>
<!-- Generator: Adobe Illustrator 19.0.0, SVG Export Plug-In . SVG Version: 6.00 Build 0)  -->
<svg version="1.1" id="Capa_1" xmlns="http://www.w3.org/2000/svg" xmlns:xlink="http://www.w3.org/1999/xlink" x="0px" y="0px"
	 viewBox="0 0 15.8 10" style="enable-background:new 0 0 15.8 10;" xml:space="preserve">
<style type="text/css">
	.st0{fill:#030104;}
</style>
<g>
	<g>
		<path class="st0" d="M15.6,0.8l-0.5-0.5C14.9,0.1,14.7,0,14.4,0c-0.2,0-0.4,0.1-0.6,0.3L7.9,6.2L2,0.3C1.8,0.1,1.6,0,1.4,0
			S0.9,0.1,0.8,0.3L0.3,0.8c-0.3,0.3-0.3,0.9,0,1.2l7,7.4C7.5,9.6,7.7,10,7.9,10h0c0.2,0,0.4-0.4,0.6-0.6l7-7.2
			c0.2-0.2,0.3-0.5,0.3-0.7C15.8,1.2,15.7,0.9,15.6,0.8z"/>
	</g>
</g>
</svg>
