<?xml version="1.0" encoding="utf-8"?>
<!-- Generator: Adobe Illustrator 19.0.0, SVG Export Plug-In . SVG Version: 6.00 Build 0)  -->
<svg version="1.1" id="Capa_1" xmlns="http://www.w3.org/2000/svg" xmlns:xlink="http://www.w3.org/1999/xlink" x="0px" y="0px"
	 viewBox="0 0 16.5 19.4" style="enable-background:new 0 0 16.5 19.4;" xml:space="preserve">
<style type="text/css">
	.st0{stroke:#000000;stroke-width:0.7;stroke-miterlimit:10;}
</style>
<g>
	<g>
		<g>
			<g>
				<path class="st0" d="M20.3,7.1c0-0.5-0.2-1.1-0.6-1.5C19.3,5.2,18.8,5,18.2,5L5.3,5V1.5l9.7,0L15,5c0,0.4,0.3,0.8,0.8,0.8h0
					c0.4,0,0.8-0.3,0.8-0.8l0-3.6c0-0.8-0.7-1.5-1.5-1.5L5.2,0c-0.4,0-0.8,0.2-1,0.4s-0.4,0.6-0.4,1V5H2.1C1.5,5,1,5.2,0.6,5.6
					S0,6.5,0,7.1l0,7.5c0,0.5,0.2,1.1,0.6,1.5s0.9,0.6,1.5,0.6c0.4,0,0.8-0.3,0.8-0.8S2.5,15,2.1,15c-0.1,0-0.3-0.1-0.4-0.2
					c-0.1-0.1-0.2-0.2-0.2-0.4l0-7.5c0-0.3,0.2-0.5,0.5-0.5h2.5l13.7,0c0.1,0,0.3,0.1,0.4,0.2c0.1,0.1,0.2,0.2,0.2,0.4l0,7.5
					c0,0.1-0.1,0.3-0.2,0.4C18.5,15,18.4,15,18.2,15c-0.4,0-0.8,0.3-0.8,0.8s0.3,0.8,0.8,0.8c0.5,0,1.1-0.2,1.5-0.6
					c0.4-0.4,0.6-0.9,0.6-1.5L20.3,7.1z"/>
			</g>
		</g>
		<g>
			<g>
				<path class="st0" d="M16.3,11.2C16.2,11.1,16,11,15.8,11L4.5,11c-0.4,0-0.8,0.3-0.8,0.8l0,7.7c0,0.8,0.7,1.5,1.5,1.5l9.9,0
					c0.4,0,0.8-0.2,1-0.4c0.3-0.3,0.4-0.6,0.4-1v-7.7C16.5,11.6,16.4,11.4,16.3,11.2z M5.3,19.4l0-6.8l9.7,0l0,6.8L5.3,19.4z"/>
			</g>
		</g>
	</g>
	<rect x="2.4" y="15" class="st0" width="1.9" height="1.5"/>
	<rect x="16" y="15" class="st0" width="1.7" height="1.5"/>
</g>
</svg>
