<?xml version="1.0" encoding="utf-8"?>
<!-- Generator: Adobe Illustrator 19.0.0, SVG Export Plug-In . SVG Version: 6.00 Build 0)  -->
<svg version="1.1" id="Capa_1" xmlns="http://www.w3.org/2000/svg" xmlns:xlink="http://www.w3.org/1999/xlink" x="0px" y="0px"
	 viewBox="0 0 18.3 18.3" style="enable-background:new 0 0 18.3 18.3;" xml:space="preserve">
<style type="text/css">
	.st0{fill:#030104;}
</style>
<g id="XMLID_41_">
	<path id="XMLID_43_" class="st0" d="M2.4,10.3H0.1H0V16l1.7-1.6c1.7,2.3,4.4,3.8,7.4,3.8c4.7,0,8.5-3.5,9.1-8h-2.3
		c-0.5,3.2-3.4,5.7-6.8,5.7c-2.4,0-4.5-1.2-5.7-3.1l2.8-2.6H2.4z"/>
	<path id="XMLID_42_" class="st0" d="M9.1,0C4.5,0,0.6,3.5,0.1,8h2.3c0.5-3.2,3.4-5.7,6.8-5.7c2.5,0,4.7,1.3,5.9,3.3L12.6,8h2.3h1
		h2.3h0.1V2.3l-1.6,1.6C15,1.6,12.2,0,9.1,0z"/>
</g>
</svg>
